ISO-10303-21;
HEADER;
FILE_DESCRIPTION (( 'STEP AP214' ),
    '1' );
FILE_NAME ('35RAPC2AHN3.STEP',
    '2014-07-02T19:19:22',
    ( '' ),
    ( '' ),
    'SwSTEP 2.0',
    'SolidWorks 2014',
    '' );
FILE_SCHEMA (( 'AUTOMOTIVE_DESIGN' ));
ENDSEC;

DATA;
#1 = DIRECTION ( 'NONE',  ( -1.000000000000000000, 2.134255179837227400E-015, 2.315473435648530300E-015 ) ) ;
#2 = VECTOR ( 'NONE', #447, 1000.000000000000000 ) ;
#3 = CARTESIAN_POINT ( 'NONE',  ( 4.698843832772999100, 4.899999999998870600, 5.400000000000002100 ) ) ;
#4 = DIRECTION ( 'NONE',  ( 2.891205793291515300E-015, 0.0000000000000000000, 1.000000000000000000 ) ) ;
#5 = AXIS2_PLACEMENT_3D ( 'NONE', #638, #880, #337 ) ;
#6 = CARTESIAN_POINT ( 'NONE',  ( 2.325510696599999900, -1.951156167226999900, 0.0000000000000000000 ) ) ;
#7 = DIRECTION ( 'NONE',  ( -3.915085558625467200E-016, -3.676510055175458400E-016, 1.000000000000000000 ) ) ;
#8 = VERTEX_POINT ( 'NONE', #909 ) ;
#9 = EDGE_LOOP ( 'NONE', ( #933, #174, #318, #486 ) ) ;
#10 = VERTEX_POINT ( 'NONE', #906 ) ;
#11 = FACE_OUTER_BOUND ( 'NONE', #141, .T. ) ;
#12 = CARTESIAN_POINT ( 'NONE',  ( 3.930192846353242500E-016, 7.914404808601061000E-013, -3.569999999999999000 ) ) ;
#13 = ADVANCED_FACE ( 'NONE', ( #406 ), #916, .T. ) ;
#14 = DIRECTION ( 'NONE',  ( 1.000000000000000000, 0.0000000000000000000, 4.818676322156651600E-016 ) ) ;
#15 = LINE ( 'NONE', #261, #408 ) ;
#16 = PLANE ( 'NONE',  #274 ) ;
#17 = ORIENTED_EDGE ( 'NONE', *, *, #799, .F. ) ;
#18 = DIRECTION ( 'NONE',  ( 1.000000000000000000, 0.0000000000000000000, 0.0000000000000000000 ) ) ;
#19 = EDGE_LOOP ( 'NONE', ( #254, #121, #726, #244 ) ) ;
#20 = ORIENTED_EDGE ( 'NONE', *, *, #905, .F. ) ;
#21 = CARTESIAN_POINT ( 'NONE',  ( 3.930192846353242500E-016, 7.914404808601061000E-013, -3.569999999999999000 ) ) ;
#22 = LINE ( 'NONE', #950, #696 ) ;
#23 = DIRECTION ( 'NONE',  ( -1.000000000000000000, 0.0000000000000000000, 0.0000000000000000000 ) ) ;
#24 = DIRECTION ( 'NONE',  ( 0.0000000000000000000, 0.0000000000000000000, -1.000000000000000000 ) ) ;
#25 = ORIENTED_EDGE ( 'NONE', *, *, #587, .T. ) ;
#26 = DIRECTION ( 'NONE',  ( 1.000000000000000000, 0.0000000000000000000, 4.818676322156651600E-016 ) ) ;
#27 = ORIENTED_EDGE ( 'NONE', *, *, #654, .F. ) ;
#28 = PRODUCT_DEFINITION_FORMATION_WITH_SPECIFIED_SOURCE ( 'ANY', '', #867, .NOT_KNOWN. ) ;
#29 = CARTESIAN_POINT ( 'NONE',  ( -0.2500000000000002200, -3.000000000000000400, 13.94999999999999900 ) ) ;
#30 = VERTEX_POINT ( 'NONE', #922 ) ;
#31 = DIRECTION ( 'NONE',  ( 3.915085558625467200E-016, 3.676510055175458400E-016, -1.000000000000000000 ) ) ;
#32 = ORIENTED_EDGE ( 'NONE', *, *, #584, .T. ) ;
#33 = PLANE ( 'NONE',  #77 ) ;
#34 = DIRECTION ( 'NONE',  ( 2.349051335175703100E-016, 2.205906033103893500E-016, -1.000000000000000000 ) ) ;
#35 = VERTEX_POINT ( 'NONE', #910 ) ;
#36 = ADVANCED_FACE ( 'NONE', ( #163 ), #896, .T. ) ;
#37 = ORIENTED_EDGE ( 'NONE', *, *, #311, .F. ) ;
#38 = DIRECTION ( 'NONE',  ( 1.000000000000000000, 0.0000000000000000000, 0.0000000000000000000 ) ) ;
#39 = AXIS2_PLACEMENT_3D ( 'NONE', #153, #815, #248 ) ;
#40 = DIRECTION ( 'NONE',  ( -3.915085558625467200E-016, -3.676510055175458400E-016, 1.000000000000000000 ) ) ;
#41 = ORIENTED_EDGE ( 'NONE', *, *, #381, .T. ) ;
#42 = ADVANCED_FACE ( 'NONE', ( #404 ), #866, .T. ) ;
#43 = CARTESIAN_POINT ( 'NONE',  ( 4.000000000000001800, 4.899999999998868800, 12.80115616722999900 ) ) ;
#44 = CARTESIAN_POINT ( 'NONE',  ( -1.624649895928236400E-015, -4.001127211073854300E-013, 0.0000000000000000000 ) ) ;
#45 = ORIENTED_EDGE ( 'NONE', *, *, #959, .F. ) ;
#46 = ORIENTED_EDGE ( 'NONE', *, *, #160, .T. ) ;
#47 = CARTESIAN_POINT ( 'NONE',  ( 4.599999999999999600, 4.899999999999434600, 13.14999999999999900 ) ) ;
#48 = DIRECTION ( 'NONE',  ( 1.000000000000000000, 0.0000000000000000000, 0.0000000000000000000 ) ) ;
#49 = VECTOR ( 'NONE', #253, 1000.000000000000000 ) ;
#50 = DIRECTION ( 'NONE',  ( 1.000000000000000000, 0.0000000000000000000, 0.0000000000000000000 ) ) ;
#51 = LINE ( 'NONE', #844, #53 ) ;
#52 = DIRECTION ( 'NONE',  ( 1.000000000000000000, 0.0000000000000000000, 0.0000000000000000000 ) ) ;
#53 = VECTOR ( 'NONE', #375, 1000.000000000000000 ) ;
#54 =( NAMED_UNIT ( * ) SI_UNIT ( $, .STERADIAN. ) SOLID_ANGLE_UNIT ( ) );
#55 = ORIENTED_EDGE ( 'NONE', *, *, #928, .F. ) ;
#56 = ADVANCED_FACE ( 'NONE', ( #990 ), #859, .T. ) ;
#57 = DIRECTION ( 'NONE',  ( -0.0000000000000000000, 0.0000000000000000000, -1.000000000000000000 ) ) ;
#58 = DIRECTION ( 'NONE',  ( 1.000000000000000000, 0.0000000000000000000, 0.0000000000000000000 ) ) ;
#59 = VERTEX_POINT ( 'NONE', #856 ) ;
#60 = CARTESIAN_POINT ( 'NONE',  ( 4.000000000000001800, 4.899999999998868800, 12.85000000000000000 ) ) ;
#61 = VERTEX_POINT ( 'NONE', #849 ) ;
#62 = VERTEX_POINT ( 'NONE', #846 ) ;
#63 = AXIS2_PLACEMENT_3D ( 'NONE', #44, #684, #122 ) ;
#64 = EDGE_CURVE ( 'NONE', #503, #918, #409, .T. ) ;
#65 = DIRECTION ( 'NONE',  ( 0.0000000000000000000, -0.0000000000000000000, 1.000000000000000000 ) ) ;
#66 = ORIENTED_EDGE ( 'NONE', *, *, #868, .T. ) ;
#67 = VERTEX_POINT ( 'NONE', #837 ) ;
#68 = CARTESIAN_POINT ( 'NONE',  ( 5.730000000000000400, 3.100000000000000500, 0.0000000000000000000 ) ) ;
#69 = CARTESIAN_POINT ( 'NONE',  ( 0.6488438327733999600, 2.950000000000000200, 1.800000000000000300 ) ) ;
#70 = AXIS2_PLACEMENT_3D ( 'NONE', #214, #196, #194 ) ;
#71 = AXIS2_PLACEMENT_3D ( 'NONE', #68, #605, #145 ) ;
#72 = CARTESIAN_POINT ( 'NONE',  ( -0.2499999999999997800, -1.999999999999999600, 0.0000000000000000000 ) ) ;
#73 = AXIS2_PLACEMENT_3D ( 'NONE', #142, #150, #133 ) ;
#74 = AXIS2_PLACEMENT_3D ( 'NONE', #126, #114, #108 ) ;
#75 = AXIS2_PLACEMENT_3D ( 'NONE', #138, #83, #80 ) ;
#76 = DIRECTION ( 'NONE',  ( 0.0000000000000000000, 0.0000000000000000000, 1.000000000000000000 ) ) ;
#77 = AXIS2_PLACEMENT_3D ( 'NONE', #69, #24, #23 ) ;
#78 = DIRECTION ( 'NONE',  ( 1.000000000000000000, -0.0000000000000000000, -0.0000000000000000000 ) ) ;
#79 = CARTESIAN_POINT ( 'NONE',  ( 5.500000000000000900, 3.000000000000000400, 6.999999999999999100 ) ) ;
#80 = DIRECTION ( 'NONE',  ( -1.000000000000000000, 0.0000000000000000000, 0.0000000000000000000 ) ) ;
#81 = EDGE_LOOP ( 'NONE', ( #860, #927, #180, #235, #398 ) ) ;
#82 = DIRECTION ( 'NONE',  ( 0.0000000000000000000, 0.0000000000000000000, 1.000000000000000000 ) ) ;
#83 = DIRECTION ( 'NONE',  ( 0.0000000000000000000, 0.0000000000000000000, -1.000000000000000000 ) ) ;
#84 = ORIENTED_EDGE ( 'NONE', *, *, #912, .T. ) ;
#85 = DIRECTION ( 'NONE',  ( -0.0000000000000000000, -0.0000000000000000000, -1.000000000000000000 ) ) ;
#86 = ORIENTED_EDGE ( 'NONE', *, *, #729, .T. ) ;
#87 = DIRECTION ( 'NONE',  ( -3.915085558625467200E-016, -3.676510055175458400E-016, 1.000000000000000000 ) ) ;
#88 = ORIENTED_EDGE ( 'NONE', *, *, #587, .F. ) ;
#89 = ORIENTED_EDGE ( 'NONE', *, *, #529, .F. ) ;
#90 = CARTESIAN_POINT ( 'NONE',  ( 3.656136857249467200E-016, 7.914147452897198400E-013, -3.500000000000000900 ) ) ;
#91 = ORIENTED_EDGE ( 'NONE', *, *, #158, .F. ) ;
#92 = AXIS2_PLACEMENT_3D ( 'NONE', #12, #7, #14 ) ;
#93 = AXIS2_PLACEMENT_3D ( 'NONE', #241, #420, #973 ) ;
#94 = PLANE ( 'NONE',  #75 ) ;
#95 = AXIS2_PLACEMENT_3D ( 'NONE', #6, #76, #736 ) ;
#96 = CARTESIAN_POINT ( 'NONE',  ( 2.999999999999902700, -3.993252126535673500E-013, -3.569999999999998100 ) ) ;
#97 = ORIENTED_EDGE ( 'NONE', *, *, #441, .T. ) ;
#98 = SURFACE_STYLE_FILL_AREA ( #850 ) ;
#99 = AXIS2_PLACEMENT_3D ( 'NONE', #811, #425, #975 ) ;
#100 = ADVANCED_FACE ( 'NONE', ( #989 ), #838, .T. ) ;
#101 = DIRECTION ( 'NONE',  ( 1.000000000000000000, 0.0000000000000000000, 0.0000000000000000000 ) ) ;
#102 = ADVANCED_BREP_SHAPE_REPRESENTATION ( '35RAPC2AHN3', ( #914, #209 ), #298 ) ;
#103 = DIRECTION ( 'NONE',  ( -2.349051335175703100E-016, -2.205906033103893500E-016, 1.000000000000000000 ) ) ;
#104 = EDGE_CURVE ( 'NONE', #149, #225, #418, .T. ) ;
#105 = CARTESIAN_POINT ( 'NONE',  ( 5.450000000000001100, -2.500000000000000000, 0.05000000000000000300 ) ) ;
#106 = ORIENTED_EDGE ( 'NONE', *, *, #575, .T. ) ;
#107 = ORIENTED_EDGE ( 'NONE', *, *, #971, .T. ) ;
#108 = DIRECTION ( 'NONE',  ( 1.000000000000000000, 0.0000000000000000000, 0.0000000000000000000 ) ) ;
#109 = ORIENTED_EDGE ( 'NONE', *, *, #897, .F. ) ;
#110 = ADVANCED_FACE ( 'NONE', ( #411 ), #826, .F. ) ;
#111 = ORIENTED_EDGE ( 'NONE', *, *, #825, .F. ) ;
#112 = FILL_AREA_STYLE_COLOUR ( '', #968 ) ;
#113 = CLOSED_SHELL ( 'NONE', ( #641, #708, #270, #36, #661, #630, #110, #42, #320, #730, #644, #131, #701, #129, #651, #637, #703, #721, #634, #657, #56, #744, #712, #100, #732, #723, #727, #124, #738, #735, #627, #705, #13, #136 ) ) ;
#114 = DIRECTION ( 'NONE',  ( 0.0000000000000000000, -1.000000000000000000, 0.0000000000000000000 ) ) ;
#115 = PLANE ( 'NONE',  #74 ) ;
#116 = CARTESIAN_POINT ( 'NONE',  ( -1.800000000000427500, 7.916609172839526300E-013, -3.569999999999999800 ) ) ;
#117 = ORIENTED_EDGE ( 'NONE', *, *, #965, .F. ) ;
#118 = DIRECTION ( 'NONE',  ( -0.0000000000000000000, -1.000000000000000000, -0.0000000000000000000 ) ) ;
#119 = CARTESIAN_POINT ( 'NONE',  ( -0.5999999999999999800, 3.950000000000000200, 1.800000000000000300 ) ) ;
#120 = VERTEX_POINT ( 'NONE', #800 ) ;
#121 = ORIENTED_EDGE ( 'NONE', *, *, #604, .T. ) ;
#122 = DIRECTION ( 'NONE',  ( 1.000000000000000000, 0.0000000000000000000, 2.349051335175703100E-016 ) ) ;
#123 = VECTOR ( 'NONE', #710, 1000.000000000000000 ) ;
#124 = ADVANCED_FACE ( 'NONE', ( #427 ), #807, .T. ) ;
#125 = CARTESIAN_POINT ( 'NONE',  ( 0.6000000000000000900, 4.900000000000064300, 1.800000000000000500 ) ) ;
#126 = CARTESIAN_POINT ( 'NONE',  ( -6.230000000000000400, -2.000000000000000000, -0.2800000000000000300 ) ) ;
#127 = EDGE_CURVE ( 'NONE', #414, #238, #428, .T. ) ;
#128 = APPLICATION_PROTOCOL_DEFINITION ( 'draft international standard', 'automotive_design', 1998, #208 ) ;
#129 = ADVANCED_FACE ( 'NONE', ( #426 ), #772, .T. ) ;
#130 = AXIS2_PLACEMENT_3D ( 'NONE', #538, #502, #496 ) ;
#131 = ADVANCED_FACE ( 'NONE', ( #431 ), #784, .T. ) ;
#132 = ORIENTED_EDGE ( 'NONE', *, *, #942, .F. ) ;
#133 = DIRECTION ( 'NONE',  ( 0.0000000000000000000, 0.0000000000000000000, -1.000000000000000000 ) ) ;
#134 = AXIS2_PLACEMENT_3D ( 'NONE', #403, #400, #397 ) ;
#135 = APPLICATION_CONTEXT ( 'automotive_design' ) ;
#136 = ADVANCED_FACE ( 'NONE', ( #433 ), #748, .F. ) ;
#137 = EDGE_CURVE ( 'NONE', #955, #336, #943, .T. ) ;
#138 = CARTESIAN_POINT ( 'NONE',  ( 4.698843832773000000, 2.951156167226999900, 4.799999999999999800 ) ) ;
#139 = PLANE ( 'NONE',  #73 ) ;
#140 = AXIS2_PLACEMENT_3D ( 'NONE', #816, #813, #810 ) ;
#141 = EDGE_LOOP ( 'NONE', ( #249, #278, #599, #97 ) ) ;
#142 = CARTESIAN_POINT ( 'NONE',  ( 4.650000000000000400, 2.950000000000000200, 6.048843832772999600 ) ) ;
#143 = VERTEX_POINT ( 'NONE', #722 ) ;
#144 = DIRECTION ( 'NONE',  ( 0.0000000000000000000, 1.000000000000000000, 0.0000000000000000000 ) ) ;
#145 = DIRECTION ( 'NONE',  ( -1.000000000000000000, 0.0000000000000000000, 0.0000000000000000000 ) ) ;
#146 = VERTEX_POINT ( 'NONE', #706 ) ;
#147 = ORIENTED_EDGE ( 'NONE', *, *, #868, .F. ) ;
#148 = CARTESIAN_POINT ( 'NONE',  ( 4.349999999999999600, 2.950000000000000200, 4.751156167227000200 ) ) ;
#149 = VERTEX_POINT ( 'NONE', #745 ) ;
#150 = DIRECTION ( 'NONE',  ( 1.000000000000000000, -0.0000000000000000000, 0.0000000000000000000 ) ) ;
#151 = PLANE ( 'NONE',  #71 ) ;
#152 = ORIENTED_EDGE ( 'NONE', *, *, #895, .T. ) ;
#153 = CARTESIAN_POINT ( 'NONE',  ( -6.000000000000000000, 3.100000000000000500, -0.2800000000000000300 ) ) ;
#154 = ORIENTED_EDGE ( 'NONE', *, *, #170, .T. ) ;
#155 = DIRECTION ( 'NONE',  ( -1.000000000000000000, 0.0000000000000000000, 1.445602896647505800E-015 ) ) ;
#156 = EDGE_CURVE ( 'NONE', #322, #262, #435, .T. ) ;
#157 = CARTESIAN_POINT ( 'NONE',  ( -7.860385692705104500E-016, -3.993252126535673500E-013, -3.569999999999999000 ) ) ;
#158 = EDGE_CURVE ( 'NONE', #731, #612, #438, .T. ) ;
#159 = PLANE ( 'NONE',  #294 ) ;
#160 = EDGE_CURVE ( 'NONE', #336, #731, #945, .T. ) ;
#161 = ORIENTED_EDGE ( 'NONE', *, *, #901, .F. ) ;
#162 = DIRECTION ( 'NONE',  ( 0.0000000000000000000, 0.0000000000000000000, 1.000000000000000000 ) ) ;
#163 = FACE_OUTER_BOUND ( 'NONE', #419, .T. ) ;
#164 = ORIENTED_EDGE ( 'NONE', *, *, #801, .T. ) ;
#165 = EDGE_CURVE ( 'NONE', #979, #612, #439, .T. ) ;
#166 = CARTESIAN_POINT ( 'NONE',  ( -1.004666259793967600E-015, 7.901279667704083900E-013, 8.673617379884035500E-016 ) ) ;
#167 = EDGE_LOOP ( 'NONE', ( #192, #817, #219, #154 ) ) ;
#168 = VERTEX_POINT ( 'NONE', #668 ) ;
#169 = DIRECTION ( 'NONE',  ( -1.000000000000000000, 0.0000000000000000000, 0.0000000000000000000 ) ) ;
#170 = EDGE_CURVE ( 'NONE', #918, #238, #437, .T. ) ;
#171 = DIRECTION ( 'NONE',  ( 1.000000000000000000, 0.0000000000000000000, 4.818676322156651600E-016 ) ) ;
#172 = ORIENTED_EDGE ( 'NONE', *, *, #539, .F. ) ;
#173 = DIRECTION ( 'NONE',  ( -2.349051335175703100E-016, -2.205906033103893500E-016, 1.000000000000000000 ) ) ;
#174 = ORIENTED_EDGE ( 'NONE', *, *, #771, .T. ) ;
#175 = EDGE_LOOP ( 'NONE', ( #480, #925, #554, #711 ) ) ;
#176 = DIRECTION ( 'NONE',  ( 1.000000000000000000, 0.0000000000000000000, 2.891205793294771500E-016 ) ) ;
#177 = CARTESIAN_POINT ( 'NONE',  ( 0.6000000000000000900, 3.000000000000000400, 1.800000000000000500 ) ) ;
#178 = PLANE ( 'NONE',  #339 ) ;
#179 = EDGE_CURVE ( 'NONE', #389, #146, #449, .T. ) ;
#180 = ORIENTED_EDGE ( 'NONE', *, *, #371, .F. ) ;
#181 = ORIENTED_EDGE ( 'NONE', *, *, #595, .T. ) ;
#182 = CARTESIAN_POINT ( 'NONE',  ( -8.024819286167403100E-016, -3.993406539957990600E-013, -3.499999999999999100 ) ) ;
#183 = EDGE_CURVE ( 'NONE', #503, #889, #450, .T. ) ;
#184 = ORIENTED_EDGE ( 'NONE', *, *, #228, .T. ) ;
#185 = CARTESIAN_POINT ( 'NONE',  ( -7.860385692705104500E-016, -3.993252126535673500E-013, -3.569999999999999000 ) ) ;
#186 = DIRECTION ( 'NONE',  ( 1.000000000000000000, 0.0000000000000000000, 2.891205793294771500E-016 ) ) ;
#187 = FILL_AREA_STYLE ('',( #112 ) ) ;
#188 = ORIENTED_EDGE ( 'NONE', *, *, #829, .F. ) ;
#189 = AXIS2_PLACEMENT_3D ( 'NONE', #802, #756, #755 ) ;
#190 = AXIS2_PLACEMENT_3D ( 'NONE', #788, #769, #765 ) ;
#191 = ORIENTED_EDGE ( 'NONE', *, *, #812, .F. ) ;
#192 = ORIENTED_EDGE ( 'NONE', *, *, #127, .F. ) ;
#193 = CARTESIAN_POINT ( 'NONE',  ( 4.000000000000000000, 3.000000000000000000, 13.14999999999999900 ) ) ;
#194 = DIRECTION ( 'NONE',  ( 0.0000000000000000000, 0.0000000000000000000, 1.000000000000000000 ) ) ;
#195 = VERTEX_POINT ( 'NONE', #618 ) ;
#196 = DIRECTION ( 'NONE',  ( -1.000000000000000000, 0.0000000000000000000, 0.0000000000000000000 ) ) ;
#197 = VERTEX_POINT ( 'NONE', #608 ) ;
#198 = DIRECTION ( 'NONE',  ( -3.915085558625467200E-016, -3.676510055175458400E-016, 1.000000000000000000 ) ) ;
#199 = DIRECTION ( 'NONE',  ( -2.349051335175703100E-016, -2.205906033103893500E-016, 1.000000000000000000 ) ) ;
#200 = ORIENTED_EDGE ( 'NONE', *, *, #902, .F. ) ;
#201 = CARTESIAN_POINT ( 'NONE',  ( 0.0000000000000000000, 3.000000000000000000, 2.200000000000000200 ) ) ;
#202 = ORIENTED_EDGE ( 'NONE', *, *, #959, .T. ) ;
#203 = ORIENTED_EDGE ( 'NONE', *, *, #359, .T. ) ;
#204 = DIRECTION ( 'NONE',  ( 0.0000000000000000000, 0.0000000000000000000, -1.000000000000000000 ) ) ;
#205 = ORIENTED_EDGE ( 'NONE', *, *, #944, .F. ) ;
#206 = DIRECTION ( 'NONE',  ( -1.000000000000000000, -0.0000000000000000000, -0.0000000000000000000 ) ) ;
#207 = ORIENTED_EDGE ( 'NONE', *, *, #359, .F. ) ;
#208 = APPLICATION_CONTEXT ( 'automotive_design' ) ;
#209 = AXIS2_PLACEMENT_3D ( 'NONE', #785, #589, #58 ) ;
#210 = ORIENTED_EDGE ( 'NONE', *, *, #877, .F. ) ;
#211 = ORIENTED_EDGE ( 'NONE', *, *, #598, .F. ) ;
#212 =( GEOMETRIC_REPRESENTATION_CONTEXT ( 3 ) GLOBAL_UNCERTAINTY_ASSIGNED_CONTEXT ( ( #972 ) ) GLOBAL_UNIT_ASSIGNED_CONTEXT ( ( #391, #964, #474 ) ) REPRESENTATION_CONTEXT ( 'NONE', 'WORKASPACE' ) );
#213 = ORIENTED_EDGE ( 'NONE', *, *, #539, .T. ) ;
#214 = CARTESIAN_POINT ( 'NONE',  ( -0.5999999999999999800, 2.951156167226999900, 1.751156167227000000 ) ) ;
#215 = ORIENTED_EDGE ( 'NONE', *, *, #874, .T. ) ;
#216 = PLANE ( 'NONE',  #70 ) ;
#217 = ORIENTED_EDGE ( 'NONE', *, *, #884, .F. ) ;
#218 = CARTESIAN_POINT ( 'NONE',  ( -5.950000000000000200, -1.951156167226999900, 14.22800000000000000 ) ) ;
#219 = ORIENTED_EDGE ( 'NONE', *, *, #64, .T. ) ;
#220 = ORIENTED_EDGE ( 'NONE', *, *, #179, .T. ) ;
#221 = ORIENTED_EDGE ( 'NONE', *, *, #127, .T. ) ;
#222 = ORIENTED_EDGE ( 'NONE', *, *, #960, .F. ) ;
#223 = ORIENTED_EDGE ( 'NONE', *, *, #891, .T. ) ;
#224 = CARTESIAN_POINT ( 'NONE',  ( 5.499999999999998200, -2.000000000000000000, 14.00000000000000000 ) ) ;
#225 = VERTEX_POINT ( 'NONE', #594 ) ;
#226 = CARTESIAN_POINT ( 'NONE',  ( -2.236067977500010100, -1.999999999999999100, -2.205906033103451000E-016 ) ) ;
#227 = EDGE_LOOP ( 'NONE', ( #243, #91, #923, #924 ) ) ;
#228 = EDGE_CURVE ( 'NONE', #660, #889, #461, .T. ) ;
#229 = PLANE ( 'NONE',  #350 ) ;
#230 = ORIENTED_EDGE ( 'NONE', *, *, #355, .F. ) ;
#231 = FACE_OUTER_BOUND ( 'NONE', #733, .T. ) ;
#232 = CARTESIAN_POINT ( 'NONE',  ( 4.350000000000001400, 4.899999999998871500, 5.400000000000003000 ) ) ;
#233 = ORIENTED_EDGE ( 'NONE', *, *, #104, .F. ) ;
#234 = FACE_OUTER_BOUND ( 'NONE', #423, .T. ) ;
#235 = ORIENTED_EDGE ( 'NONE', *, *, #677, .F. ) ;
#236 = EDGE_LOOP ( 'NONE', ( #796, #632, #221, #45 ) ) ;
#237 = CARTESIAN_POINT ( 'NONE',  ( 3.399999999999904900, 4.899999999999442600, 12.85000000000000000 ) ) ;
#238 = VERTEX_POINT ( 'NONE', #580 ) ;
#239 = ORIENTED_EDGE ( 'NONE', *, *, #355, .T. ) ;
#240 = ORIENTED_EDGE ( 'NONE', *, *, #137, .F. ) ;
#241 = CARTESIAN_POINT ( 'NONE',  ( -0.6488438327733999600, 2.950000000000000200, 2.200000000000000200 ) ) ;
#242 = ORIENTED_EDGE ( 'NONE', *, *, #762, .T. ) ;
#243 = ORIENTED_EDGE ( 'NONE', *, *, #165, .T. ) ;
#244 = ORIENTED_EDGE ( 'NONE', *, *, #158, .T. ) ;
#245 = CARTESIAN_POINT ( 'NONE',  ( 5.499999999999999100, 0.5000000000000000000, 0.0000000000000000000 ) ) ;
#246 = ORIENTED_EDGE ( 'NONE', *, *, #677, .T. ) ;
#247 = LINE ( 'NONE', #470, #2 ) ;
#248 = DIRECTION ( 'NONE',  ( 0.0000000000000000000, -1.000000000000000000, 0.0000000000000000000 ) ) ;
#249 = ORIENTED_EDGE ( 'NONE', *, *, #369, .F. ) ;
#250 = ORIENTED_EDGE ( 'NONE', *, *, #938, .T. ) ;
#251 = ORIENTED_EDGE ( 'NONE', *, *, #228, .F. ) ;
#252 = CARTESIAN_POINT ( 'NONE',  ( 4.301156167227000000, 2.951156167226999900, 6.000000000000000000 ) ) ;
#253 = DIRECTION ( 'NONE',  ( -0.0000000000000000000, 1.000000000000000000, -0.0000000000000000000 ) ) ;
#254 = ORIENTED_EDGE ( 'NONE', *, *, #965, .T. ) ;
#255 = AXIS2_PLACEMENT_3D ( 'NONE', #878, #936, #155 ) ;
#256 = ORIENTED_EDGE ( 'NONE', *, *, #165, .F. ) ;
#257 = DIRECTION ( 'NONE',  ( 1.000000000000000000, 0.0000000000000000000, 3.915085558625467200E-016 ) ) ;
#258 = LINE ( 'NONE', #565, #786 ) ;
#259 = CARTESIAN_POINT ( 'NONE',  ( 4.599999999999999600, 3.000000000000000000, 13.00000000000000200 ) ) ;
#260 = CIRCLE ( 'NONE', #383, 0.6000000000006564500 ) ;
#261 = CARTESIAN_POINT ( 'NONE',  ( 3.399999999999999900, 3.950000000000000200, 13.14999999999999900 ) ) ;
#262 = VERTEX_POINT ( 'NONE', #588 ) ;
#263 = MECHANICAL_DESIGN_GEOMETRIC_PRESENTATION_REPRESENTATION (  '', ( #308 ), #212 ) ;
#264 = VECTOR ( 'NONE', #858, 1000.000000000000000 ) ;
#265 = PRODUCT_RELATED_PRODUCT_CATEGORY ( 'part', '', ( #867 ) ) ;
#266 = ORIENTED_EDGE ( 'NONE', *, *, #944, .T. ) ;
#267 = PRODUCT_DEFINITION ( 'UNKNOWN', '', #28, #862 ) ;
#268 = DIRECTION ( 'NONE',  ( 0.0000000000000000000, 0.0000000000000000000, -1.000000000000000000 ) ) ;
#269 = DIRECTION ( 'NONE',  ( 1.000000000000000000, 0.0000000000000000000, 2.891205793294771500E-016 ) ) ;
#270 = ADVANCED_FACE ( 'NONE', ( #930, #455, #443, #234 ), #566, .T. ) ;
#271 = DIRECTION ( 'NONE',  ( 0.0000000000000000000, 0.0000000000000000000, 1.000000000000000000 ) ) ;
#272 = SURFACE_STYLE_USAGE ( .BOTH. , #836 ) ;
#273 = ORIENTED_EDGE ( 'NONE', *, *, #874, .F. ) ;
#274 = AXIS2_PLACEMENT_3D ( 'NONE', #429, #82, #747 ) ;
#275 = CARTESIAN_POINT ( 'NONE',  ( -6.000000000000000000, 0.4999999999999997800, 0.0000000000000000000 ) ) ;
#276 = CARTESIAN_POINT ( 'NONE',  ( -5.999999999999999100, 3.000000000000000400, 0.0000000000000000000 ) ) ;
#277 = DIRECTION ( 'NONE',  ( -0.0000000000000000000, -0.0000000000000000000, 1.000000000000000000 ) ) ;
#278 = ORIENTED_EDGE ( 'NONE', *, *, #156, .T. ) ;
#279 = ORIENTED_EDGE ( 'NONE', *, *, #179, .F. ) ;
#280 = AXIS2_PLACEMENT_3D ( 'NONE', #999, #577, #48 ) ;
#281 = DIRECTION ( 'NONE',  ( 0.0000000000000000000, -1.000000000000000000, 0.0000000000000000000 ) ) ;
#282 =( GEOMETRIC_REPRESENTATION_CONTEXT ( 3 ) GLOBAL_UNCERTAINTY_ASSIGNED_CONTEXT ( ( #376 ) ) GLOBAL_UNIT_ASSIGNED_CONTEXT ( ( #904, #367, #953 ) ) REPRESENTATION_CONTEXT ( 'NONE', 'WORKASPACE' ) );
#283 = ORIENTED_EDGE ( 'NONE', *, *, #104, .T. ) ;
#284 = DIRECTION ( 'NONE',  ( 1.000000000000000000, 0.0000000000000000000, 0.0000000000000000000 ) ) ;
#285 = STYLED_ITEM ( 'NONE', ( #743 ), #914 ) ;
#286 = DIRECTION ( 'NONE',  ( 0.0000000000000000000, 0.0000000000000000000, -1.000000000000000000 ) ) ;
#287 = AXIS2_PLACEMENT_3D ( 'NONE', #182, #833, #269 ) ;
#288 = AXIS2_PLACEMENT_3D ( 'NONE', #665, #103, #761 ) ;
#289 = CARTESIAN_POINT ( 'NONE',  ( 4.349999999999999600, 4.250000000000000000, 6.000000000000001800 ) ) ;
#290 = ORIENTED_EDGE ( 'NONE', *, *, #381, .F. ) ;
#291 = CARTESIAN_POINT ( 'NONE',  ( 3.399999999999809800, 4.900000000000016300, 13.00000000000000000 ) ) ;
#292 = AXIS2_PLACEMENT_3D ( 'NONE', #90, #754, #171 ) ;
#293 = VERTEX_POINT ( 'NONE', #556 ) ;
#294 = AXIS2_PLACEMENT_3D ( 'NONE', #252, #528, #18 ) ;
#295 = SURFACE_SIDE_STYLE ('',( #98 ) ) ;
#296 = AXIS2_PLACEMENT_3D ( 'NONE', #940, #436, #980 ) ;
#297 = EDGE_CURVE ( 'NONE', #168, #917, #464, .T. ) ;
#298 =( GEOMETRIC_REPRESENTATION_CONTEXT ( 3 ) GLOBAL_UNCERTAINTY_ASSIGNED_CONTEXT ( ( #559 ) ) GLOBAL_UNIT_ASSIGNED_CONTEXT ( ( #1000, #583, #54 ) ) REPRESENTATION_CONTEXT ( 'NONE', 'WORKASPACE' ) );
#299 = VERTEX_POINT ( 'NONE', #591 ) ;
#300 = ORIENTED_EDGE ( 'NONE', *, *, #592, .F. ) ;
#301 = DIRECTION ( 'NONE',  ( 1.000000000000000000, -0.0000000000000000000, -0.0000000000000000000 ) ) ;
#302 = CARTESIAN_POINT ( 'NONE',  ( 4.599999999999999600, 4.900000000000000400, 13.00000000000000200 ) ) ;
#303 = ORIENTED_EDGE ( 'NONE', *, *, #825, .T. ) ;
#304 = CARTESIAN_POINT ( 'NONE',  ( 4.650000000000000400, 3.000000000000000000, 5.399999999999999500 ) ) ;
#305 = ORIENTED_EDGE ( 'NONE', *, *, #604, .F. ) ;
#306 = VERTEX_POINT ( 'NONE', #600 ) ;
#307 = DIRECTION ( 'NONE',  ( 0.0000000000000000000, 1.000000000000000000, 0.0000000000000000000 ) ) ;
#308 = STYLED_ITEM ( 'NONE', ( #974 ), #102 ) ;
#309 = ORIENTED_EDGE ( 'NONE', *, *, #297, .F. ) ;
#310 = ORIENTED_EDGE ( 'NONE', *, *, #362, .T. ) ;
#311 = EDGE_CURVE ( 'NONE', #389, #168, #652, .T. ) ;
#312 = CARTESIAN_POINT ( 'NONE',  ( -0.2499999999999993600, 3.000000000000000000, 4.800000000000000700 ) ) ;
#313 = ORIENTED_EDGE ( 'NONE', *, *, #441, .F. ) ;
#314 = DIRECTION ( 'NONE',  ( 2.891205793291515300E-015, 0.0000000000000000000, 1.000000000000000000 ) ) ;
#315 = ORIENTED_EDGE ( 'NONE', *, *, #183, .F. ) ;
#316 = CARTESIAN_POINT ( 'NONE',  ( 3.399999999999999900, 4.250000000000000000, 12.85000000000000000 ) ) ;
#317 = EDGE_LOOP ( 'NONE', ( #202, #830, #946, #759 ) ) ;
#318 = ORIENTED_EDGE ( 'NONE', *, *, #801, .F. ) ;
#319 = ORIENTED_EDGE ( 'NONE', *, *, #137, .T. ) ;
#320 = ADVANCED_FACE ( 'NONE', ( #471 ), #530, .T. ) ;
#321 = DIRECTION ( 'NONE',  ( -1.000000000000000000, 0.0000000000000000000, 0.0000000000000000000 ) ) ;
#322 = VERTEX_POINT ( 'NONE', #524 ) ;
#323 = ORIENTED_EDGE ( 'NONE', *, *, #416, .T. ) ;
#324 = CARTESIAN_POINT ( 'NONE',  ( 2.236067977500008300, -1.999999999999999600, -6.542714723045469000E-016 ) ) ;
#325 = AXIS2_PLACEMENT_3D ( 'NONE', #43, #65, #50 ) ;
#326 = ORIENTED_EDGE ( 'NONE', *, *, #771, .F. ) ;
#327 = AXIS2_PLACEMENT_3D ( 'NONE', #60, #57, #52 ) ;
#328 = DIRECTION ( 'NONE',  ( -0.0000000000000000000, -0.0000000000000000000, 1.000000000000000000 ) ) ;
#329 = CARTESIAN_POINT ( 'NONE',  ( -1.919016428581890000E-015, 4.900000000000126500, 1.800000000000000900 ) ) ;
#330 = VERTEX_POINT ( 'NONE', #482 ) ;
#331 = ORIENTED_EDGE ( 'NONE', *, *, #901, .T. ) ;
#332 = ORIENTED_EDGE ( 'NONE', *, *, #760, .F. ) ;
#333 = ORIENTED_EDGE ( 'NONE', *, *, #399, .F. ) ;
#334 = CARTESIAN_POINT ( 'NONE',  ( 0.0000000000000000000, 3.000000000000000000, 1.800000000000000300 ) ) ;
#335 = AXIS2_PLACEMENT_3D ( 'NONE', #157, #199, #176 ) ;
#336 = VERTEX_POINT ( 'NONE', #484 ) ;
#337 = DIRECTION ( 'NONE',  ( 0.0000000000000000000, 0.0000000000000000000, 1.000000000000000000 ) ) ;
#338 = CARTESIAN_POINT ( 'NONE',  ( 0.6000000000000000900, 3.000000000000000400, 2.200000000000000600 ) ) ;
#339 = AXIS2_PLACEMENT_3D ( 'NONE', #148, #169, #162 ) ;
#340 = LINE ( 'NONE', #442, #491 ) ;
#341 = CARTESIAN_POINT ( 'NONE',  ( 4.500000000000000900, 3.000000000000000000, 6.000000000000000000 ) ) ;
#342 = VERTEX_POINT ( 'NONE', #488 ) ;
#343 = VERTEX_POINT ( 'NONE', #476 ) ;
#344 = AXIS2_PLACEMENT_3D ( 'NONE', #185, #720, #186 ) ;
#345 = VERTEX_POINT ( 'NONE', #477 ) ;
#346 = EDGE_LOOP ( 'NONE', ( #961, #20, #147, #223 ) ) ;
#347 = DIRECTION ( 'NONE',  ( -0.0000000000000000000, -1.000000000000000000, -0.0000000000000000000 ) ) ;
#348 = ORIENTED_EDGE ( 'NONE', *, *, #829, .T. ) ;
#349 = VERTEX_POINT ( 'NONE', #490 ) ;
#350 = AXIS2_PLACEMENT_3D ( 'NONE', #218, #206, #204 ) ;
#351 = EDGE_LOOP ( 'NONE', ( #309, #37, #935, #313 ) ) ;
#352 = DIRECTION ( 'NONE',  ( 3.915085558625467200E-016, 3.676510055175458400E-016, -1.000000000000000000 ) ) ;
#353 = EDGE_LOOP ( 'NONE', ( #714, #246, #919, #107, #117, #256 ) ) ;
#354 = EDGE_LOOP ( 'NONE', ( #191, #200 ) ) ;
#355 = EDGE_CURVE ( 'NONE', #143, #716, #483, .T. ) ;
#356 = EDGE_LOOP ( 'NONE', ( #222, #611 ) ) ;
#357 = CARTESIAN_POINT ( 'NONE',  ( -2.999999999999904500, -3.989578186138231700E-013, -3.569999999999999800 ) ) ;
#358 = VERTEX_POINT ( 'NONE', #468 ) ;
#359 = EDGE_CURVE ( 'NONE', #195, #421, #478, .T. ) ;
#360 = EDGE_CURVE ( 'NONE', #336, #979, #247, .T. ) ;
#361 = EDGE_LOOP ( 'NONE', ( #614, #865 ) ) ;
#362 = EDGE_CURVE ( 'NONE', #414, #62, #340, .T. ) ;
#363 = CARTESIAN_POINT ( 'NONE',  ( -0.2499999999999997800, 3.000000000000000000, 12.85000000000000000 ) ) ;
#364 = VERTEX_POINT ( 'NONE', #434 ) ;
#365 = DIRECTION ( 'NONE',  ( -1.000000000000000000, 0.0000000000000000000, 0.0000000000000000000 ) ) ;
#366 = EDGE_LOOP ( 'NONE', ( #205, #956, #746, #489 ) ) ;
#367 =( NAMED_UNIT ( * ) PLANE_ANGLE_UNIT ( ) SI_UNIT ( $, .RADIAN. ) );
#368 = EDGE_LOOP ( 'NONE', ( #184, #819, #27, #774 ) ) ;
#369 = EDGE_CURVE ( 'NONE', #322, #390, #493, .T. ) ;
#370 = EDGE_LOOP ( 'NONE', ( #495, #949, #251, #920 ) ) ;
#371 = EDGE_CURVE ( 'NONE', #374, #197, #487, .T. ) ;
#372 = VERTEX_POINT ( 'NONE', #415 ) ;
#373 = CARTESIAN_POINT ( 'NONE',  ( 1.050364591089211900E-015, 3.000000000000151900, -6.617718099311130900E-016 ) ) ;
#374 = VERTEX_POINT ( 'NONE', #226 ) ;
#375 = DIRECTION ( 'NONE',  ( -0.0000000000000000000, -0.0000000000000000000, 1.000000000000000000 ) ) ;
#376 = UNCERTAINTY_MEASURE_WITH_UNIT (LENGTH_MEASURE( 1.000000000000000100E-005 ), #904, 'distance_accuracy_value', 'NONE');
#377 = DIRECTION ( 'NONE',  ( -1.000000000000000000, 0.0000000000000000000, 0.0000000000000000000 ) ) ;
#378 = EDGE_LOOP ( 'NONE', ( #749, #977, #233, #25 ) ) ;
#379 = EDGE_LOOP ( 'NONE', ( #240, #181, #465, #948 ) ) ;
#380 = CARTESIAN_POINT ( 'NONE',  ( -0.5999999999999994200, 3.000000000000000400, 2.200000000000000600 ) ) ;
#381 = EDGE_CURVE ( 'NONE', #120, #888, #506, .T. ) ;
#382 = CARTESIAN_POINT ( 'NONE',  ( -6.000000000000000000, -1.999999999999999600, 6.999999999999999100 ) ) ;
#383 = AXIS2_PLACEMENT_3D ( 'NONE', #232, #863, #314 ) ;
#384 = CARTESIAN_POINT ( 'NONE',  ( -0.2499999999999997800, 3.000000000000000000, 0.0000000000000000000 ) ) ;
#385 = AXIS2_PLACEMENT_3D ( 'NONE', #460, #458, #456 ) ;
#386 = EDGE_LOOP ( 'NONE', ( #88, #781, #548, #900 ) ) ;
#387 = AXIS2_PLACEMENT_3D ( 'NONE', #573, #563, #561 ) ;
#388 = CARTESIAN_POINT ( 'NONE',  ( 4.349999999999999600, 4.899999999999443500, 4.799999999999904800 ) ) ;
#389 = VERTEX_POINT ( 'NONE', #395 ) ;
#390 = VERTEX_POINT ( 'NONE', #388 ) ;
#391 =( LENGTH_UNIT ( ) NAMED_UNIT ( * ) SI_UNIT ( .MILLI., .METRE. ) );
#392 = AXIS2_PLACEMENT_3D ( 'NONE', #887, #885, #881 ) ;
#393 = EDGE_LOOP ( 'NONE', ( #882, #875 ) ) ;
#394 = VECTOR ( 'NONE', #962, 1000.000000000000000 ) ;
#395 = CARTESIAN_POINT ( 'NONE',  ( 4.649999999999997700, 4.899999999999442600, 4.799999999999904800 ) ) ;
#396 = CARTESIAN_POINT ( 'NONE',  ( 4.500000000000000900, 4.900000000000016300, 4.799999999999809800 ) ) ;
#397 = DIRECTION ( 'NONE',  ( 1.000000000000000000, 0.0000000000000000000, -2.349051335175703100E-016 ) ) ;
#398 = ORIENTED_EDGE ( 'NONE', *, *, #595, .F. ) ;
#399 = EDGE_CURVE ( 'NONE', #389, #390, #499, .T. ) ;
#400 = DIRECTION ( 'NONE',  ( -2.349051335175703100E-016, -2.205906033103893500E-016, -1.000000000000000000 ) ) ;
#401 = EDGE_LOOP ( 'NONE', ( #220, #913, #602, #333 ) ) ;
#402 = AXIS2_PLACEMENT_3D ( 'NONE', #639, #635, #628 ) ;
#403 = CARTESIAN_POINT ( 'NONE',  ( 1.624649895928236000E-015, 4.001127211073854300E-013, -8.673617379884035500E-016 ) ) ;
#404 = FACE_OUTER_BOUND ( 'NONE', #19, .T. ) ;
#405 = CARTESIAN_POINT ( 'NONE',  ( 3.399999999999999900, 3.000000000000000000, 13.00000000000000200 ) ) ;
#406 = FACE_OUTER_BOUND ( 'NONE', #597, .T. ) ;
#407 = AXIS2_PLACEMENT_3D ( 'NONE', #517, #511, #508 ) ;
#408 = VECTOR ( 'NONE', #886, 1000.000000000000000 ) ;
#409 = LINE ( 'NONE', #851, #264 ) ;
#410 = DIRECTION ( 'NONE',  ( -1.157736717825812100E-015, 1.067127589916010100E-015, -1.000000000000000000 ) ) ;
#411 = FACE_OUTER_BOUND ( 'NONE', #986, .T. ) ;
#412 = EDGE_LOOP ( 'NONE', ( #527, #715, #848, #326 ) ) ;
#413 = VECTOR ( 'NONE', #818, 1000.000000000000000 ) ;
#414 = VERTEX_POINT ( 'NONE', #380 ) ;
#415 = CARTESIAN_POINT ( 'NONE',  ( 5.450000000000000200, -2.000000000000000000, 0.04999999999999989200 ) ) ;
#416 = EDGE_CURVE ( 'NONE', #421, #955, #500, .T. ) ;
#417 = EDGE_LOOP ( 'NONE', ( #290, #106, #211, #55 ) ) ;
#418 = LINE ( 'NONE', #820, #413 ) ;
#419 = EDGE_LOOP ( 'NONE', ( #283, #593, #213, #824 ) ) ;
#420 = DIRECTION ( 'NONE',  ( 0.0000000000000000000, 0.0000000000000000000, 1.000000000000000000 ) ) ;
#421 = VERTEX_POINT ( 'NONE', #373 ) ;
#422 = DIRECTION ( 'NONE',  ( 0.0000000000000000000, 0.0000000000000000000, 1.000000000000000000 ) ) ;
#423 = EDGE_LOOP ( 'NONE', ( #86, #203, #323, #319, #46 ) ) ;
#424 = VECTOR ( 'NONE', #775, 1000.000000000000000 ) ;
#425 = DIRECTION ( 'NONE',  ( 0.0000000000000000000, 0.0000000000000000000, 1.000000000000000000 ) ) ;
#426 = FACE_OUTER_BOUND ( 'NONE', #473, .T. ) ;
#427 = FACE_OUTER_BOUND ( 'NONE', #984, .T. ) ;
#428 = LINE ( 'NONE', #777, #424 ) ;
#429 = CARTESIAN_POINT ( 'NONE',  ( 5.677999999999999900, -1.951156167226999900, 13.94999999999999900 ) ) ;
#430 = DIRECTION ( 'NONE',  ( -0.0000000000000000000, -0.0000000000000000000, -1.000000000000000000 ) ) ;
#431 = FACE_OUTER_BOUND ( 'NONE', #378, .T. ) ;
#432 = VECTOR ( 'NONE', #692, 1000.000000000000000 ) ;
#433 = FACE_OUTER_BOUND ( 'NONE', #393, .T. ) ;
#434 = CARTESIAN_POINT ( 'NONE',  ( -5.950000000000000200, -2.000000000000000000, 0.05000000000000026000 ) ) ;
#435 = LINE ( 'NONE', #699, #432 ) ;
#436 = DIRECTION ( 'NONE',  ( -2.349051335175703100E-016, -2.205906033103893500E-016, -1.000000000000000000 ) ) ;
#437 = CIRCLE ( 'NONE', #402, 0.5999999999999309200 ) ;
#438 = LINE ( 'NONE', #734, #440 ) ;
#439 = LINE ( 'NONE', #686, #873 ) ;
#440 = VECTOR ( 'NONE', #688, 1000.000000000000000 ) ;
#441 = EDGE_CURVE ( 'NONE', #917, #390, #260, .T. ) ;
#442 = CARTESIAN_POINT ( 'NONE',  ( -0.5999999999999989800, 3.000000000000000000, 6.999999999999999100 ) ) ;
#443 = FACE_BOUND ( 'NONE', #835, .T. ) ;
#444 = VECTOR ( 'NONE', #679, 1000.000000000000000 ) ;
#445 = VECTOR ( 'NONE', #951, 1000.000000000000000 ) ;
#446 = CARTESIAN_POINT ( 'NONE',  ( -5.950000000000000200, -3.000000000000000000, 6.999999999999998200 ) ) ;
#447 = DIRECTION ( 'NONE',  ( 0.0000000000000000000, -1.000000000000000000, 0.0000000000000000000 ) ) ;
#448 = AXIS2_PLACEMENT_3D ( 'NONE', #982, #987, #929 ) ;
#449 = LINE ( 'NONE', #655, #453 ) ;
#450 = LINE ( 'NONE', #621, #926 ) ;
#451 = CARTESIAN_POINT ( 'NONE',  ( -5.950000000000000200, -2.000000000000000000, 6.999999999999999100 ) ) ;
#452 = CARTESIAN_POINT ( 'NONE',  ( 4.349999999999999600, 3.950000000000000200, 4.799999999999999800 ) ) ;
#453 = VECTOR ( 'NONE', #645, 1000.000000000000000 ) ;
#454 = DIRECTION ( 'NONE',  ( -1.000000000000000000, 0.0000000000000000000, 0.0000000000000000000 ) ) ;
#455 = FACE_BOUND ( 'NONE', #412, .T. ) ;
#456 = DIRECTION ( 'NONE',  ( 1.000000000000000000, 0.0000000000000000000, 2.349051335175703100E-016 ) ) ;
#457 = EDGE_LOOP ( 'NONE', ( #164, #32, #279, #648 ) ) ;
#458 = DIRECTION ( 'NONE',  ( 2.349051335175703100E-016, 2.205906033103893500E-016, -1.000000000000000000 ) ) ;
#459 = EDGE_CURVE ( 'NONE', #59, #660, #516, .T. ) ;
#460 = CARTESIAN_POINT ( 'NONE',  ( -1.624649895928236000E-015, -4.001127211073854300E-013, -8.673617379884035500E-016 ) ) ;
#461 = LINE ( 'NONE', #613, #462 ) ;
#462 = VECTOR ( 'NONE', #585, 1000.000000000000000 ) ;
#463 = CARTESIAN_POINT ( 'NONE',  ( -0.2499999999999997800, 3.000000000000000000, 5.421010862427522200E-017 ) ) ;
#464 = LINE ( 'NONE', #549, #472 ) ;
#465 = ORIENTED_EDGE ( 'NONE', *, *, #981, .T. ) ;
#466 = CARTESIAN_POINT ( 'NONE',  ( -0.2499999999999997800, -2.000000000000000400, 0.0000000000000000000 ) ) ;
#467 = VECTOR ( 'NONE', #831, 1000.000000000000000 ) ;
#468 = CARTESIAN_POINT ( 'NONE',  ( -1.800000000000429300, 7.909917924539107400E-013, 1.626463374356521100E-016 ) ) ;
#469 = CIRCLE ( 'NONE', #287, 2.999999999999903600 ) ;
#470 = CARTESIAN_POINT ( 'NONE',  ( -6.000000000000000000, 0.5000000000000000000, 14.00000000000000000 ) ) ;
#471 = FACE_OUTER_BOUND ( 'NONE', #227, .T. ) ;
#472 = VECTOR ( 'NONE', #544, 1000.000000000000000 ) ;
#473 = EDGE_LOOP ( 'NONE', ( #172, #41, #303, #300 ) ) ;
#474 =( NAMED_UNIT ( * ) SI_UNIT ( $, .STERADIAN. ) SOLID_ANGLE_UNIT ( ) );
#475 = EDGE_LOOP ( 'NONE', ( #857, #332, #348, #215 ) ) ;
#476 = CARTESIAN_POINT ( 'NONE',  ( -1.800000000000427500, 7.909917924539107400E-013, -3.500000000000001800 ) ) ;
#477 = CARTESIAN_POINT ( 'NONE',  ( -5.950000000000000200, -3.000000000000000000, 13.94999999999999800 ) ) ;
#478 = LINE ( 'NONE', #463, #998 ) ;
#479 = CIRCLE ( 'NONE', #512, 2.999999999999903600 ) ;
#480 = ORIENTED_EDGE ( 'NONE', *, *, #760, .T. ) ;
#481 = EDGE_LOOP ( 'NONE', ( #111, #596, #642, #798 ) ) ;
#482 = CARTESIAN_POINT ( 'NONE',  ( 3.399999999999904900, 4.899999999999442600, 13.15000000000000000 ) ) ;
#483 = CIRCLE ( 'NONE', #385, 2.999999999999903600 ) ;
#484 = CARTESIAN_POINT ( 'NONE',  ( -5.999999999999999100, 3.000000000000000400, 14.00000000000000000 ) ) ;
#485 = LINE ( 'NONE', #451, #737 ) ;
#486 = ORIENTED_EDGE ( 'NONE', *, *, #297, .T. ) ;
#487 = CIRCLE ( 'NONE', #134, 2.999999999999903600 ) ;
#488 = CARTESIAN_POINT ( 'NONE',  ( 5.450000000000000200, -2.000000000000000000, 13.94999999999999800 ) ) ;
#489 = ORIENTED_EDGE ( 'NONE', *, *, #783, .F. ) ;
#490 = CARTESIAN_POINT ( 'NONE',  ( 1.800000000000426800, 7.901279667704083900E-013, 1.572077138541155200E-015 ) ) ;
#491 = VECTOR ( 'NONE', #430, 1000.000000000000000 ) ;
#492 = VECTOR ( 'NONE', #377, 1000.000000000000000 ) ;
#493 = LINE ( 'NONE', #452, #498 ) ;
#494 = DIRECTION ( 'NONE',  ( 1.000000000000000000, -0.0000000000000000000, -0.0000000000000000000 ) ) ;
#495 = ORIENTED_EDGE ( 'NONE', *, *, #64, .F. ) ;
#496 = DIRECTION ( 'NONE',  ( -1.000000000000000000, 0.0000000000000000000, 0.0000000000000000000 ) ) ;
#497 = AXIS2_PLACEMENT_3D ( 'NONE', #3, #1, #4 ) ;
#498 = VECTOR ( 'NONE', #144, 1000.000000000000000 ) ;
#499 = LINE ( 'NONE', #396, #492 ) ;
#500 = LINE ( 'NONE', #384, #515 ) ;
#501 = AXIS2_PLACEMENT_3D ( 'NONE', #21, #40, #26 ) ;
#502 = DIRECTION ( 'NONE',  ( 0.0000000000000000000, 0.0000000000000000000, 1.000000000000000000 ) ) ;
#503 = VERTEX_POINT ( 'NONE', #338 ) ;
#504 = PRESENTATION_LAYER_ASSIGNMENT (  '', '', ( #308 ) ) ;
#505 = AXIS2_PLACEMENT_3D ( 'NONE', #329, #410, #969 ) ;
#506 = LINE ( 'NONE', #405, #507 ) ;
#507 = VECTOR ( 'NONE', #422, 1000.000000000000000 ) ;
#508 = DIRECTION ( 'NONE',  ( 2.891205793291515300E-015, 0.0000000000000000000, 1.000000000000000000 ) ) ;
#509 = PRESENTATION_LAYER_ASSIGNMENT (  '', '', ( #285 ) ) ;
#510 = FACE_OUTER_BOUND ( 'NONE', #356, .T. ) ;
#511 = DIRECTION ( 'NONE',  ( 1.000000000000000000, -2.134255179837227400E-015, -2.315473435648530300E-015 ) ) ;
#512 = AXIS2_PLACEMENT_3D ( 'NONE', #555, #34, #674 ) ;
#513 = AXIS2_PLACEMENT_3D ( 'NONE', #552, #31, #670 ) ;
#514 = CARTESIAN_POINT ( 'NONE',  ( 5.499999999999999100, 3.000000000000000400, 14.00000000000000000 ) ) ;
#515 = VECTOR ( 'NONE', #365, 1000.000000000000000 ) ;
#516 = CIRCLE ( 'NONE', #505, 0.5999999999999309200 ) ;
#517 = CARTESIAN_POINT ( 'NONE',  ( 4.649999999999999500, 4.899999999998870600, 5.400000000000002100 ) ) ;
#518 = AXIS2_PLACEMENT_3D ( 'NONE', #892, #352, #947 ) ;
#519 = VECTOR ( 'NONE', #307, 1000.000000000000000 ) ;
#520 = MECHANICAL_DESIGN_GEOMETRIC_PRESENTATION_REPRESENTATION (  '', ( #285 ), #282 ) ;
#521 = LINE ( 'NONE', #334, #899 ) ;
#522 = VECTOR ( 'NONE', #328, 1000.000000000000000 ) ;
#523 = AXIS2_PLACEMENT_3D ( 'NONE', #166, #822, #257 ) ;
#524 = CARTESIAN_POINT ( 'NONE',  ( 4.349999999999999600, 3.000000000000000400, 4.800000000000000700 ) ) ;
#525 = LINE ( 'NONE', #312, #532 ) ;
#526 = VECTOR ( 'NONE', #494, 1000.000000000000000 ) ;
#527 = ORIENTED_EDGE ( 'NONE', *, *, #156, .F. ) ;
#528 = DIRECTION ( 'NONE',  ( 0.0000000000000000000, 0.0000000000000000000, 1.000000000000000000 ) ) ;
#529 = EDGE_CURVE ( 'NONE', #889, #62, #521, .T. ) ;
#530 = PLANE ( 'NONE',  #130 ) ;
#531 = LINE ( 'NONE', #302, #545 ) ;
#532 = VECTOR ( 'NONE', #301, 1000.000000000000000 ) ;
#533 = LINE ( 'NONE', #291, #770 ) ;
#534 = CARTESIAN_POINT ( 'NONE',  ( 4.650000000000001200, 4.250000000000000000, 6.000000000000000900 ) ) ;
#535 = VECTOR ( 'NONE', #286, 1000.000000000000000 ) ;
#536 = LINE ( 'NONE', #275, #550 ) ;
#537 = CARTESIAN_POINT ( 'NONE',  ( 5.450000000000000200, -3.000000000000000000, 13.94999999999999800 ) ) ;
#538 = CARTESIAN_POINT ( 'NONE',  ( 5.730000000000000400, 3.100000000000000500, 14.00000000000000000 ) ) ;
#539 = EDGE_CURVE ( 'NONE', #120, #619, #603, .T. ) ;
#540 = CARTESIAN_POINT ( 'NONE',  ( -0.2499999999999993600, -2.000000000000000000, 0.05000000000000002400 ) ) ;
#541 = VECTOR ( 'NONE', #284, 1000.000000000000000 ) ;
#542 = DIRECTION ( 'NONE',  ( -1.000000000000000000, -0.0000000000000000000, -0.0000000000000000000 ) ) ;
#543 = AXIS2_PLACEMENT_3D ( 'NONE', #842, #834, #832 ) ;
#544 = DIRECTION ( 'NONE',  ( -1.000000000000000000, -0.0000000000000000000, -0.0000000000000000000 ) ) ;
#545 = VECTOR ( 'NONE', #277, 1000.000000000000000 ) ;
#546 = AXIS2_PLACEMENT_3D ( 'NONE', #876, #893, #861 ) ;
#547 = LINE ( 'NONE', #259, #557 ) ;
#548 = ORIENTED_EDGE ( 'NONE', *, *, #592, .T. ) ;
#549 = CARTESIAN_POINT ( 'NONE',  ( 4.500000000000000900, 4.900000000000000400, 6.000000000000000000 ) ) ;
#550 = VECTOR ( 'NONE', #281, 1000.000000000000000 ) ;
#551 = LINE ( 'NONE', #245, #49 ) ;
#552 = CARTESIAN_POINT ( 'NONE',  ( 3.656136857249467200E-016, 7.914147452897198400E-013, -3.500000000000000900 ) ) ;
#553 = AXIS2_PLACEMENT_3D ( 'NONE', #753, #758, #739 ) ;
#554 = ORIENTED_EDGE ( 'NONE', *, *, #905, .T. ) ;
#555 = CARTESIAN_POINT ( 'NONE',  ( -1.624649895928236000E-015, -4.001127211073854300E-013, -8.673617379884035500E-016 ) ) ;
#556 = CARTESIAN_POINT ( 'NONE',  ( 4.650000000000000400, 3.000000000000000400, 6.000000000000000900 ) ) ;
#557 = VECTOR ( 'NONE', #268, 1000.000000000000000 ) ;
#558 = CARTESIAN_POINT ( 'NONE',  ( 4.350000000000001400, 4.899999999999436400, 6.000000000000001800 ) ) ;
#559 = UNCERTAINTY_MEASURE_WITH_UNIT (LENGTH_MEASURE( 1.000000000000000100E-005 ), #1000, 'distance_accuracy_value', 'NONE');
#560 = PRODUCT_DEFINITION_SHAPE ( 'NONE', 'NONE',  #267 ) ;
#561 = DIRECTION ( 'NONE',  ( -1.000000000000000000, 0.0000000000000000000, 0.0000000000000000000 ) ) ;
#562 = FACE_OUTER_BOUND ( 'NONE', #236, .T. ) ;
#563 = DIRECTION ( 'NONE',  ( 0.0000000000000000000, 1.000000000000000000, -0.0000000000000000000 ) ) ;
#564 = FACE_OUTER_BOUND ( 'NONE', #81, .T. ) ;
#565 = CARTESIAN_POINT ( 'NONE',  ( -0.2500000000000002200, -3.000000000000000400, 0.05000000000000000300 ) ) ;
#566 = PLANE ( 'NONE',  #387 ) ;
#567 = FACE_OUTER_BOUND ( 'NONE', #995, .T. ) ;
#568 = FACE_OUTER_BOUND ( 'NONE', #702, .T. ) ;
#569 = VECTOR ( 'NONE', #118, 1000.000000000000000 ) ;
#570 = CARTESIAN_POINT ( 'NONE',  ( 5.500000000000000000, -2.000000000000000000, 6.999999999999999100 ) ) ;
#571 = CYLINDRICAL_SURFACE ( 'NONE', #344, 2.999999999999903600 ) ;
#572 = FACE_OUTER_BOUND ( 'NONE', #457, .T. ) ;
#573 = CARTESIAN_POINT ( 'NONE',  ( 5.730000000000000400, 3.000000000000000000, -0.2800000000000000300 ) ) ;
#574 = LINE ( 'NONE', #72, #719 ) ;
#575 = EDGE_CURVE ( 'NONE', #120, #225, #650, .T. ) ;
#576 = LINE ( 'NONE', #119, #569 ) ;
#577 = DIRECTION ( 'NONE',  ( -0.0000000000000000000, 0.0000000000000000000, -1.000000000000000000 ) ) ;
#578 = FACE_OUTER_BOUND ( 'NONE', #386, .T. ) ;
#579 = EDGE_CURVE ( 'NONE', #322, #146, #525, .T. ) ;
#580 = CARTESIAN_POINT ( 'NONE',  ( -0.5999999999999916500, 4.900000000000071400, 2.200000000000000200 ) ) ;
#581 = FACE_BOUND ( 'NONE', #175, .T. ) ;
#582 = CIRCLE ( 'NONE', #327, 0.6000000000006573400 ) ;
#583 =( NAMED_UNIT ( * ) PLANE_ANGLE_UNIT ( ) SI_UNIT ( $, .RADIAN. ) );
#584 = EDGE_CURVE ( 'NONE', #293, #146, #647, .T. ) ;
#585 = DIRECTION ( 'NONE',  ( -0.0000000000000000000, -1.000000000000000000, -0.0000000000000000000 ) ) ;
#586 = ORIENTED_EDGE ( 'NONE', *, *, #812, .T. ) ;
#587 = EDGE_CURVE ( 'NONE', #149, #694, #531, .T. ) ;
#588 = CARTESIAN_POINT ( 'NONE',  ( 4.349999999999999600, 3.000000000000000400, 6.000000000000000900 ) ) ;
#589 = DIRECTION ( 'NONE',  ( 0.0000000000000000000, 0.0000000000000000000, 1.000000000000000000 ) ) ;
#590 = FACE_OUTER_BOUND ( 'NONE', #366, .T. ) ;
#591 = CARTESIAN_POINT ( 'NONE',  ( 4.599999999999999600, 3.000000000000000400, 13.15000000000000000 ) ) ;
#592 = EDGE_CURVE ( 'NONE', #619, #330, #533, .T. ) ;
#593 = ORIENTED_EDGE ( 'NONE', *, *, #575, .F. ) ;
#594 = CARTESIAN_POINT ( 'NONE',  ( 4.599999999999998800, 3.000000000000000400, 12.85000000000000000 ) ) ;
#595 = EDGE_CURVE ( 'NONE', #955, #306, #536, .T. ) ;
#596 = ORIENTED_EDGE ( 'NONE', *, *, #928, .T. ) ;
#597 = EDGE_LOOP ( 'NONE', ( #839, #132, #273, #161 ) ) ;
#598 = EDGE_CURVE ( 'NONE', #299, #225, #547, .T. ) ;
#599 = ORIENTED_EDGE ( 'NONE', *, *, #994, .T. ) ;
#600 = CARTESIAN_POINT ( 'NONE',  ( -6.000000000000000900, -1.999999999999999600, 0.0000000000000000000 ) ) ;
#601 = FACE_OUTER_BOUND ( 'NONE', #368, .T. ) ;
#602 = ORIENTED_EDGE ( 'NONE', *, *, #369, .T. ) ;
#603 = LINE ( 'NONE', #316, #519 ) ;
#604 = EDGE_CURVE ( 'NONE', #10, #195, #551, .T. ) ;
#605 = DIRECTION ( 'NONE',  ( 0.0000000000000000000, 0.0000000000000000000, 1.000000000000000000 ) ) ;
#606 = FACE_OUTER_BOUND ( 'NONE', #808, .T. ) ;
#607 = FACE_OUTER_BOUND ( 'NONE', #361, .T. ) ;
#608 = CARTESIAN_POINT ( 'NONE',  ( -2.999999999999901900, -3.993592935118477400E-013, -1.626463374355389500E-016 ) ) ;
#609 = VECTOR ( 'NONE', #764, 1000.000000000000000 ) ;
#610 = VECTOR ( 'NONE', #996, 1000.000000000000000 ) ;
#611 = ORIENTED_EDGE ( 'NONE', *, *, #915, .F. ) ;
#612 = VERTEX_POINT ( 'NONE', #224 ) ;
#613 = CARTESIAN_POINT ( 'NONE',  ( 0.6000000000000000900, 4.250000000000000000, 1.800000000000000500 ) ) ;
#614 = ORIENTED_EDGE ( 'NONE', *, *, #903, .F. ) ;
#615 = LINE ( 'NONE', #79, #643 ) ;
#616 = LINE ( 'NONE', #96, #685 ) ;
#617 = ORIENTED_EDGE ( 'NONE', *, *, #960, .T. ) ;
#618 = CARTESIAN_POINT ( 'NONE',  ( 5.499999999999999100, 3.000000000000000400, 1.807003620809174000E-017 ) ) ;
#619 = VERTEX_POINT ( 'NONE', #237 ) ;
#620 = FACE_OUTER_BOUND ( 'NONE', #379, .T. ) ;
#621 = CARTESIAN_POINT ( 'NONE',  ( 0.5999999999999999800, 3.000000000000000000, 2.000000000000000000 ) ) ;
#622 = VECTOR ( 'NONE', #85, 1000.000000000000000 ) ;
#623 = CYLINDRICAL_SURFACE ( 'NONE', #92, 1.800000000000427900 ) ;
#624 = AXIS2_PLACEMENT_3D ( 'NONE', #845, #792, #790 ) ;
#625 = PLANE ( 'NONE',  #99 ) ;
#626 = FACE_OUTER_BOUND ( 'NONE', #9, .T. ) ;
#627 = ADVANCED_FACE ( 'NONE', ( #931 ), #229, .T. ) ;
#628 = DIRECTION ( 'NONE',  ( -1.000000000000000000, 0.0000000000000000000, 1.445602896647505800E-015 ) ) ;
#629 = AXIS2_PLACEMENT_3D ( 'NONE', #993, #879, #852 ) ;
#630 = ADVANCED_FACE ( 'NONE', ( #562 ), #216, .T. ) ;
#631 = PLANE ( 'NONE',  #39 ) ;
#632 = ORIENTED_EDGE ( 'NONE', *, *, #362, .F. ) ;
#633 = FACE_OUTER_BOUND ( 'NONE', #167, .T. ) ;
#634 = ADVANCED_FACE ( 'NONE', ( #567 ), #571, .T. ) ;
#635 = DIRECTION ( 'NONE',  ( 1.157736717825812100E-015, -1.067127589916010100E-015, 1.000000000000000000 ) ) ;
#636 = CYLINDRICAL_SURFACE ( 'NONE', #497, 0.6000000000006564500 ) ;
#637 = ADVANCED_FACE ( 'NONE', ( #11 ), #178, .T. ) ;
#638 = CARTESIAN_POINT ( 'NONE',  ( 5.450000000000000200, -1.951156167226999900, -0.2280000000000000100 ) ) ;
#639 = CARTESIAN_POINT ( 'NONE',  ( -1.455921741451566900E-015, 4.900000000000125600, 2.199999999999999300 ) ) ;
#640 = LINE ( 'NONE', #341, #666 ) ;
#641 = ADVANCED_FACE ( 'NONE', ( #568 ), #773, .T. ) ;
#642 = ORIENTED_EDGE ( 'NONE', *, *, #939, .F. ) ;
#643 = VECTOR ( 'NONE', #742, 1000.000000000000000 ) ;
#644 = ADVANCED_FACE ( 'NONE', ( #564 ), #151, .F. ) ;
#645 = DIRECTION ( 'NONE',  ( -0.0000000000000000000, -1.000000000000000000, -0.0000000000000000000 ) ) ;
#646 = LINE ( 'NONE', #937, #622 ) ;
#647 = LINE ( 'NONE', #304, #535 ) ;
#648 = ORIENTED_EDGE ( 'NONE', *, *, #311, .T. ) ;
#649 = FACE_OUTER_BOUND ( 'NONE', #351, .T. ) ;
#650 = LINE ( 'NONE', #363, #526 ) ;
#651 = ADVANCED_FACE ( 'NONE', ( #572 ), #139, .T. ) ;
#652 = CIRCLE ( 'NONE', #407, 0.6000000000006564500 ) ;
#653 = FACE_OUTER_BOUND ( 'NONE', #475, .T. ) ;
#654 = EDGE_CURVE ( 'NONE', #59, #62, #576, .T. ) ;
#655 = CARTESIAN_POINT ( 'NONE',  ( 4.650000000000000400, 3.950000000000000200, 4.799999999999999800 ) ) ;
#656 = FACE_OUTER_BOUND ( 'NONE', #317, .T. ) ;
#657 = ADVANCED_FACE ( 'NONE', ( #581, #932 ), #115, .T. ) ;
#658 = CYLINDRICAL_SURFACE ( 'NONE', #255, 0.5999999999999309200 ) ;
#659 = DIRECTION ( 'NONE',  ( 0.0000000000000000000, -1.000000000000000000, 0.0000000000000000000 ) ) ;
#660 = VERTEX_POINT ( 'NONE', #125 ) ;
#661 = ADVANCED_FACE ( 'NONE', ( #718 ), #94, .T. ) ;
#662 = CYLINDRICAL_SURFACE ( 'NONE', #501, 1.800000000000427900 ) ;
#663 = CARTESIAN_POINT ( 'NONE',  ( 3.399999999999999900, 3.000000000000000400, 13.15000000000000000 ) ) ;
#664 = CIRCLE ( 'NONE', #518, 1.800000000000427900 ) ;
#665 = CARTESIAN_POINT ( 'NONE',  ( -8.024819286167403100E-016, -3.993406539957990600E-013, -3.499999999999999100 ) ) ;
#666 = VECTOR ( 'NONE', #978, 1000.000000000000000 ) ;
#667 = LINE ( 'NONE', #883, #671 ) ;
#668 = CARTESIAN_POINT ( 'NONE',  ( 4.650000000000001200, 4.899999999999436400, 6.000000000000000000 ) ) ;
#669 = LINE ( 'NONE', #534, #675 ) ;
#670 = DIRECTION ( 'NONE',  ( 1.000000000000000000, 0.0000000000000000000, 4.818676322156651600E-016 ) ) ;
#671 = VECTOR ( 'NONE', #87, 1000.000000000000000 ) ;
#672 = DIRECTION ( 'NONE',  ( 0.0000000000000000000, 0.0000000000000000000, -1.000000000000000000 ) ) ;
#673 = CIRCLE ( 'NONE', #292, 1.800000000000427900 ) ;
#674 = DIRECTION ( 'NONE',  ( 1.000000000000000000, -8.881784197001216800E-016, 2.349051335175701200E-016 ) ) ;
#675 = VECTOR ( 'NONE', #347, 1000.000000000000000 ) ;
#676 = EDGE_CURVE ( 'NONE', #619, #149, #582, .T. ) ;
#677 = EDGE_CURVE ( 'NONE', #306, #374, #574, .T. ) ;
#678 = LINE ( 'NONE', #985, #682 ) ;
#679 = DIRECTION ( 'NONE',  ( 1.000000000000000000, -0.0000000000000000000, -0.0000000000000000000 ) ) ;
#680 = DIRECTION ( 'NONE',  ( -1.000000000000000000, -0.0000000000000000000, -0.0000000000000000000 ) ) ;
#681 = LINE ( 'NONE', #757, #689 ) ;
#682 = VECTOR ( 'NONE', #659, 1000.000000000000000 ) ;
#683 = ORIENTED_EDGE ( 'NONE', *, *, #966, .F. ) ;
#684 = DIRECTION ( 'NONE',  ( 2.349051335175703100E-016, 2.205906033103893500E-016, -1.000000000000000000 ) ) ;
#685 = VECTOR ( 'NONE', #173, 1000.000000000000000 ) ;
#686 = CARTESIAN_POINT ( 'NONE',  ( -0.2499999999999997800, -1.999999999999999600, 14.00000000000000000 ) ) ;
#687 = CARTESIAN_POINT ( 'NONE',  ( -5.999999999999999100, -1.999999999999999600, 14.00000000000000000 ) ) ;
#688 = DIRECTION ( 'NONE',  ( -0.0000000000000000000, -1.000000000000000000, -0.0000000000000000000 ) ) ;
#689 = VECTOR ( 'NONE', #828, 1000.000000000000000 ) ;
#690 = ORIENTED_EDGE ( 'NONE', *, *, #908, .T. ) ;
#691 = LINE ( 'NONE', #540, #700 ) ;
#692 = DIRECTION ( 'NONE',  ( 0.0000000000000000000, 0.0000000000000000000, 1.000000000000000000 ) ) ;
#693 = LINE ( 'NONE', #894, #707 ) ;
#694 = VERTEX_POINT ( 'NONE', #47 ) ;
#695 = DIRECTION ( 'NONE',  ( 1.000000000000000000, -0.0000000000000000000, -0.0000000000000000000 ) ) ;
#696 = VECTOR ( 'NONE', #988, 1000.000000000000000 ) ;
#697 = PRODUCT_CONTEXT ( 'NONE', #208, 'mechanical' ) ;
#698 = CIRCLE ( 'NONE', #513, 1.800000000000427900 ) ;
#699 = CARTESIAN_POINT ( 'NONE',  ( 4.349999999999998800, 3.000000000000000000, 5.399999999999999500 ) ) ;
#700 = VECTOR ( 'NONE', #542, 1000.000000000000000 ) ;
#701 = ADVANCED_FACE ( 'NONE', ( #578 ), #750, .T. ) ;
#702 = EDGE_LOOP ( 'NONE', ( #954, #855, #242, #690, #870 ) ) ;
#703 = ADVANCED_FACE ( 'NONE', ( #601 ), #33, .T. ) ;
#704 = LINE ( 'NONE', #29, #467 ) ;
#705 = ADVANCED_FACE ( 'NONE', ( #590 ), #662, .F. ) ;
#706 = CARTESIAN_POINT ( 'NONE',  ( 4.650000000000000400, 3.000000000000000400, 4.799999999999999800 ) ) ;
#707 = VECTOR ( 'NONE', #101, 1000.000000000000000 ) ;
#708 = ADVANCED_FACE ( 'NONE', ( #606 ), #623, .F. ) ;
#709 = CIRCLE ( 'NONE', #288, 2.999999999999903600 ) ;
#710 = DIRECTION ( 'NONE',  ( 0.0000000000000000000, 0.0000000000000000000, 1.000000000000000000 ) ) ;
#711 = ORIENTED_EDGE ( 'NONE', *, *, #884, .T. ) ;
#712 = ADVANCED_FACE ( 'NONE', ( #649 ), #636, .T. ) ;
#713 = CARTESIAN_POINT ( 'NONE',  ( -6.000000000000000000, 3.000000000000000000, 6.999999999999999100 ) ) ;
#714 = ORIENTED_EDGE ( 'NONE', *, *, #981, .F. ) ;
#715 = ORIENTED_EDGE ( 'NONE', *, *, #579, .T. ) ;
#716 = VERTEX_POINT ( 'NONE', #324 ) ;
#717 = LINE ( 'NONE', #446, #445 ) ;
#718 = FACE_OUTER_BOUND ( 'NONE', #401, .T. ) ;
#719 = VECTOR ( 'NONE', #78, 1000.000000000000000 ) ;
#720 = DIRECTION ( 'NONE',  ( -2.349051335175703100E-016, -2.205906033103893500E-016, 1.000000000000000000 ) ) ;
#721 = ADVANCED_FACE ( 'NONE', ( #633 ), #809, .T. ) ;
#722 = CARTESIAN_POINT ( 'NONE',  ( 2.999999999999901900, -3.997266875515922700E-013, -1.626463374357150900E-016 ) ) ;
#723 = ADVANCED_FACE ( 'NONE', ( #510 ), #869, .T. ) ;
#724 = VECTOR ( 'NONE', #898, 1000.000000000000000 ) ;
#725 = EDGE_CURVE ( 'NONE', #660, #918, #853, .T. ) ;
#726 = ORIENTED_EDGE ( 'NONE', *, *, #729, .F. ) ;
#727 = ADVANCED_FACE ( 'NONE', ( #854, #607 ), #625, .F. ) ;
#728 = CARTESIAN_POINT ( 'NONE',  ( -0.2499999999999997800, 3.000000000000000000, 14.00000000000000000 ) ) ;
#729 = EDGE_CURVE ( 'NONE', #731, #195, #615, .T. ) ;
#730 = ADVANCED_FACE ( 'NONE', ( #620 ), #631, .T. ) ;
#731 = VERTEX_POINT ( 'NONE', #514 ) ;
#732 = ADVANCED_FACE ( 'NONE', ( #656 ), #658, .T. ) ;
#733 = EDGE_LOOP ( 'NONE', ( #188, #217, #250, #331 ) ) ;
#734 = CARTESIAN_POINT ( 'NONE',  ( 5.500000000000000000, 0.5000000000000000000, 14.00000000000000000 ) ) ;
#735 = ADVANCED_FACE ( 'NONE', ( #231 ), #16, .T. ) ;
#736 = DIRECTION ( 'NONE',  ( -1.000000000000000000, 0.0000000000000000000, 0.0000000000000000000 ) ) ;
#737 = VECTOR ( 'NONE', #992, 1000.000000000000000 ) ;
#738 = ADVANCED_FACE ( 'NONE', ( #653 ), #976, .T. ) ;
#739 = DIRECTION ( 'NONE',  ( 1.000000000000000000, 0.0000000000000000000, 0.0000000000000000000 ) ) ;
#740 = LINE ( 'NONE', #105, #609 ) ;
#741 = SURFACE_STYLE_FILL_AREA ( #187 ) ;
#742 = DIRECTION ( 'NONE',  ( -0.0000000000000000000, -0.0000000000000000000, -1.000000000000000000 ) ) ;
#743 = PRESENTATION_STYLE_ASSIGNMENT (( #272 ) ) ;
#744 = ADVANCED_FACE ( 'NONE', ( #626 ), #159, .T. ) ;
#745 = CARTESIAN_POINT ( 'NONE',  ( 4.599999999999999600, 4.899999999999434600, 12.85000000000000000 ) ) ;
#746 = ORIENTED_EDGE ( 'NONE', *, *, #799, .T. ) ;
#747 = DIRECTION ( 'NONE',  ( -1.000000000000000000, 0.0000000000000000000, 0.0000000000000000000 ) ) ;
#748 = PLANE ( 'NONE',  #553 ) ;
#749 = ORIENTED_EDGE ( 'NONE', *, *, #939, .T. ) ;
#750 = CYLINDRICAL_SURFACE ( 'NONE', #325, 0.6000000000006573400 ) ;
#751 = CIRCLE ( 'NONE', #523, 1.800000000000427900 ) ;
#752 = CIRCLE ( 'NONE', #296, 2.999999999999903600 ) ;
#753 = CARTESIAN_POINT ( 'NONE',  ( -1.872000000000000100, -1.874967156442999900, 0.0000000000000000000 ) ) ;
#754 = DIRECTION ( 'NONE',  ( 3.915085558625467200E-016, 3.676510055175458400E-016, -1.000000000000000000 ) ) ;
#755 = DIRECTION ( 'NONE',  ( 0.0000000000000000000, 0.0000000000000000000, -1.000000000000000000 ) ) ;
#756 = DIRECTION ( 'NONE',  ( 1.000000000000000000, -0.0000000000000000000, 0.0000000000000000000 ) ) ;
#757 = CARTESIAN_POINT ( 'NONE',  ( -5.950000000000000200, -2.500000000000000000, 0.04999999999999999600 ) ) ;
#758 = DIRECTION ( 'NONE',  ( 0.0000000000000000000, 0.0000000000000000000, 1.000000000000000000 ) ) ;
#759 = ORIENTED_EDGE ( 'NONE', *, *, #459, .F. ) ;
#760 = EDGE_CURVE ( 'NONE', #342, #372, #646, .T. ) ;
#761 = DIRECTION ( 'NONE',  ( 1.000000000000000000, 0.0000000000000000000, 2.891205793294771500E-016 ) ) ;
#762 = EDGE_CURVE ( 'NONE', #197, #421, #752, .T. ) ;
#763 = LINE ( 'NONE', #952, #766 ) ;
#764 = DIRECTION ( 'NONE',  ( 0.0000000000000000000, -1.000000000000000000, 0.0000000000000000000 ) ) ;
#765 = DIRECTION ( 'NONE',  ( 0.0000000000000000000, 0.0000000000000000000, 1.000000000000000000 ) ) ;
#766 = VECTOR ( 'NONE', #38, 1000.000000000000000 ) ;
#767 = CARTESIAN_POINT ( 'NONE',  ( 0.6000000000000000900, 4.900000000000063400, 2.199999999999999300 ) ) ;
#768 = LINE ( 'NONE', #193, #610 ) ;
#769 = DIRECTION ( 'NONE',  ( -1.000000000000000000, 0.0000000000000000000, 0.0000000000000000000 ) ) ;
#770 = VECTOR ( 'NONE', #271, 1000.000000000000000 ) ;
#771 = EDGE_CURVE ( 'NONE', #262, #293, #640, .T. ) ;
#772 = PLANE ( 'NONE',  #190 ) ;
#773 = CYLINDRICAL_SURFACE ( 'NONE', #335, 2.999999999999903600 ) ;
#774 = ORIENTED_EDGE ( 'NONE', *, *, #459, .T. ) ;
#775 = DIRECTION ( 'NONE',  ( 0.0000000000000000000, 1.000000000000000000, 0.0000000000000000000 ) ) ;
#776 = LINE ( 'NONE', #957, #780 ) ;
#777 = CARTESIAN_POINT ( 'NONE',  ( -0.5999999999999999800, 3.950000000000000200, 2.200000000000000600 ) ) ;
#778 = LINE ( 'NONE', #570, #795 ) ;
#779 = DIRECTION ( 'NONE',  ( -0.0000000000000000000, -0.0000000000000000000, -1.000000000000000000 ) ) ;
#780 = VECTOR ( 'NONE', #997, 1000.000000000000000 ) ;
#781 = ORIENTED_EDGE ( 'NONE', *, *, #676, .F. ) ;
#782 = LINE ( 'NONE', #116, #789 ) ;
#783 = EDGE_CURVE ( 'NONE', #358, #349, #751, .T. ) ;
#784 = PLANE ( 'NONE',  #189 ) ;
#785 = CARTESIAN_POINT ( 'NONE',  ( 0.0000000000000000000, 0.0000000000000000000, 0.0000000000000000000 ) ) ;
#786 = VECTOR ( 'NONE', #680, 1000.000000000000000 ) ;
#787 = CIRCLE ( 'NONE', #63, 2.999999999999903600 ) ;
#788 = CARTESIAN_POINT ( 'NONE',  ( 3.399999999999999900, 2.951156167226999900, 12.80115616722999900 ) ) ;
#789 = VECTOR ( 'NONE', #198, 1000.000000000000000 ) ;
#790 = DIRECTION ( 'NONE',  ( 1.000000000000000000, 0.0000000000000000000, 0.0000000000000000000 ) ) ;
#791 = LINE ( 'NONE', #201, #541 ) ;
#792 = DIRECTION ( 'NONE',  ( 0.0000000000000000000, 0.0000000000000000000, -1.000000000000000000 ) ) ;
#793 = APPLICATION_PROTOCOL_DEFINITION ( 'draft international standard', 'automotive_design', 1998, #135 ) ;
#794 = LINE ( 'NONE', #466, #803 ) ;
#795 = VECTOR ( 'NONE', #779, 1000.000000000000000 ) ;
#796 = ORIENTED_EDGE ( 'NONE', *, *, #654, .T. ) ;
#797 = CIRCLE ( 'NONE', #280, 0.6000000000006573400 ) ;
#798 = ORIENTED_EDGE ( 'NONE', *, *, #967, .F. ) ;
#799 = EDGE_CURVE ( 'NONE', #61, #349, #667, .T. ) ;
#800 = CARTESIAN_POINT ( 'NONE',  ( 3.399999999999999900, 3.000000000000000400, 12.85000000000000000 ) ) ;
#801 = EDGE_CURVE ( 'NONE', #168, #293, #669, .T. ) ;
#802 = CARTESIAN_POINT ( 'NONE',  ( 4.599999999999999600, 2.951156167226999900, 13.19884383277000100 ) ) ;
#803 = VECTOR ( 'NONE', #958, 1000.000000000000000 ) ;
#804 = LINE ( 'NONE', #289, #394 ) ;
#805 = LINE ( 'NONE', #382, #806 ) ;
#806 = VECTOR ( 'NONE', #847, 1000.000000000000000 ) ;
#807 = PLANE ( 'NONE',  #624 ) ;
#808 = EDGE_LOOP ( 'NONE', ( #586, #266, #970, #17 ) ) ;
#809 = PLANE ( 'NONE',  #93 ) ;
#810 = DIRECTION ( 'NONE',  ( -1.000000000000000000, 0.0000000000000000000, 0.0000000000000000000 ) ) ;
#811 = CARTESIAN_POINT ( 'NONE',  ( 3.120000000000000600, 3.120000000000000600, -3.500000000000000000 ) ) ;
#812 = EDGE_CURVE ( 'NONE', #61, #343, #673, .T. ) ;
#813 = DIRECTION ( 'NONE',  ( 0.0000000000000000000, 0.0000000000000000000, 1.000000000000000000 ) ) ;
#814 = COLOUR_RGB ( '',0.7529411764705882200, 0.7529411764705882200, 0.7529411764705882200 ) ;
#815 = DIRECTION ( 'NONE',  ( -1.000000000000000000, 0.0000000000000000000, 0.0000000000000000000 ) ) ;
#816 = CARTESIAN_POINT ( 'NONE',  ( 5.730000000000000400, 3.100000000000000500, 0.0000000000000000000 ) ) ;
#817 = ORIENTED_EDGE ( 'NONE', *, *, #966, .T. ) ;
#818 = DIRECTION ( 'NONE',  ( -0.0000000000000000000, -1.000000000000000000, -0.0000000000000000000 ) ) ;
#819 = ORIENTED_EDGE ( 'NONE', *, *, #529, .T. ) ;
#820 = CARTESIAN_POINT ( 'NONE',  ( 4.599999999999999600, 4.250000000000000000, 12.85000000000000000 ) ) ;
#821 = EDGE_CURVE ( 'NONE', #349, #358, #664, .T. ) ;
#822 = DIRECTION ( 'NONE',  ( 3.915085558625467200E-016, 3.676510055175458400E-016, -1.000000000000000000 ) ) ;
#823 = CARTESIAN_POINT ( 'NONE',  ( -5.950000000000000200, -2.000000000000000000, 13.95000000000000100 ) ) ;
#824 = ORIENTED_EDGE ( 'NONE', *, *, #676, .T. ) ;
#825 = EDGE_CURVE ( 'NONE', #888, #330, #15, .T. ) ;
#826 = PLANE ( 'NONE',  #140 ) ;
#827 = VERTEX_POINT ( 'NONE', #537 ) ;
#828 = DIRECTION ( 'NONE',  ( -0.0000000000000000000, 1.000000000000000000, -0.0000000000000000000 ) ) ;
#829 = EDGE_CURVE ( 'NONE', #342, #827, #678, .T. ) ;
#830 = ORIENTED_EDGE ( 'NONE', *, *, #170, .F. ) ;
#831 = DIRECTION ( 'NONE',  ( 1.000000000000000000, -0.0000000000000000000, -0.0000000000000000000 ) ) ;
#832 = DIRECTION ( 'NONE',  ( 0.0000000000000000000, 0.0000000000000000000, -1.000000000000000000 ) ) ;
#833 = DIRECTION ( 'NONE',  ( -2.349051335175703100E-016, -2.205906033103893500E-016, 1.000000000000000000 ) ) ;
#834 = DIRECTION ( 'NONE',  ( 1.000000000000000000, -0.0000000000000000000, 0.0000000000000000000 ) ) ;
#835 = EDGE_LOOP ( 'NONE', ( #683, #310, #89, #315 ) ) ;
#836 = SURFACE_SIDE_STYLE ('',( #741 ) ) ;
#837 = CARTESIAN_POINT ( 'NONE',  ( 2.999999999999902700, -3.993406539957990600E-013, -3.499999999999998200 ) ) ;
#838 = PLANE ( 'NONE',  #543 ) ;
#839 = ORIENTED_EDGE ( 'NONE', *, *, #891, .F. ) ;
#840 = DIRECTION ( 'NONE',  ( 0.0000000000000000000, -1.000000000000000000, 0.0000000000000000000 ) ) ;
#841 = ORIENTED_EDGE ( 'NONE', *, *, #908, .F. ) ;
#842 = CARTESIAN_POINT ( 'NONE',  ( 0.5999999999999999800, 2.951156167226999900, 2.248843832772999800 ) ) ;
#843 = SHAPE_DEFINITION_REPRESENTATION ( #560, #102 ) ;
#844 = CARTESIAN_POINT ( 'NONE',  ( -0.5999999999999832100, 4.900000000000016300, 2.000000000000000900 ) ) ;
#845 = CARTESIAN_POINT ( 'NONE',  ( -6.177999999999999900, -1.951156167226999900, 0.05000000000000000300 ) ) ;
#846 = CARTESIAN_POINT ( 'NONE',  ( -0.5999999999999996400, 3.000000000000000400, 1.800000000000000300 ) ) ;
#847 = DIRECTION ( 'NONE',  ( 0.0000000000000000000, 0.0000000000000000000, 1.000000000000000000 ) ) ;
#848 = ORIENTED_EDGE ( 'NONE', *, *, #584, .F. ) ;
#849 = CARTESIAN_POINT ( 'NONE',  ( 1.800000000000428400, 7.914147452897198400E-013, -3.500000000000000000 ) ) ;
#850 = FILL_AREA_STYLE ('',( #963 ) ) ;
#851 = CARTESIAN_POINT ( 'NONE',  ( 0.6000000000000000900, 4.250000000000000000, 2.200000000000000200 ) ) ;
#852 = DIRECTION ( 'NONE',  ( 1.000000000000000000, 0.0000000000000000000, 0.0000000000000000000 ) ) ;
#853 = LINE ( 'NONE', #872, #522 ) ;
#854 = FACE_BOUND ( 'NONE', #354, .T. ) ;
#855 = ORIENTED_EDGE ( 'NONE', *, *, #897, .T. ) ;
#856 = CARTESIAN_POINT ( 'NONE',  ( -0.5999999999999916500, 4.900000000000071400, 1.800000000000001600 ) ) ;
#857 = ORIENTED_EDGE ( 'NONE', *, *, #912, .F. ) ;
#858 = DIRECTION ( 'NONE',  ( 0.0000000000000000000, 1.000000000000000000, 0.0000000000000000000 ) ) ;
#859 = PLANE ( 'NONE',  #629 ) ;
#860 = ORIENTED_EDGE ( 'NONE', *, *, #416, .F. ) ;
#861 = DIRECTION ( 'NONE',  ( 0.0000000000000000000, 1.000000000000000000, 0.0000000000000000000 ) ) ;
#862 = PRODUCT_DEFINITION_CONTEXT ( 'detailed design', #135, 'design' ) ;
#863 = DIRECTION ( 'NONE',  ( -1.000000000000000000, 2.134255179837227400E-015, 2.315473435648530300E-015 ) ) ;
#864 = VERTEX_POINT ( 'NONE', #823 ) ;
#865 = ORIENTED_EDGE ( 'NONE', *, *, #895, .F. ) ;
#866 = PLANE ( 'NONE',  #546 ) ;
#867 = PRODUCT ( '35RAPC2AHN3', '35RAPC2AHN3', '', ( #697 ) ) ;
#868 = EDGE_CURVE ( 'NONE', #8, #364, #681, .T. ) ;
#869 = PLANE ( 'NONE',  #95 ) ;
#870 = ORIENTED_EDGE ( 'NONE', *, *, #871, .F. ) ;
#871 = EDGE_CURVE ( 'NONE', #67, #143, #616, .T. ) ;
#872 = CARTESIAN_POINT ( 'NONE',  ( 0.5999999999999999800, 4.900000000000000400, 2.000000000000000000 ) ) ;
#873 = VECTOR ( 'NONE', #695, 1000.000000000000000 ) ;
#874 = EDGE_CURVE ( 'NONE', #827, #35, #22, .T. ) ;
#875 = ORIENTED_EDGE ( 'NONE', *, *, #783, .T. ) ;
#876 = CARTESIAN_POINT ( 'NONE',  ( 5.500000000000000000, -2.100000000000000100, -0.2800000000000000300 ) ) ;
#877 = EDGE_CURVE ( 'NONE', #372, #364, #691, .T. ) ;
#878 = CARTESIAN_POINT ( 'NONE',  ( -1.399373442810921100E-015, 4.900000000000125600, 2.248843832772999400 ) ) ;
#879 = DIRECTION ( 'NONE',  ( 0.0000000000000000000, 0.0000000000000000000, 1.000000000000000000 ) ) ;
#880 = DIRECTION ( 'NONE',  ( 1.000000000000000000, 0.0000000000000000000, -0.0000000000000000000 ) ) ;
#881 = DIRECTION ( 'NONE',  ( -1.000000000000000000, 0.0000000000000000000, 0.0000000000000000000 ) ) ;
#882 = ORIENTED_EDGE ( 'NONE', *, *, #821, .T. ) ;
#883 = CARTESIAN_POINT ( 'NONE',  ( 1.800000000000428400, 7.914404808601061000E-013, -3.569999999999998100 ) ) ;
#884 = EDGE_CURVE ( 'NONE', #864, #342, #693, .T. ) ;
#885 = DIRECTION ( 'NONE',  ( 0.0000000000000000000, 0.0000000000000000000, -1.000000000000000000 ) ) ;
#886 = DIRECTION ( 'NONE',  ( 0.0000000000000000000, 1.000000000000000000, 0.0000000000000000000 ) ) ;
#887 = CARTESIAN_POINT ( 'NONE',  ( 4.648843832773000200, 2.950000000000000200, 12.85000000000000000 ) ) ;
#888 = VERTEX_POINT ( 'NONE', #663 ) ;
#889 = VERTEX_POINT ( 'NONE', #177 ) ;
#890 = ORIENTED_EDGE ( 'NONE', *, *, #371, .T. ) ;
#891 = EDGE_CURVE ( 'NONE', #8, #345, #717, .T. ) ;
#892 = CARTESIAN_POINT ( 'NONE',  ( -1.004666259793967600E-015, 7.901279667704083900E-013, 8.673617379884035500E-016 ) ) ;
#893 = DIRECTION ( 'NONE',  ( 1.000000000000000000, 0.0000000000000000000, 0.0000000000000000000 ) ) ;
#894 = CARTESIAN_POINT ( 'NONE',  ( -0.2499999999999997800, -2.000000000000000000, 13.94999999999999900 ) ) ;
#895 = EDGE_CURVE ( 'NONE', #30, #67, #709, .T. ) ;
#896 = PLANE ( 'NONE',  #392 ) ;
#897 = EDGE_CURVE ( 'NONE', #30, #197, #911, .T. ) ;
#898 = DIRECTION ( 'NONE',  ( -2.349051335175703100E-016, -2.205906033103893500E-016, 1.000000000000000000 ) ) ;
#899 = VECTOR ( 'NONE', #321, 1000.000000000000000 ) ;
#900 = ORIENTED_EDGE ( 'NONE', *, *, #967, .T. ) ;
#901 = EDGE_CURVE ( 'NONE', #345, #827, #704, .T. ) ;
#902 = EDGE_CURVE ( 'NONE', #343, #61, #698, .T. ) ;
#903 = EDGE_CURVE ( 'NONE', #67, #30, #469, .T. ) ;
#904 =( LENGTH_UNIT ( ) NAMED_UNIT ( * ) SI_UNIT ( .MILLI., .METRE. ) );
#905 = EDGE_CURVE ( 'NONE', #364, #864, #485, .T. ) ;
#906 = CARTESIAN_POINT ( 'NONE',  ( 5.499999999999999100, -2.000000000000000000, 0.0000000000000000000 ) ) ;
#907 = CARTESIAN_POINT ( 'NONE',  ( -5.950000000000001100, -2.500000000000000000, 13.94999999999999900 ) ) ;
#908 = EDGE_CURVE ( 'NONE', #421, #143, #479, .T. ) ;
#909 = CARTESIAN_POINT ( 'NONE',  ( -5.949999999999999300, -3.000000000000000000, 0.05000000000000127300 ) ) ;
#910 = CARTESIAN_POINT ( 'NONE',  ( 5.450000000000000200, -3.000000000000000000, 0.05000000000000048800 ) ) ;
#911 = LINE ( 'NONE', #357, #724 ) ;
#912 = EDGE_CURVE ( 'NONE', #372, #35, #740, .T. ) ;
#913 = ORIENTED_EDGE ( 'NONE', *, *, #579, .F. ) ;
#914 = MANIFOLD_SOLID_BREP ( 'Imported1', #113 ) ;
#915 = EDGE_CURVE ( 'NONE', #374, #716, #763, .T. ) ;
#916 = PLANE ( 'NONE',  #448 ) ;
#917 = VERTEX_POINT ( 'NONE', #558 ) ;
#918 = VERTEX_POINT ( 'NONE', #767 ) ;
#919 = ORIENTED_EDGE ( 'NONE', *, *, #915, .T. ) ;
#920 = ORIENTED_EDGE ( 'NONE', *, *, #725, .T. ) ;
#921 = SURFACE_STYLE_USAGE ( .BOTH. , #295 ) ;
#922 = CARTESIAN_POINT ( 'NONE',  ( -2.999999999999904500, -3.993592935118480900E-013, -3.500000000000000000 ) ) ;
#923 = ORIENTED_EDGE ( 'NONE', *, *, #160, .F. ) ;
#924 = ORIENTED_EDGE ( 'NONE', *, *, #360, .T. ) ;
#925 = ORIENTED_EDGE ( 'NONE', *, *, #877, .T. ) ;
#926 = VECTOR ( 'NONE', #672, 1000.000000000000000 ) ;
#927 = ORIENTED_EDGE ( 'NONE', *, *, #762, .F. ) ;
#928 = EDGE_CURVE ( 'NONE', #888, #299, #768, .T. ) ;
#929 = DIRECTION ( 'NONE',  ( -1.000000000000000000, 0.0000000000000000000, 0.0000000000000000000 ) ) ;
#930 = FACE_BOUND ( 'NONE', #417, .T. ) ;
#931 = FACE_OUTER_BOUND ( 'NONE', #346, .T. ) ;
#932 = FACE_OUTER_BOUND ( 'NONE', #353, .T. ) ;
#933 = ORIENTED_EDGE ( 'NONE', *, *, #994, .F. ) ;
#934 = ORIENTED_EDGE ( 'NONE', *, *, #871, .T. ) ;
#935 = ORIENTED_EDGE ( 'NONE', *, *, #399, .T. ) ;
#936 = DIRECTION ( 'NONE',  ( -1.157736717825812100E-015, 1.067127589916010100E-015, -1.000000000000000000 ) ) ;
#937 = CARTESIAN_POINT ( 'NONE',  ( 5.450000000000000200, -2.000000000000000000, 6.999999999999999100 ) ) ;
#938 = EDGE_CURVE ( 'NONE', #864, #345, #941, .T. ) ;
#939 = EDGE_CURVE ( 'NONE', #694, #299, #776, .T. ) ;
#940 = CARTESIAN_POINT ( 'NONE',  ( 1.624649895928236000E-015, 4.001127211073854300E-013, -8.673617379884035500E-016 ) ) ;
#941 = LINE ( 'NONE', #907, #983 ) ;
#942 = EDGE_CURVE ( 'NONE', #35, #8, #258, .T. ) ;
#943 = LINE ( 'NONE', #713, #123 ) ;
#944 = EDGE_CURVE ( 'NONE', #343, #358, #782, .T. ) ;
#945 = LINE ( 'NONE', #728, #444 ) ;
#946 = ORIENTED_EDGE ( 'NONE', *, *, #725, .F. ) ;
#947 = DIRECTION ( 'NONE',  ( 1.000000000000000000, 0.0000000000000000000, 3.915085558625467200E-016 ) ) ;
#948 = ORIENTED_EDGE ( 'NONE', *, *, #360, .F. ) ;
#949 = ORIENTED_EDGE ( 'NONE', *, *, #183, .T. ) ;
#950 = CARTESIAN_POINT ( 'NONE',  ( 5.450000000000000200, -3.000000000000000000, 6.999999999999999100 ) ) ;
#951 = DIRECTION ( 'NONE',  ( -0.0000000000000000000, -0.0000000000000000000, 1.000000000000000000 ) ) ;
#952 = CARTESIAN_POINT ( 'NONE',  ( -0.2499999999999997800, -2.000000000000000000, 0.0000000000000000000 ) ) ;
#953 =( NAMED_UNIT ( * ) SI_UNIT ( $, .STERADIAN. ) SOLID_ANGLE_UNIT ( ) );
#954 = ORIENTED_EDGE ( 'NONE', *, *, #903, .T. ) ;
#955 = VERTEX_POINT ( 'NONE', #276 ) ;
#956 = ORIENTED_EDGE ( 'NONE', *, *, #902, .T. ) ;
#957 = CARTESIAN_POINT ( 'NONE',  ( 4.599999999999999600, 3.949999999999999700, 13.14999999999999900 ) ) ;
#958 = DIRECTION ( 'NONE',  ( 1.000000000000000000, -0.0000000000000000000, -0.0000000000000000000 ) ) ;
#959 = EDGE_CURVE ( 'NONE', #59, #238, #51, .T. ) ;
#960 = EDGE_CURVE ( 'NONE', #716, #374, #787, .T. ) ;
#961 = ORIENTED_EDGE ( 'NONE', *, *, #938, .F. ) ;
#962 = DIRECTION ( 'NONE',  ( 0.0000000000000000000, 1.000000000000000000, 0.0000000000000000000 ) ) ;
#963 = FILL_AREA_STYLE_COLOUR ( '', #814 ) ;
#964 =( NAMED_UNIT ( * ) PLANE_ANGLE_UNIT ( ) SI_UNIT ( $, .RADIAN. ) );
#965 = EDGE_CURVE ( 'NONE', #612, #10, #778, .T. ) ;
#966 = EDGE_CURVE ( 'NONE', #414, #503, #791, .T. ) ;
#967 = EDGE_CURVE ( 'NONE', #330, #694, #797, .T. ) ;
#968 = COLOUR_RGB ( '',0.7529411764705882200, 0.7529411764705882200, 0.7529411764705882200 ) ;
#969 = DIRECTION ( 'NONE',  ( -1.000000000000000000, 0.0000000000000000000, 1.084202172485629300E-015 ) ) ;
#970 = ORIENTED_EDGE ( 'NONE', *, *, #821, .F. ) ;
#971 = EDGE_CURVE ( 'NONE', #716, #10, #794, .T. ) ;
#972 = UNCERTAINTY_MEASURE_WITH_UNIT (LENGTH_MEASURE( 1.000000000000000100E-005 ), #391, 'distance_accuracy_value', 'NONE');
#973 = DIRECTION ( 'NONE',  ( 1.000000000000000000, 0.0000000000000000000, 0.0000000000000000000 ) ) ;
#974 = PRESENTATION_STYLE_ASSIGNMENT (( #921 ) ) ;
#975 = DIRECTION ( 'NONE',  ( -1.000000000000000000, 0.0000000000000000000, 0.0000000000000000000 ) ) ;
#976 = PLANE ( 'NONE',  #5 ) ;
#977 = ORIENTED_EDGE ( 'NONE', *, *, #598, .T. ) ;
#978 = DIRECTION ( 'NONE',  ( 1.000000000000000000, 0.0000000000000000000, 0.0000000000000000000 ) ) ;
#979 = VERTEX_POINT ( 'NONE', #687 ) ;
#980 = DIRECTION ( 'NONE',  ( 1.000000000000000000, 8.881784197001216800E-016, -2.349051335175705600E-016 ) ) ;
#981 = EDGE_CURVE ( 'NONE', #306, #979, #805, .T. ) ;
#982 = CARTESIAN_POINT ( 'NONE',  ( 5.677999999999999900, -3.000000000000000000, 14.22800000000000000 ) ) ;
#983 = VECTOR ( 'NONE', #840, 1000.000000000000000 ) ;
#984 = EDGE_LOOP ( 'NONE', ( #66, #210, #84, #991 ) ) ;
#985 = CARTESIAN_POINT ( 'NONE',  ( 5.450000000000000200, -2.500000000000000000, 13.94999999999999900 ) ) ;
#986 = EDGE_LOOP ( 'NONE', ( #841, #207, #305, #1001, #230 ) ) ;
#987 = DIRECTION ( 'NONE',  ( -0.0000000000000000000, -1.000000000000000000, -0.0000000000000000000 ) ) ;
#988 = DIRECTION ( 'NONE',  ( -0.0000000000000000000, -0.0000000000000000000, -1.000000000000000000 ) ) ;
#989 = FACE_OUTER_BOUND ( 'NONE', #370, .T. ) ;
#990 = FACE_OUTER_BOUND ( 'NONE', #481, .T. ) ;
#991 = ORIENTED_EDGE ( 'NONE', *, *, #942, .T. ) ;
#992 = DIRECTION ( 'NONE',  ( 0.0000000000000000000, 0.0000000000000000000, 1.000000000000000000 ) ) ;
#993 = CARTESIAN_POINT ( 'NONE',  ( 3.351156167226999800, 2.950000000000000200, 13.15000000000000000 ) ) ;
#994 = EDGE_CURVE ( 'NONE', #262, #917, #804, .T. ) ;
#995 = EDGE_LOOP ( 'NONE', ( #109, #152, #934, #239, #617, #890 ) ) ;
#996 = DIRECTION ( 'NONE',  ( 1.000000000000000000, 0.0000000000000000000, 0.0000000000000000000 ) ) ;
#997 = DIRECTION ( 'NONE',  ( -0.0000000000000000000, -1.000000000000000000, -0.0000000000000000000 ) ) ;
#998 = VECTOR ( 'NONE', #454, 1000.000000000000000 ) ;
#999 = CARTESIAN_POINT ( 'NONE',  ( 4.000000000000001800, 4.899999999998868800, 13.15000000000000000 ) ) ;
#1000 =( LENGTH_UNIT ( ) NAMED_UNIT ( * ) SI_UNIT ( .MILLI., .METRE. ) );
#1001 = ORIENTED_EDGE ( 'NONE', *, *, #971, .F. ) ;
ENDSEC;
END-ISO-10303-21;
