#VRML V2.0 utf8

Group {
children [
Shape {
appearance Appearance {
material Material {
ambientIntensity 0.2
diffuseColor 0.0800 0.0800 0.0800
specularColor 0.1500 0.1500 0.1500
shininess 0.12
}
}
geometry IndexedFaceSet {
coord Coordinate {
point [
1.173676 0.132241 -0.000000,
1.181102 -0.000000 -1.377953,
1.173676 0.132241 -1.377953,
1.181102 -0.000000 -0.000000,
1.151490 0.262820 -0.000000,
1.151490 0.262820 -1.377953,
1.114823 0.390093 0.000000,
1.114823 0.390093 -1.377953,
1.064137 0.512461 0.000000,
1.064137 0.512461 -1.377953,
1.000068 0.628384 0.000000,
1.000068 0.628384 -1.377953,
0.923423 0.736405 0.000000,
0.923423 0.736405 -1.377953,
0.835165 0.835165 0.000000,
0.835165 0.835165 -1.377953,
0.736405 0.923423 0.000000,
0.736405 0.923423 -1.377953,
0.628384 1.000068 0.000000,
0.628384 1.000068 -1.377953,
0.512461 1.064137 0.000000,
0.512461 1.064137 -1.377953,
0.390093 1.114823 -0.000000,
0.390093 1.114823 -1.377953,
0.262820 1.151490 -0.000000,
0.262820 1.151490 -1.377953,
0.132241 1.173676 -0.000000,
0.132241 1.173676 -1.377953,
0.000000 1.181102 -0.000000,
-0.000000 1.181102 -1.377953,
-0.132241 1.173676 -0.000000,
-0.132241 1.173676 -1.377953,
-0.262820 1.151490 -0.000000,
-0.262820 1.151490 -1.377953,
-0.390093 1.114823 -0.000000,
-0.390093 1.114823 -1.377953,
-0.512461 1.064137 -0.000000,
-0.512461 1.064137 -1.377953,
-0.628384 1.000068 -0.000000,
-0.628384 1.000068 -1.377953,
-0.736405 0.923423 -0.000000,
-0.736405 0.923423 -1.377953,
-0.835165 0.835165 -0.000000,
-0.835165 0.835165 -1.377953,
-0.923423 0.736405 -0.000000,
-0.923423 0.736405 -1.377953,
-1.000068 0.628384 -0.000000,
-1.000068 0.628384 -1.377953,
-1.064137 0.512461 -0.000000,
-1.064137 0.512461 -1.377953,
-1.114823 0.390093 -0.000000,
-1.114823 0.390093 -1.377953,
-1.151490 0.262820 -0.000000,
-1.151490 0.262820 -1.377953,
-1.173676 0.132241 -0.000000,
-1.173676 0.132241 -1.377953,
-1.181102 -0.000000 -0.000000,
-1.181102 -0.000000 -1.377953,
-0.701448 -0.100853 0.000000,
-0.708661 0.000000 -1.377953,
-0.708661 0.000000 0.000000,
-0.701448 -0.100853 -1.377953,
-0.679956 -0.199653 0.000000,
-0.679956 -0.199653 -1.377953,
-0.644621 -0.294389 -0.000000,
-0.644621 -0.294389 -1.377953,
-0.596164 -0.383131 -0.000000,
-0.535570 -0.464074 -1.377953,
-0.596164 -0.383131 -1.377953,
-0.535570 -0.464074 -0.000000,
-0.464074 -0.535570 -0.000000,
-0.383131 -0.596164 -1.377953,
-0.464074 -0.535570 -1.377953,
-0.383131 -0.596164 -0.000000,
-0.294389 -0.644621 -1.377953,
-0.294389 -0.644621 -0.000000,
-0.199653 -0.679956 0.000000,
-0.100853 -0.701448 -1.377953,
-0.199653 -0.679956 -1.377953,
-0.100853 -0.701448 0.000000,
0.000000 -0.708661 -1.377953,
-0.000000 -0.708661 0.000000,
0.100853 -0.701448 0.000000,
0.100853 -0.701448 -1.377953,
0.199653 -0.679956 0.000000,
0.294389 -0.644621 -1.377953,
0.199653 -0.679956 -1.377953,
0.294389 -0.644621 0.000000,
0.383131 -0.596164 0.000000,
0.464074 -0.535570 -1.377953,
0.383131 -0.596164 -1.377953,
0.464074 -0.535570 0.000000,
0.535570 -0.464074 0.000000,
0.535570 -0.464074 -1.377953,
0.596164 -0.383131 0.000000,
0.596164 -0.383131 -1.377953,
0.644621 -0.294389 0.000000,
0.644621 -0.294389 -1.377953,
0.679956 -0.199653 0.000000,
0.679956 -0.199653 -1.377953,
0.701448 -0.100853 0.000000,
0.701448 -0.100853 -1.377953,
0.708661 0.000000 0.000000,
0.708661 0.000000 -1.377953,
1.712598 1.181102 1.889764,
1.830709 1.181102 1.889764,
2.165354 1.181102 0.000000,
0.236220 1.181102 0.708661,
0.000000 1.181102 -0.000000,
1.830709 1.181102 2.362205,
0.236220 1.181102 0.866142,
1.712598 1.181102 2.362205,
-0.236220 1.181102 0.708661,
-0.236220 1.181102 0.866142,
-2.362205 1.181102 0.000000,
1.811024 1.181102 5.059055,
2.165354 1.181102 5.511811,
1.811024 1.181102 5.177165,
1.338583 1.181102 5.059055,
1.338583 1.181102 5.177165,
-2.362205 1.181102 5.511811,
1.751617 2.085777 5.059055,
1.783966 2.038911 5.059055,
1.804159 1.985665 5.059055,
1.811024 1.929134 5.059055,
1.708992 2.123539 5.059055,
1.603276 2.163632 5.059055,
1.658568 2.150004 5.059055,
1.338583 1.929134 5.059055,
1.811024 1.181102 5.059055,
1.338583 1.181102 5.059055,
1.546330 2.163632 5.059055,
1.345447 1.985665 5.059055,
1.440615 2.123539 5.059055,
1.491038 2.150004 5.059055,
1.397990 2.085777 5.059055,
1.365640 2.038911 5.059055,
1.830709 1.929134 1.889764,
1.830709 1.181102 1.889764,
1.712598 1.181102 1.889764,
1.712598 1.929134 1.889764,
-0.236220 1.929134 0.708661,
-0.236220 1.181102 0.708661,
-0.236220 1.181102 0.866142,
-0.236220 1.929134 0.866142,
0.923423 0.736405 0.000000,
0.835165 0.835165 0.000000,
2.165354 1.181102 0.000000,
0.736405 0.923423 0.000000,
0.628384 1.000068 0.000000,
1.000068 0.628384 0.000000,
0.512461 1.064137 0.000000,
1.064137 0.512461 0.000000,
0.390093 1.114823 -0.000000,
1.114823 0.390093 0.000000,
0.262820 1.151490 -0.000000,
1.151490 0.262820 -0.000000,
0.132241 1.173676 -0.000000,
1.173676 0.132241 -0.000000,
2.165354 -0.787402 0.000000,
1.181102 -0.000000 -0.000000,
1.174691 -0.122903 -0.000000,
1.155524 -0.244472 -0.000000,
1.123812 -0.363387 -0.000000,
1.079898 -0.478356 -0.000000,
1.024258 -0.588131 -0.000000,
0.957498 -0.691520 -0.000000,
0.880342 -0.787402 -0.000000,
0.000000 1.181102 -0.000000,
2.165354 1.181102 5.511811,
2.165354 -0.787402 5.511811,
2.165354 -0.787402 0.000000,
2.165354 1.181102 0.000000,
-2.362205 -0.787402 5.511811,
2.165354 -0.787402 5.511811,
2.165354 1.181102 5.511811,
-2.362205 1.181102 5.511811,
-2.362205 -0.787402 5.511811,
-2.362205 1.181102 5.511811,
-2.362205 1.181102 0.000000,
-2.362205 -0.787402 0.000000,
-2.362205 1.181102 0.000000,
-1.151490 0.262820 -0.000000,
-1.173676 0.132241 -0.000000,
-1.114823 0.390093 -0.000000,
-1.064137 0.512461 -0.000000,
-1.000068 0.628384 -0.000000,
-0.923423 0.736405 -0.000000,
-0.835165 0.835165 -0.000000,
-0.736405 0.923423 -0.000000,
-0.628384 1.000068 -0.000000,
-0.512461 1.064137 -0.000000,
-0.390093 1.114823 -0.000000,
-0.262820 1.151490 -0.000000,
-0.132241 1.173676 -0.000000,
-2.362205 -0.787402 0.000000,
-0.957498 -0.691520 0.000000,
-0.880342 -0.787402 -0.000000,
-1.024258 -0.588131 0.000000,
-1.079898 -0.478356 0.000000,
-1.123812 -0.363387 0.000000,
-1.155524 -0.244472 -0.000000,
-1.174691 -0.122903 -0.000000,
-1.181102 -0.000000 -0.000000,
0.000000 1.181102 -0.000000,
1.811024 1.929134 5.177165,
1.811024 1.181102 5.177165,
1.811024 1.181102 5.059055,
1.811024 1.929134 5.059055,
1.804159 1.985665 5.177165,
1.811024 1.929134 5.177165,
1.811024 1.929134 5.059055,
1.804159 1.985665 5.059055,
1.783966 2.038911 5.177165,
1.783966 2.038911 5.059055,
1.751617 2.085777 5.177165,
1.751617 2.085777 5.059055,
1.708992 2.123539 5.177165,
1.708992 2.123539 5.059055,
1.658568 2.150004 5.177165,
1.658568 2.150004 5.059055,
1.603276 2.163632 5.177165,
1.603276 2.163632 5.059055,
1.546330 2.163632 5.177165,
1.546330 2.163632 5.059055,
1.491038 2.150004 5.177165,
1.491038 2.150004 5.059055,
1.440615 2.123539 5.177165,
1.440615 2.123539 5.059055,
1.397990 2.085777 5.059055,
1.397990 2.085777 5.177165,
1.365640 2.038911 5.177165,
1.365640 2.038911 5.059055,
1.345447 1.985665 5.177165,
1.345447 1.985665 5.059055,
1.338583 1.929134 5.059055,
1.338583 1.929134 5.177165,
1.338583 1.929134 5.059055,
1.338583 1.181102 5.059055,
1.338583 1.181102 5.177165,
1.338583 1.929134 5.177165,
1.830709 2.085777 2.302798,
1.830709 2.038911 2.335147,
1.830709 1.985665 2.355341,
1.830709 1.929134 2.362205,
1.830709 2.150004 2.209749,
1.830709 2.123539 2.260173,
1.830709 2.163632 2.154457,
1.830709 1.929134 1.889764,
1.830709 1.181102 2.362205,
1.830709 1.181102 1.889764,
1.830709 1.985665 1.896628,
1.830709 2.150004 2.042219,
1.830709 2.163632 2.097511,
1.830709 2.085777 1.949170,
1.830709 2.038911 1.916821,
1.830709 2.123539 1.991796,
1.712598 1.929134 1.889764,
1.712598 1.181102 1.889764,
1.712598 1.181102 2.362205,
1.712598 2.085777 1.949170,
1.712598 2.038911 1.916821,
1.712598 1.985665 1.896628,
1.712598 1.929134 2.362205,
1.712598 2.150004 2.209749,
1.712598 2.163632 2.154457,
1.712598 2.163632 2.097511,
1.712598 2.150004 2.042219,
1.712598 2.085777 2.302798,
1.712598 1.985665 2.355341,
1.712598 2.038911 2.335147,
1.712598 2.123539 2.260173,
1.712598 2.123539 1.991796,
0.236220 1.929134 0.708661,
0.236220 1.181102 0.708661,
-0.236220 1.181102 0.708661,
0.209163 2.038911 0.708661,
0.229356 1.985665 0.708661,
0.176813 2.085777 0.708661,
0.083765 2.150004 0.708661,
0.134189 2.123539 0.708661,
-0.236220 1.929134 0.708661,
-0.229356 1.985665 0.708661,
-0.083765 2.150004 0.708661,
-0.028473 2.163632 0.708661,
0.028473 2.163632 0.708661,
-0.176813 2.085777 0.708661,
-0.209163 2.038911 0.708661,
-0.134189 2.123539 0.708661,
-0.028473 2.163632 0.866142,
-0.083765 2.150004 0.866142,
-0.134189 2.123539 0.866142,
-0.176813 2.085777 0.866142,
-0.209163 2.038911 0.866142,
-0.229356 1.985665 0.866142,
0.236220 1.929134 0.866142,
-0.236220 1.929134 0.866142,
-0.236220 1.181102 0.866142,
0.236220 1.181102 0.866142,
0.083765 2.150004 0.866142,
0.028473 2.163632 0.866142,
0.209163 2.038911 0.866142,
0.229356 1.985665 0.866142,
0.176813 2.085777 0.866142,
0.134189 2.123539 0.866142,
-1.174691 -0.122903 -0.000000,
-1.181102 -0.000000 -0.000000,
-1.181102 -0.000000 -1.377953,
-1.173676 -0.132241 -1.377953,
-1.155524 -0.244472 -0.000000,
-1.151490 -0.262820 -1.377953,
-1.123812 -0.363387 0.000000,
-1.114823 -0.390093 -1.377953,
-1.079898 -0.478356 0.000000,
-1.064137 -0.512461 -1.377953,
-1.024258 -0.588131 0.000000,
-1.000068 -0.628384 -1.377953,
-0.957498 -0.691520 0.000000,
-0.923423 -0.736405 -1.377953,
-0.880342 -0.787402 -0.000000,
-0.835165 -0.835165 -1.377953,
-0.786696 -0.880972 -0.000000,
-0.736405 -0.923423 -1.377953,
-0.683167 -0.963476 -0.000000,
-0.628384 -1.000068 -1.377953,
-0.571055 -1.033876 -0.000000,
-0.512461 -1.064137 -1.377953,
-0.451770 -1.091287 -0.000000,
-0.390093 -1.114823 -1.377953,
-0.326809 -1.134989 -0.000000,
-0.262820 -1.151490 -1.377953,
-0.197742 -1.164431 -0.000000,
-0.132241 -1.173676 -1.377953,
-0.066191 -1.179246 -0.000000,
-0.000000 -1.181102 -1.377953,
0.066191 -1.179246 -0.000000,
0.132241 -1.173676 -1.377953,
0.197742 -1.164431 -0.000000,
0.262820 -1.151490 -1.377953,
0.326809 -1.134989 -0.000000,
0.390093 -1.114823 -1.377953,
0.451770 -1.091287 -0.000000,
0.512461 -1.064137 -1.377953,
0.571055 -1.033876 -0.000000,
0.628384 -1.000068 -1.377953,
0.683167 -0.963476 -0.000000,
0.736405 -0.923423 -1.377953,
0.786696 -0.880972 -0.000000,
0.835165 -0.835165 -1.377953,
0.880342 -0.787402 -0.000000,
0.923423 -0.736405 -1.377953,
0.957498 -0.691520 -0.000000,
1.000068 -0.628384 -1.377953,
1.024258 -0.588131 -0.000000,
1.064137 -0.512461 -1.377953,
1.079898 -0.478356 -0.000000,
1.114823 -0.390093 -1.377953,
1.123812 -0.363387 -0.000000,
1.151490 -0.262820 -1.377953,
1.155524 -0.244472 -0.000000,
1.173676 -0.132241 -1.377953,
1.174691 -0.122903 -0.000000,
1.181102 -0.000000 -1.377953,
1.181102 -0.000000 -0.000000,
-0.880342 -0.787402 -0.000000,
-2.342520 -0.787402 0.019685,
-2.362205 -0.787402 0.000000,
2.165354 -0.787402 0.000000,
2.145669 -0.787402 0.019685,
0.880342 -0.787402 -0.000000,
-2.342520 -0.787402 5.492126,
-2.362205 -0.787402 5.511811,
2.165354 -0.787402 5.511811,
2.145669 -0.787402 5.492126,
1.338583 1.929134 5.177165,
1.338583 1.181102 5.177165,
1.811024 1.181102 5.177165,
1.365640 2.038911 5.177165,
1.345447 1.985665 5.177165,
1.491038 2.150004 5.177165,
1.397990 2.085777 5.177165,
1.440615 2.123539 5.177165,
1.811024 1.929134 5.177165,
1.658568 2.150004 5.177165,
1.603276 2.163632 5.177165,
1.546330 2.163632 5.177165,
1.708992 2.123539 5.177165,
1.751617 2.085777 5.177165,
1.804159 1.985665 5.177165,
1.783966 2.038911 5.177165,
1.830709 1.929134 2.362205,
1.712598 1.929134 2.362205,
1.712598 1.181102 2.362205,
1.830709 1.181102 2.362205,
1.712598 1.985665 2.355341,
1.712598 1.929134 2.362205,
1.830709 1.929134 2.362205,
1.830709 1.985665 2.355341,
1.712598 2.038911 2.335147,
1.830709 2.038911 2.335147,
1.712598 2.085777 2.302798,
1.830709 2.085777 2.302798,
1.712598 2.123539 2.260173,
1.830709 2.123539 2.260173,
1.712598 2.150004 2.209749,
1.830709 2.150004 2.209749,
1.712598 2.163632 2.154457,
1.830709 2.163632 2.154457,
1.712598 2.163632 2.097511,
1.830709 2.163632 2.097511,
1.712598 2.150004 2.042219,
1.830709 2.150004 2.042219,
1.712598 2.123539 1.991796,
1.830709 2.123539 1.991796,
1.712598 2.085777 1.949170,
1.830709 2.085777 1.949170,
1.712598 2.038911 1.916821,
1.830709 2.038911 1.916821,
1.712598 1.985665 1.896628,
1.830709 1.985665 1.896628,
1.830709 1.929134 1.889764,
1.712598 1.929134 1.889764,
0.236220 1.929134 0.866142,
0.236220 1.181102 0.866142,
0.236220 1.181102 0.708661,
0.236220 1.929134 0.708661,
-0.229356 1.985665 0.708661,
-0.236220 1.929134 0.708661,
-0.236220 1.929134 0.866142,
-0.229356 1.985665 0.866142,
-0.209163 2.038911 0.708661,
-0.209163 2.038911 0.866142,
-0.176813 2.085777 0.708661,
-0.176813 2.085777 0.866142,
-0.134189 2.123539 0.708661,
-0.134189 2.123539 0.866142,
-0.083765 2.150004 0.708661,
-0.083765 2.150004 0.866142,
-0.028473 2.163632 0.708661,
-0.028473 2.163632 0.866142,
0.028473 2.163632 0.708661,
0.028473 2.163632 0.866142,
0.083765 2.150004 0.708661,
0.083765 2.150004 0.866142,
0.134189 2.123539 0.708661,
0.134189 2.123539 0.866142,
0.176813 2.085777 0.708661,
0.176813 2.085777 0.866142,
0.209163 2.038911 0.708661,
0.209163 2.038911 0.866142,
0.229356 1.985665 0.708661,
0.229356 1.985665 0.866142,
0.236220 1.929134 0.708661,
0.236220 1.929134 0.866142,
0.326809 -1.134989 -0.000000,
0.683167 -0.963476 -0.000000,
0.786696 -0.880972 -0.000000,
0.571055 -1.033876 -0.000000,
0.451770 -1.091287 -0.000000,
-0.326809 -1.134989 -0.000000,
-0.197742 -1.164431 -0.000000,
-0.066191 -1.179246 -0.000000,
-0.451770 -1.091287 -0.000000,
0.066191 -1.179246 -0.000000,
0.197742 -1.164431 -0.000000,
-0.571055 -1.033876 -0.000000,
-0.683167 -0.963476 -0.000000,
-0.880342 -0.787402 -0.000000,
0.880342 -0.787402 -0.000000,
-0.786696 -0.880972 -0.000000,
0.535570 0.464074 -1.377953,
0.835165 0.835165 -1.377953,
0.923423 0.736405 -1.377953,
0.464074 0.535570 -1.377953,
0.736405 0.923423 -1.377953,
0.596164 0.383131 -1.377953,
1.000068 0.628384 -1.377953,
1.064137 0.512461 -1.377953,
0.383131 0.596164 -1.377953,
0.628384 1.000068 -1.377953,
0.512461 1.064137 -1.377953,
0.644621 0.294389 -1.377953,
1.114823 0.390093 -1.377953,
0.294389 0.644621 -1.377953,
0.390093 1.114823 -1.377953,
0.679956 0.199653 -1.377953,
1.151490 0.262820 -1.377953,
0.199653 0.679956 -1.377953,
0.262820 1.151490 -1.377953,
0.701448 0.100853 -1.377953,
1.173676 0.132241 -1.377953,
0.100853 0.701448 -1.377953,
0.132241 1.173676 -1.377953,
0.708661 0.000000 -1.377953,
1.181102 -0.000000 -1.377953,
1.173676 -0.132241 -1.377953,
-0.000000 0.708661 -1.377953,
-0.000000 1.181102 -1.377953,
-0.132241 1.173676 -1.377953,
0.701448 -0.100853 -1.377953,
1.151490 -0.262820 -1.377953,
-0.100853 0.701448 -1.377953,
-0.262820 1.151490 -1.377953,
0.679956 -0.199653 -1.377953,
1.114823 -0.390093 -1.377953,
-0.199653 0.679956 -1.377953,
-0.390093 1.114823 -1.377953,
0.644621 -0.294389 -1.377953,
1.064137 -0.512461 -1.377953,
-0.294389 0.644621 -1.377953,
-0.512461 1.064137 -1.377953,
0.596164 -0.383131 -1.377953,
1.000068 -0.628384 -1.377953,
-0.383131 0.596164 -1.377953,
-0.628384 1.000068 -1.377953,
0.923423 -0.736405 -1.377953,
-0.736405 0.923423 -1.377953,
0.535570 -0.464074 -1.377953,
-0.464074 0.535570 -1.377953,
-0.835165 0.835165 -1.377953,
0.835165 -0.835165 -1.377953,
0.464074 -0.535570 -1.377953,
-0.535570 0.464074 -1.377953,
0.736405 -0.923423 -1.377953,
-0.923423 0.736405 -1.377953,
0.383131 -0.596164 -1.377953,
-0.596164 0.383131 -1.377953,
-1.000068 0.628384 -1.377953,
0.628384 -1.000068 -1.377953,
0.512461 -1.064137 -1.377953,
0.294389 -0.644621 -1.377953,
-1.064137 0.512461 -1.377953,
-0.644621 0.294389 -1.377953,
-1.114823 0.390093 -1.377953,
-0.679956 0.199653 -1.377953,
0.390093 -1.114823 -1.377953,
0.199653 -0.679956 -1.377953,
0.262820 -1.151490 -1.377953,
0.100853 -0.701448 -1.377953,
-1.151490 0.262820 -1.377953,
-0.701448 0.100853 -1.377953,
-1.173676 0.132241 -1.377953,
-0.708661 0.000000 -1.377953,
0.132241 -1.173676 -1.377953,
0.000000 -0.708661 -1.377953,
-1.181102 -0.000000 -1.377953,
-0.000000 -1.181102 -1.377953,
-1.173676 -0.132241 -1.377953,
-0.701448 -0.100853 -1.377953,
-0.132241 -1.173676 -1.377953,
-0.100853 -0.701448 -1.377953,
-0.262820 -1.151490 -1.377953,
-0.199653 -0.679956 -1.377953,
-1.151490 -0.262820 -1.377953,
-0.679956 -0.199653 -1.377953,
-1.114823 -0.390093 -1.377953,
-0.644621 -0.294389 -1.377953,
-0.390093 -1.114823 -1.377953,
-0.294389 -0.644621 -1.377953,
-1.064137 -0.512461 -1.377953,
-0.596164 -0.383131 -1.377953,
-0.512461 -1.064137 -1.377953,
-0.383131 -0.596164 -1.377953,
-0.628384 -1.000068 -1.377953,
-1.000068 -0.628384 -1.377953,
-0.736405 -0.923423 -1.377953,
-0.464074 -0.535570 -1.377953,
-0.923423 -0.736405 -1.377953,
-0.535570 -0.464074 -1.377953,
-0.835165 -0.835165 -1.377953,
2.145669 -1.181102 0.019685,
-2.342520 -1.181102 0.019685,
-2.342520 -0.787402 0.019685,
2.145669 -0.787402 0.019685,
2.145669 -0.787402 5.492126,
2.145669 -1.181102 0.019685,
2.145669 -0.787402 0.019685,
2.145669 -1.181102 5.492126,
-2.342520 -1.181102 5.492126,
2.145669 -1.181102 5.492126,
2.145669 -0.787402 5.492126,
-2.342520 -0.787402 5.492126,
-2.342520 -1.181102 0.019685,
-2.342520 -1.181102 5.492126,
-2.342520 -0.787402 5.492126,
-2.342520 -0.787402 0.019685,
0.701448 0.100853 0.000000,
0.708661 0.000000 -1.377953,
0.708661 0.000000 0.000000,
0.701448 0.100853 -1.377953,
0.679956 0.199653 0.000000,
0.679956 0.199653 -1.377953,
0.644621 0.294389 0.000000,
0.596164 0.383131 -1.377953,
0.644621 0.294389 -1.377953,
0.596164 0.383131 0.000000,
0.535570 0.464074 -1.377953,
0.535570 0.464074 0.000000,
0.464074 0.535570 0.000000,
0.383131 0.596164 -1.377953,
0.464074 0.535570 -1.377953,
0.383131 0.596164 0.000000,
0.294389 0.644621 0.000000,
0.294389 0.644621 -1.377953,
0.199653 0.679956 0.000000,
0.100853 0.701448 -1.377953,
0.199653 0.679956 -1.377953,
0.100853 0.701448 0.000000,
-0.000000 0.708661 0.000000,
-0.000000 0.708661 -1.377953,
-0.100853 0.701448 0.000000,
-0.199653 0.679956 -1.377953,
-0.100853 0.701448 -1.377953,
-0.199653 0.679956 0.000000,
-0.294389 0.644621 0.000000,
-0.383131 0.596164 -1.377953,
-0.294389 0.644621 -1.377953,
-0.383131 0.596164 0.000000,
-0.464074 0.535570 0.000000,
-0.464074 0.535570 -1.377953,
-0.535570 0.464074 0.000000,
-0.535570 0.464074 -1.377953,
-0.596164 0.383131 0.000000,
-0.596164 0.383131 -1.377953,
-0.644621 0.294389 0.000000,
-0.644621 0.294389 -1.377953,
-0.679956 0.199653 0.000000,
-0.679956 0.199653 -1.377953,
-0.701448 0.100853 0.000000,
-0.701448 0.100853 -1.377953,
-0.708661 0.000000 0.000000,
-0.708661 0.000000 -1.377953,
-2.342520 -1.181102 0.019685,
2.145669 -1.181102 0.019685,
2.145669 -1.181102 5.492126,
-2.342520 -1.181102 5.492126,
-0.596164 -0.383131 -0.000000,
-0.464074 -0.535570 -0.000000,
-0.535570 -0.464074 -0.000000,
-0.294389 -0.644621 -0.000000,
-0.383131 -0.596164 -0.000000,
-0.679956 -0.199653 0.000000,
-0.644621 -0.294389 -0.000000,
-0.679956 0.199653 0.000000,
-0.708661 0.000000 0.000000,
-0.701448 0.100853 0.000000,
-0.701448 -0.100853 0.000000,
0.294389 -0.644621 0.000000,
0.199653 -0.679956 0.000000,
0.100853 -0.701448 0.000000,
-0.535570 0.464074 0.000000,
-0.644621 0.294389 0.000000,
-0.596164 0.383131 0.000000,
0.464074 -0.535570 0.000000,
0.383131 -0.596164 0.000000,
0.596164 -0.383131 0.000000,
0.535570 -0.464074 0.000000,
-0.199653 0.679956 0.000000,
-0.464074 0.535570 0.000000,
-0.383131 0.596164 0.000000,
-0.294389 0.644621 0.000000,
-0.199653 -0.679956 0.000000,
0.701448 -0.100853 0.000000,
0.679956 -0.199653 0.000000,
0.644621 -0.294389 0.000000,
0.708661 0.000000 0.000000,
0.100853 0.701448 0.000000,
-0.100853 0.701448 0.000000,
-0.000000 0.708661 0.000000,
0.644621 0.294389 0.000000,
0.679956 0.199653 0.000000,
0.701448 0.100853 0.000000,
0.383131 0.596164 0.000000,
0.199653 0.679956 0.000000,
0.294389 0.644621 0.000000,
0.535570 0.464074 0.000000,
0.464074 0.535570 0.000000,
0.596164 0.383131 0.000000,
-0.000000 -0.708661 0.000000,
-0.100853 -0.701448 0.000000,
]
}
coordIndex [
0 1 2 -1,
0 3 1 -1,
4 2 5 -1,
4 0 2 -1,
6 5 7 -1,
6 4 5 -1,
8 7 9 -1,
8 6 7 -1,
10 9 11 -1,
10 8 9 -1,
12 11 13 -1,
12 10 11 -1,
14 13 15 -1,
14 12 13 -1,
16 15 17 -1,
16 14 15 -1,
18 17 19 -1,
18 16 17 -1,
20 18 19 -1,
20 19 21 -1,
22 20 21 -1,
22 21 23 -1,
24 22 23 -1,
24 23 25 -1,
26 25 27 -1,
26 24 25 -1,
28 27 29 -1,
28 26 27 -1,
30 29 31 -1,
30 28 29 -1,
32 30 31 -1,
32 31 33 -1,
34 33 35 -1,
34 32 33 -1,
36 35 37 -1,
36 34 35 -1,
38 37 39 -1,
38 36 37 -1,
40 39 41 -1,
40 38 39 -1,
42 41 43 -1,
42 40 41 -1,
44 43 45 -1,
44 42 43 -1,
46 45 47 -1,
46 44 45 -1,
48 47 49 -1,
48 46 47 -1,
50 49 51 -1,
50 48 49 -1,
52 51 53 -1,
52 50 51 -1,
54 53 55 -1,
54 52 53 -1,
56 55 57 -1,
56 54 55 -1,
58 59 60 -1,
58 61 59 -1,
62 63 61 -1,
62 61 58 -1,
64 65 63 -1,
64 63 62 -1,
66 67 68 -1,
66 68 65 -1,
66 65 64 -1,
69 67 66 -1,
70 71 72 -1,
70 72 67 -1,
70 67 69 -1,
73 74 71 -1,
73 71 70 -1,
75 74 73 -1,
76 77 78 -1,
76 78 74 -1,
76 74 75 -1,
79 80 77 -1,
79 77 76 -1,
81 80 79 -1,
82 83 80 -1,
82 80 81 -1,
84 83 82 -1,
84 85 86 -1,
84 86 83 -1,
87 85 84 -1,
88 85 87 -1,
88 89 90 -1,
88 90 85 -1,
91 89 88 -1,
92 89 91 -1,
92 93 89 -1,
94 93 92 -1,
94 95 93 -1,
96 95 94 -1,
96 97 95 -1,
98 97 96 -1,
98 99 97 -1,
100 101 99 -1,
100 99 98 -1,
102 103 101 -1,
102 101 100 -1,
104 105 106 -1,
107 106 108 -1,
109 106 105 -1,
110 104 106 -1,
110 106 107 -1,
111 104 110 -1,
112 107 108 -1,
113 111 110 -1,
114 113 112 -1,
114 112 108 -1,
115 109 111 -1,
116 109 115 -1,
117 116 115 -1,
118 115 111 -1,
118 111 113 -1,
119 116 117 -1,
120 119 118 -1,
120 113 114 -1,
120 118 113 -1,
116 106 109 -1,
120 116 119 -1,
121 122 123 -1,
121 123 124 -1,
125 121 124 -1,
126 127 125 -1,
128 124 129 -1,
128 129 130 -1,
131 126 125 -1,
132 124 128 -1,
133 134 131 -1,
135 132 136 -1,
135 125 124 -1,
135 131 125 -1,
135 124 132 -1,
135 133 131 -1,
137 138 139 -1,
140 137 139 -1,
141 142 143 -1,
144 141 143 -1,
145 146 147 -1,
148 147 146 -1,
149 147 148 -1,
150 145 147 -1,
151 147 149 -1,
152 150 147 -1,
153 147 151 -1,
154 152 147 -1,
155 147 153 -1,
156 154 147 -1,
157 147 155 -1,
158 147 159 -1,
158 156 147 -1,
160 158 159 -1,
161 160 159 -1,
162 161 159 -1,
163 162 159 -1,
164 163 159 -1,
165 164 159 -1,
166 165 159 -1,
167 166 159 -1,
147 157 168 -1,
169 170 171 -1,
169 171 172 -1,
173 174 175 -1,
173 175 176 -1,
177 178 179 -1,
177 179 180 -1,
181 182 183 -1,
181 184 182 -1,
181 185 184 -1,
181 186 185 -1,
181 187 186 -1,
181 188 187 -1,
181 189 188 -1,
181 190 189 -1,
181 191 190 -1,
181 192 191 -1,
181 193 192 -1,
181 194 193 -1,
195 196 197 -1,
195 198 196 -1,
195 199 198 -1,
195 200 199 -1,
195 201 200 -1,
195 202 201 -1,
195 203 202 -1,
195 183 203 -1,
195 181 183 -1,
204 194 181 -1,
205 206 207 -1,
208 205 207 -1,
209 210 211 -1,
209 211 212 -1,
213 212 214 -1,
213 209 212 -1,
215 214 216 -1,
215 213 214 -1,
217 216 218 -1,
217 215 216 -1,
219 218 220 -1,
219 217 218 -1,
221 220 222 -1,
221 219 220 -1,
223 222 224 -1,
223 221 222 -1,
225 224 226 -1,
225 223 224 -1,
227 228 229 -1,
227 226 228 -1,
227 225 226 -1,
230 227 229 -1,
231 229 232 -1,
231 230 229 -1,
233 234 235 -1,
233 232 234 -1,
233 231 232 -1,
236 233 235 -1,
237 238 239 -1,
240 237 239 -1,
241 242 243 -1,
241 243 244 -1,
245 246 241 -1,
247 245 241 -1,
248 244 249 -1,
248 249 250 -1,
251 244 248 -1,
252 253 247 -1,
254 251 255 -1,
254 256 252 -1,
254 241 244 -1,
254 247 241 -1,
254 244 251 -1,
254 252 247 -1,
257 258 259 -1,
260 261 262 -1,
260 262 257 -1,
263 257 259 -1,
264 265 266 -1,
264 266 267 -1,
268 263 269 -1,
268 269 270 -1,
268 271 264 -1,
268 267 272 -1,
268 272 260 -1,
268 260 257 -1,
268 257 263 -1,
268 264 267 -1,
273 274 275 -1,
276 277 273 -1,
278 276 273 -1,
279 280 278 -1,
279 278 273 -1,
281 273 275 -1,
282 273 281 -1,
283 284 285 -1,
283 285 279 -1,
286 282 287 -1,
286 288 283 -1,
286 279 273 -1,
286 283 279 -1,
286 273 282 -1,
289 290 291 -1,
289 291 292 -1,
289 292 293 -1,
289 293 294 -1,
295 296 297 -1,
295 297 298 -1,
299 300 289 -1,
301 295 302 -1,
301 294 296 -1,
301 296 295 -1,
303 304 299 -1,
303 289 294 -1,
303 299 289 -1,
303 294 301 -1,
305 306 307 -1,
305 307 308 -1,
309 308 310 -1,
309 305 308 -1,
311 310 312 -1,
311 309 310 -1,
313 312 314 -1,
313 311 312 -1,
315 314 316 -1,
315 313 314 -1,
317 316 318 -1,
317 315 316 -1,
319 318 320 -1,
319 317 318 -1,
321 320 322 -1,
321 319 320 -1,
323 322 324 -1,
323 321 322 -1,
325 324 326 -1,
325 323 324 -1,
327 325 326 -1,
327 326 328 -1,
329 327 328 -1,
329 328 330 -1,
331 329 330 -1,
331 330 332 -1,
333 332 334 -1,
333 331 332 -1,
335 334 336 -1,
335 333 334 -1,
337 336 338 -1,
337 335 336 -1,
339 338 340 -1,
339 337 338 -1,
341 340 342 -1,
341 339 340 -1,
343 342 344 -1,
343 341 342 -1,
345 344 346 -1,
345 343 344 -1,
347 346 348 -1,
347 345 346 -1,
349 348 350 -1,
349 347 348 -1,
351 350 352 -1,
351 349 350 -1,
353 352 354 -1,
353 351 352 -1,
355 354 356 -1,
355 353 354 -1,
357 356 358 -1,
357 355 356 -1,
359 358 360 -1,
359 357 358 -1,
361 360 362 -1,
361 359 360 -1,
363 361 362 -1,
364 365 366 -1,
367 368 369 -1,
370 366 365 -1,
371 366 370 -1,
372 373 368 -1,
372 370 373 -1,
372 368 367 -1,
372 371 370 -1,
368 365 364 -1,
368 364 369 -1,
374 375 376 -1,
377 378 374 -1,
379 380 377 -1,
379 381 380 -1,
382 374 376 -1,
383 384 385 -1,
386 383 385 -1,
387 385 379 -1,
387 388 389 -1,
387 382 388 -1,
387 377 374 -1,
387 379 377 -1,
387 374 382 -1,
387 386 385 -1,
390 391 392 -1,
390 392 393 -1,
394 395 396 -1,
394 396 397 -1,
398 397 399 -1,
398 394 397 -1,
400 399 401 -1,
400 398 399 -1,
402 401 403 -1,
402 400 401 -1,
404 403 405 -1,
404 402 403 -1,
406 405 407 -1,
406 404 405 -1,
408 407 409 -1,
408 406 407 -1,
410 409 411 -1,
410 408 409 -1,
412 411 413 -1,
412 410 411 -1,
414 413 415 -1,
414 412 413 -1,
416 415 417 -1,
416 414 415 -1,
418 419 420 -1,
418 417 419 -1,
418 416 417 -1,
421 418 420 -1,
422 423 424 -1,
425 422 424 -1,
426 427 428 -1,
426 428 429 -1,
430 429 431 -1,
430 426 429 -1,
432 431 433 -1,
432 430 431 -1,
434 433 435 -1,
434 432 433 -1,
436 435 437 -1,
436 434 435 -1,
438 437 439 -1,
438 436 437 -1,
440 439 441 -1,
440 438 439 -1,
442 441 443 -1,
442 440 441 -1,
444 443 445 -1,
444 442 443 -1,
446 445 447 -1,
446 444 445 -1,
448 447 449 -1,
448 446 447 -1,
450 449 451 -1,
450 448 449 -1,
452 451 453 -1,
452 450 451 -1,
454 455 456 -1,
454 457 455 -1,
454 458 457 -1,
459 460 461 -1,
462 463 464 -1,
462 461 463 -1,
462 459 461 -1,
465 464 454 -1,
465 462 464 -1,
466 454 456 -1,
466 465 454 -1,
467 456 468 -1,
467 469 466 -1,
467 466 456 -1,
470 471 472 -1,
473 471 470 -1,
473 474 471 -1,
475 470 472 -1,
475 476 477 -1,
475 472 476 -1,
478 479 474 -1,
478 474 473 -1,
478 480 479 -1,
481 475 477 -1,
481 477 482 -1,
483 480 478 -1,
483 484 480 -1,
485 482 486 -1,
485 481 482 -1,
487 484 483 -1,
487 488 484 -1,
489 485 486 -1,
489 486 490 -1,
491 492 488 -1,
491 488 487 -1,
493 494 495 -1,
493 490 494 -1,
493 489 490 -1,
496 497 492 -1,
496 498 497 -1,
496 492 491 -1,
499 495 500 -1,
499 493 495 -1,
501 502 498 -1,
501 498 496 -1,
503 500 504 -1,
503 499 500 -1,
505 506 502 -1,
505 502 501 -1,
507 504 508 -1,
507 503 504 -1,
509 510 506 -1,
509 506 505 -1,
511 508 512 -1,
511 507 508 -1,
513 514 510 -1,
513 510 509 -1,
515 511 512 -1,
516 514 513 -1,
517 511 515 -1,
518 516 513 -1,
519 516 518 -1,
520 517 515 -1,
521 517 520 -1,
522 519 518 -1,
523 521 520 -1,
524 519 522 -1,
525 521 523 -1,
526 524 522 -1,
527 524 526 -1,
528 525 523 -1,
529 525 528 -1,
529 530 525 -1,
531 527 526 -1,
531 526 532 -1,
533 531 532 -1,
533 532 534 -1,
535 530 529 -1,
535 536 530 -1,
537 536 535 -1,
537 538 536 -1,
539 533 534 -1,
539 534 540 -1,
541 539 540 -1,
541 540 542 -1,
543 538 537 -1,
543 544 538 -1,
545 541 542 -1,
546 544 543 -1,
547 545 542 -1,
547 542 548 -1,
549 544 546 -1,
549 550 544 -1,
551 550 549 -1,
551 552 550 -1,
553 547 548 -1,
553 548 554 -1,
555 553 554 -1,
555 554 556 -1,
557 552 551 -1,
557 558 552 -1,
559 555 556 -1,
559 556 560 -1,
561 558 557 -1,
561 562 558 -1,
563 562 561 -1,
564 559 560 -1,
565 562 563 -1,
565 566 562 -1,
567 564 560 -1,
567 560 568 -1,
569 568 566 -1,
569 566 565 -1,
569 567 568 -1,
570 571 572 -1,
570 572 573 -1,
574 575 576 -1,
577 575 574 -1,
578 579 580 -1,
578 580 581 -1,
582 583 584 -1,
582 584 585 -1,
586 587 588 -1,
586 589 587 -1,
590 591 589 -1,
590 589 586 -1,
592 593 594 -1,
592 594 591 -1,
592 591 590 -1,
595 596 593 -1,
595 593 592 -1,
597 596 595 -1,
598 599 600 -1,
598 600 596 -1,
598 596 597 -1,
601 599 598 -1,
602 603 599 -1,
602 599 601 -1,
604 605 606 -1,
604 606 603 -1,
604 603 602 -1,
607 605 604 -1,
608 609 605 -1,
608 605 607 -1,
610 611 612 -1,
610 612 609 -1,
610 609 608 -1,
613 611 610 -1,
614 611 613 -1,
614 615 616 -1,
614 616 611 -1,
617 615 614 -1,
618 615 617 -1,
618 619 615 -1,
620 619 618 -1,
620 621 619 -1,
622 621 620 -1,
622 623 621 -1,
624 625 623 -1,
624 623 622 -1,
626 627 625 -1,
626 625 624 -1,
628 629 627 -1,
628 627 626 -1,
630 631 629 -1,
630 629 628 -1,
632 633 634 -1,
632 634 635 -1,
636 637 638 -1,
639 640 637 -1,
641 636 642 -1,
643 644 645 -1,
643 641 646 -1,
643 646 644 -1,
647 648 649 -1,
650 643 651 -1,
650 651 652 -1,
650 636 641 -1,
650 641 643 -1,
653 654 647 -1,
653 647 649 -1,
655 656 653 -1,
657 650 658 -1,
657 658 659 -1,
657 659 660 -1,
657 661 639 -1,
657 637 636 -1,
657 639 637 -1,
657 636 650 -1,
662 663 664 -1,
665 662 664 -1,
665 664 655 -1,
666 657 667 -1,
666 667 668 -1,
669 665 655 -1,
669 670 671 -1,
669 671 665 -1,
669 655 653 -1,
672 666 673 -1,
672 673 674 -1,
675 657 666 -1,
675 672 676 -1,
675 666 672 -1,
675 677 669 -1,
675 669 653 -1,
675 649 678 -1,
675 678 679 -1,
675 679 661 -1,
675 653 649 -1,
675 661 657 -1,
]
creaseAngle 0.5
}
}
]
}