#VRML V2.0 utf8

Group {
children [
Shape {
appearance Appearance {
material Material {
ambientIntensity 0.2
diffuseColor 0.0800 0.0800 0.0800
specularColor 0.1500 0.1500 0.1500
shininess 0.12
}
}
geometry IndexedFaceSet {
coord Coordinate {
point [
7.086614 1.181102 -0.000000,
5.511811 1.181102 -0.000000,
5.511811 1.173676 0.132241,
7.086614 1.173676 0.132241,
5.511811 1.151490 0.262820,
7.086614 1.151490 0.262820,
5.511811 1.114823 0.390093,
7.086614 1.114823 0.390093,
5.511811 1.064137 0.512461,
7.086614 1.064137 0.512461,
5.511811 1.000068 0.628384,
7.086614 1.000068 0.628384,
5.511811 0.923423 0.736405,
7.086614 0.923423 0.736405,
5.511811 0.835165 0.835165,
7.086614 0.835165 0.835165,
5.511811 0.736405 0.923423,
7.086614 0.736405 0.923423,
5.511811 0.628384 1.000068,
7.086614 0.628384 1.000068,
7.086614 0.512461 1.064137,
5.511811 0.512461 1.064137,
5.511811 0.390093 1.114823,
7.086614 0.390093 1.114823,
7.086614 0.262820 1.151490,
5.511811 0.262820 1.151490,
5.511811 0.132241 1.173676,
7.086614 0.132241 1.173676,
5.511811 -0.000000 1.181102,
7.086614 -0.000000 1.181102,
7.086614 -0.132241 1.173676,
5.511811 -0.132241 1.173676,
5.511811 -0.262820 1.151490,
7.086614 -0.262820 1.151490,
5.511811 -0.390093 1.114823,
7.086614 -0.390093 1.114823,
7.086614 -0.512461 1.064137,
5.511811 -0.512461 1.064137,
5.511811 -0.628384 1.000068,
7.086614 -0.628384 1.000068,
7.086614 -0.736405 0.923423,
5.511811 -0.736405 0.923423,
5.511811 -0.835165 0.835165,
7.086614 -0.835165 0.835165,
7.086614 -0.923423 0.736405,
5.511811 -0.923423 0.736405,
7.086614 -1.000068 0.628384,
5.511811 -1.000068 0.628384,
7.086614 -1.064137 0.512461,
5.511811 -1.064137 0.512461,
5.511811 -1.114823 0.390093,
7.086614 -1.114823 0.390093,
7.086614 -1.151490 0.262820,
5.511811 -1.151490 0.262820,
5.511811 -1.173676 0.132241,
7.086614 -1.173676 0.132241,
7.086614 -1.181102 -0.000000,
5.511811 -1.181102 -0.000000,
4.724409 0.000000 -0.708661,
7.086614 -0.100853 -0.701448,
7.086614 0.000000 -0.708661,
4.724409 -0.100853 -0.701448,
7.086614 -0.199653 -0.679956,
4.724409 -0.199653 -0.679956,
7.086614 -0.294389 -0.644621,
4.724409 -0.294389 -0.644621,
7.086614 -0.383131 -0.596164,
4.724409 -0.383131 -0.596164,
7.086614 -0.464074 -0.535570,
4.724409 -0.464074 -0.535570,
7.086614 -0.535570 -0.464074,
4.724409 -0.535570 -0.464074,
7.086614 -0.596164 -0.383131,
4.724409 -0.596164 -0.383131,
4.724409 -0.644621 -0.294389,
7.086614 -0.644621 -0.294389,
7.086614 -0.679956 -0.199653,
4.724409 -0.679956 -0.199653,
7.086614 -0.701448 -0.100853,
4.724409 -0.701448 -0.100853,
7.086614 -0.708661 -0.000000,
4.724409 -0.708661 -0.000000,
4.724409 -0.701448 0.100853,
7.086614 -0.701448 0.100853,
7.086614 -0.679956 0.199653,
4.724409 -0.679956 0.199653,
4.724409 -0.644621 0.294389,
7.086614 -0.644621 0.294389,
7.086614 -0.596164 0.383131,
4.724409 -0.596164 0.383131,
4.724409 -0.535570 0.464074,
7.086614 -0.535570 0.464074,
4.724409 -0.464074 0.535570,
7.086614 -0.464074 0.535570,
4.724409 -0.383131 0.596164,
7.086614 -0.383131 0.596164,
7.086614 -0.294389 0.644621,
4.724409 -0.294389 0.644621,
7.086614 -0.199653 0.679956,
4.724409 -0.199653 0.679956,
4.724409 -0.100853 0.701448,
7.086614 -0.100853 0.701448,
7.086614 0.000000 0.708661,
4.724409 0.000000 0.708661,
0.393701 -1.929134 2.598425,
0.393701 -1.929134 2.755906,
0.000000 -1.929134 2.755906,
0.000000 -1.929134 -2.086614,
5.511811 -1.929134 2.755906,
5.118110 -1.929134 2.755906,
5.118110 -1.929134 2.598425,
5.511811 -1.929134 -2.086614,
5.511811 0.923423 0.736405,
5.511811 1.259843 2.755906,
5.511811 0.835165 0.835165,
5.511811 0.736405 0.923423,
5.511811 1.000068 0.628384,
5.511811 0.628384 1.000068,
5.511811 1.064137 0.512461,
5.511811 0.512461 1.064137,
5.511811 1.114823 0.390093,
5.511811 0.390093 1.114823,
5.511811 1.151490 0.262820,
5.511811 0.262820 1.151490,
5.511811 0.132241 1.173676,
5.511811 -0.000000 1.181102,
5.511811 -0.132241 1.173676,
5.511811 -1.929134 2.755906,
5.511811 -0.262820 1.151490,
5.511811 -0.390093 1.114823,
5.511811 -0.512461 1.064137,
5.511811 -0.628384 1.000068,
5.511811 -0.736405 0.923423,
5.511811 -0.835165 0.835165,
5.511811 -0.923423 0.736405,
5.511811 -1.000068 0.628384,
5.511811 -1.064137 0.512461,
5.511811 -1.114823 0.390093,
5.511811 1.259843 -2.086614,
5.511811 1.173676 -0.132241,
5.511811 1.151490 -0.262820,
5.511811 1.114823 -0.390093,
5.511811 1.064137 -0.512461,
5.511811 1.000068 -0.628384,
5.511811 0.923423 -0.736405,
5.511811 0.835165 -0.835165,
5.511811 0.736405 -0.923423,
5.511811 0.628384 -1.000068,
5.511811 0.512461 -1.064137,
5.511811 0.390093 -1.114823,
5.511811 -1.151490 0.262820,
5.511811 0.262820 -1.151490,
5.511811 -1.173676 0.132241,
5.511811 0.132241 -1.173676,
5.511811 -0.000000 -1.181102,
5.511811 -0.132241 -1.173676,
5.511811 -1.929134 -2.086614,
5.511811 -0.262820 -1.151490,
5.511811 -0.390093 -1.114823,
5.511811 -0.512461 -1.064137,
5.511811 -0.628384 -1.000068,
5.511811 -0.736405 -0.923423,
5.511811 -0.835165 -0.835165,
5.511811 -0.923423 -0.736405,
5.511811 -1.000068 -0.628384,
5.511811 -1.064137 -0.512461,
5.511811 -1.114823 -0.390093,
5.511811 -1.151490 -0.262820,
5.511811 -1.173676 -0.132241,
5.511811 -1.181102 -0.000000,
5.511811 1.181102 -0.000000,
5.511811 1.173676 0.132241,
0.866142 1.181102 -2.086614,
0.000000 -1.929134 -2.086614,
0.000000 1.259843 -2.086614,
0.866142 1.259843 -2.086614,
5.511811 -1.929134 -2.086614,
5.118110 1.181102 -2.086614,
5.511811 1.259843 -2.086614,
5.118110 1.259843 -2.086614,
0.000000 -1.929134 -2.086614,
0.000000 1.259843 2.755906,
0.000000 1.259843 -2.086614,
0.000000 -1.929134 2.755906,
4.980315 -0.629921 2.598425,
5.118110 -1.929134 2.598425,
5.098425 -0.629921 2.598425,
4.133858 0.157480 2.598425,
4.980315 -0.039370 2.598425,
5.118110 1.181102 2.598425,
5.098425 -0.039370 2.598425,
4.015748 0.157480 2.598425,
4.133858 0.748031 2.598425,
2.677165 -0.629921 2.598425,
4.015748 0.748031 2.598425,
2.677165 -0.039370 2.598425,
0.393701 -1.929134 2.598425,
2.559055 -0.629921 2.598425,
1.929134 0.157480 2.598425,
2.559055 -0.039370 2.598425,
1.811024 0.157480 2.598425,
1.929134 0.748031 2.598425,
0.452756 -0.629921 2.598425,
0.393701 -0.629921 2.598425,
0.452756 -0.039370 2.598425,
1.811024 0.748031 2.598425,
0.393701 1.181102 2.598425,
0.393701 -0.039370 2.598425,
7.086614 -1.173676 -0.132241,
7.086614 -1.181102 -0.000000,
5.511811 -1.181102 -0.000000,
5.511811 -1.173676 -0.132241,
7.086614 -1.151490 -0.262820,
5.511811 -1.151490 -0.262820,
7.086614 -1.114823 -0.390093,
5.511811 -1.114823 -0.390093,
7.086614 -1.064137 -0.512461,
5.511811 -1.064137 -0.512461,
5.511811 -1.000068 -0.628384,
7.086614 -1.000068 -0.628384,
7.086614 -0.923423 -0.736405,
5.511811 -0.923423 -0.736405,
5.511811 -0.835165 -0.835165,
7.086614 -0.835165 -0.835165,
7.086614 -0.736405 -0.923423,
5.511811 -0.736405 -0.923423,
7.086614 -0.628384 -1.000068,
5.511811 -0.628384 -1.000068,
7.086614 -0.512461 -1.064137,
5.511811 -0.512461 -1.064137,
7.086614 -0.390093 -1.114823,
5.511811 -0.390093 -1.114823,
7.086614 -0.262820 -1.151490,
5.511811 -0.262820 -1.151490,
5.511811 -0.132241 -1.173676,
7.086614 -0.132241 -1.173676,
7.086614 0.000000 -1.181102,
5.511811 -0.000000 -1.181102,
7.086614 0.132241 -1.173676,
5.511811 0.132241 -1.173676,
7.086614 0.262820 -1.151490,
5.511811 0.262820 -1.151490,
5.511811 0.390093 -1.114823,
7.086614 0.390093 -1.114823,
7.086614 0.512461 -1.064137,
5.511811 0.512461 -1.064137,
7.086614 0.628384 -1.000068,
5.511811 0.628384 -1.000068,
7.086614 0.736405 -0.923423,
5.511811 0.736405 -0.923423,
7.086614 0.835165 -0.835165,
5.511811 0.835165 -0.835165,
7.086614 0.923423 -0.736405,
5.511811 0.923423 -0.736405,
7.086614 1.000068 -0.628384,
5.511811 1.000068 -0.628384,
7.086614 1.064137 -0.512461,
5.511811 1.064137 -0.512461,
7.086614 1.114823 -0.390093,
5.511811 1.114823 -0.390093,
7.086614 1.151490 -0.262820,
5.511811 1.151490 -0.262820,
7.086614 1.173676 -0.132241,
5.511811 1.173676 -0.132241,
7.086614 1.181102 -0.000000,
5.511811 1.181102 -0.000000,
5.511811 1.259843 2.755906,
5.511811 1.259843 -2.086614,
5.118110 1.259843 -2.086614,
5.118110 1.259843 2.755906,
5.511811 -1.929134 2.755906,
5.511811 1.259843 2.755906,
5.118110 1.259843 2.755906,
5.118110 -1.929134 2.755906,
0.629921 1.181102 -0.905512,
0.393701 1.181102 -0.905512,
0.393701 1.181102 2.598425,
0.866142 1.181102 -1.496063,
0.629921 1.181102 -1.496063,
5.118110 1.181102 2.598425,
5.118110 1.181102 -2.086614,
0.866142 1.181102 -2.086614,
0.629921 1.259843 -1.496063,
0.866142 1.259843 -2.086614,
0.000000 1.259843 -2.086614,
0.866142 1.259843 -1.496063,
0.393701 1.259843 -0.905512,
0.629921 1.259843 -0.905512,
0.000000 1.259843 2.755906,
0.393701 1.259843 2.755906,
0.334646 -0.039370 2.755906,
0.393701 1.259843 2.755906,
0.000000 1.259843 2.755906,
0.393701 -0.039370 2.755906,
0.334646 -0.629921 2.755906,
0.000000 -1.929134 2.755906,
0.393701 -1.929134 2.755906,
0.393701 -0.629921 2.755906,
1.929134 0.186722 3.848588,
1.929134 0.164883 3.786178,
1.929134 0.157480 3.720472,
1.929134 0.268655 3.951328,
1.929134 0.221900 3.904574,
1.929134 0.324641 3.986507,
1.929134 0.748031 3.720472,
1.929134 0.157480 2.598425,
1.929134 0.748031 2.598425,
1.929134 0.718790 3.848588,
1.929134 0.740628 3.786178,
1.929134 0.580871 3.986507,
1.929134 0.518461 4.008345,
1.929134 0.452756 4.015748,
1.929134 0.683612 3.904574,
1.929134 0.636857 3.951328,
1.929134 0.387051 4.008345,
4.133858 0.157480 3.720472,
4.133858 0.157480 2.598425,
4.133858 0.748031 2.598425,
4.133858 0.186722 3.848588,
4.133858 0.164883 3.786178,
4.133858 0.324641 3.986507,
4.133858 0.268655 3.951328,
4.133858 0.221900 3.904574,
4.133858 0.387051 4.008345,
4.133858 0.748031 3.720472,
4.133858 0.718790 3.848588,
4.133858 0.740628 3.786178,
4.133858 0.580871 3.986507,
4.133858 0.518461 4.008345,
4.133858 0.452756 4.015748,
4.133858 0.636857 3.951328,
4.133858 0.683612 3.904574,
2.677165 -0.629921 3.720472,
2.677165 -0.629921 2.598425,
2.677165 -0.039370 2.598425,
2.677165 -0.462761 3.986507,
2.677165 -0.518747 3.951328,
2.677165 -0.565502 3.904574,
2.677165 -0.600680 3.848588,
2.677165 -0.622518 3.786178,
2.677165 -0.039370 3.720472,
2.677165 -0.334646 4.015748,
2.677165 -0.400351 4.008345,
2.677165 -0.068611 3.848588,
2.677165 -0.046773 3.786178,
2.677165 -0.150544 3.951328,
2.677165 -0.206530 3.986507,
2.677165 -0.268941 4.008345,
2.677165 -0.103790 3.904574,
5.098425 -0.565502 3.904574,
5.098425 -0.600680 3.848588,
5.098425 -0.622518 3.786178,
5.098425 -0.629921 3.720472,
5.098425 -0.462761 3.986507,
5.098425 -0.518747 3.951328,
5.098425 -0.039370 3.720472,
5.098425 -0.629921 2.598425,
5.098425 -0.039370 2.598425,
5.098425 -0.046773 3.786178,
5.098425 -0.268941 4.008345,
5.098425 -0.334646 4.015748,
5.098425 -0.400351 4.008345,
5.098425 -0.206530 3.986507,
5.098425 -0.103790 3.904574,
5.098425 -0.068611 3.848588,
5.098425 -0.150544 3.951328,
0.393701 -0.629921 2.755906,
0.393701 -1.929134 2.598425,
0.393701 -0.629921 2.598425,
0.393701 -1.929134 2.755906,
5.118110 1.181102 2.598425,
5.118110 -1.929134 2.755906,
5.118110 1.259843 2.755906,
5.118110 -1.929134 2.598425,
5.118110 1.259843 -2.086614,
5.118110 1.181102 -2.086614,
0.393701 1.181102 2.598425,
0.393701 -0.039370 2.755906,
0.393701 -0.039370 2.598425,
0.393701 1.181102 -0.905512,
0.393701 1.259843 -0.905512,
0.393701 1.259843 2.755906,
7.086614 0.464074 0.535570,
7.086614 0.835165 0.835165,
7.086614 0.736405 0.923423,
7.086614 0.535570 0.464074,
7.086614 0.923423 0.736405,
7.086614 0.383131 0.596164,
7.086614 0.628384 1.000068,
7.086614 0.512461 1.064137,
7.086614 0.596164 0.383131,
7.086614 1.000068 0.628384,
7.086614 1.064137 0.512461,
7.086614 0.644621 0.294389,
7.086614 1.114823 0.390093,
7.086614 0.294389 0.644621,
7.086614 0.390093 1.114823,
7.086614 0.679956 0.199653,
7.086614 1.151490 0.262820,
7.086614 0.199653 0.679956,
7.086614 0.262820 1.151490,
7.086614 0.100853 0.701448,
7.086614 0.132241 1.173676,
7.086614 0.701448 0.100853,
7.086614 1.173676 0.132241,
7.086614 0.708661 -0.000000,
7.086614 1.173676 -0.132241,
7.086614 1.181102 -0.000000,
7.086614 0.000000 0.708661,
7.086614 -0.000000 1.181102,
7.086614 -0.132241 1.173676,
7.086614 0.701448 -0.100853,
7.086614 1.151490 -0.262820,
7.086614 -0.100853 0.701448,
7.086614 -0.262820 1.151490,
7.086614 0.679956 -0.199653,
7.086614 1.114823 -0.390093,
7.086614 -0.199653 0.679956,
7.086614 -0.390093 1.114823,
7.086614 0.644621 -0.294389,
7.086614 1.064137 -0.512461,
7.086614 -0.294389 0.644621,
7.086614 -0.512461 1.064137,
7.086614 0.596164 -0.383131,
7.086614 1.000068 -0.628384,
7.086614 -0.383131 0.596164,
7.086614 -0.628384 1.000068,
7.086614 0.923423 -0.736405,
7.086614 -0.736405 0.923423,
7.086614 0.535570 -0.464074,
7.086614 -0.464074 0.535570,
7.086614 0.835165 -0.835165,
7.086614 -0.835165 0.835165,
7.086614 0.464074 -0.535570,
7.086614 -0.535570 0.464074,
7.086614 0.736405 -0.923423,
7.086614 -0.923423 0.736405,
7.086614 0.383131 -0.596164,
7.086614 -0.596164 0.383131,
7.086614 0.628384 -1.000068,
7.086614 -1.000068 0.628384,
7.086614 0.512461 -1.064137,
7.086614 0.294389 -0.644621,
7.086614 -1.064137 0.512461,
7.086614 -0.644621 0.294389,
7.086614 0.390093 -1.114823,
7.086614 0.199653 -0.679956,
7.086614 -1.114823 0.390093,
7.086614 -0.679956 0.199653,
7.086614 0.262820 -1.151490,
7.086614 0.100853 -0.701448,
7.086614 -1.151490 0.262820,
7.086614 -0.701448 0.100853,
7.086614 0.132241 -1.173676,
7.086614 0.000000 -0.708661,
7.086614 -1.173676 0.132241,
7.086614 -0.708661 -0.000000,
7.086614 -1.181102 -0.000000,
7.086614 0.000000 -1.181102,
7.086614 -0.132241 -1.173676,
7.086614 -0.100853 -0.701448,
7.086614 -1.173676 -0.132241,
7.086614 -0.701448 -0.100853,
7.086614 -0.262820 -1.151490,
7.086614 -0.199653 -0.679956,
7.086614 -1.151490 -0.262820,
7.086614 -0.679956 -0.199653,
7.086614 -0.390093 -1.114823,
7.086614 -0.294389 -0.644621,
7.086614 -1.114823 -0.390093,
7.086614 -0.644621 -0.294389,
7.086614 -0.512461 -1.064137,
7.086614 -0.383131 -0.596164,
7.086614 -1.064137 -0.512461,
7.086614 -0.596164 -0.383131,
7.086614 -0.628384 -1.000068,
7.086614 -1.000068 -0.628384,
7.086614 -0.736405 -0.923423,
7.086614 -0.464074 -0.535570,
7.086614 -0.923423 -0.736405,
7.086614 -0.535570 -0.464074,
7.086614 -0.835165 -0.835165,
0.393701 1.259843 -0.905512,
0.629921 1.181102 -0.905512,
0.629921 1.259843 -0.905512,
0.393701 1.181102 -0.905512,
0.629921 1.259843 -0.905512,
0.629921 1.181102 -1.496063,
0.629921 1.259843 -1.496063,
0.629921 1.181102 -0.905512,
0.629921 1.181102 -1.496063,
0.866142 1.181102 -1.496063,
0.866142 1.259843 -1.496063,
0.629921 1.259843 -1.496063,
0.866142 1.259843 -1.496063,
0.866142 1.181102 -2.086614,
0.866142 1.259843 -2.086614,
0.866142 1.181102 -1.496063,
1.929134 0.157480 3.720472,
1.811024 0.157480 3.720472,
1.811024 0.157480 2.598425,
1.929134 0.157480 2.598425,
1.929134 0.740628 3.786178,
1.929134 0.748031 3.720472,
1.811024 0.748031 3.720472,
1.811024 0.740628 3.786178,
1.929134 0.718790 3.848588,
1.811024 0.718790 3.848588,
1.929134 0.683612 3.904574,
1.811024 0.683612 3.904574,
1.929134 0.636857 3.951328,
1.811024 0.636857 3.951328,
1.929134 0.580871 3.986507,
1.811024 0.580871 3.986507,
1.929134 0.518461 4.008345,
1.811024 0.518461 4.008345,
1.929134 0.452756 4.015748,
1.811024 0.452756 4.015748,
1.929134 0.387051 4.008345,
1.811024 0.387051 4.008345,
1.929134 0.324641 3.986507,
1.811024 0.324641 3.986507,
1.929134 0.268655 3.951328,
1.811024 0.268655 3.951328,
1.929134 0.221900 3.904574,
1.811024 0.221900 3.904574,
1.929134 0.186722 3.848588,
1.811024 0.186722 3.848588,
1.929134 0.164883 3.786178,
1.811024 0.164883 3.786178,
1.929134 0.157480 3.720472,
1.811024 0.157480 3.720472,
1.811024 0.748031 3.720472,
1.929134 0.748031 3.720472,
1.929134 0.748031 2.598425,
1.811024 0.748031 2.598425,
4.133858 0.157480 3.720472,
4.015748 0.157480 3.720472,
4.015748 0.157480 2.598425,
4.133858 0.157480 2.598425,
4.133858 0.740628 3.786178,
4.133858 0.748031 3.720472,
4.015748 0.748031 3.720472,
4.015748 0.740628 3.786178,
4.133858 0.718790 3.848588,
4.015748 0.718790 3.848588,
4.133858 0.683612 3.904574,
4.015748 0.683612 3.904574,
4.133858 0.636857 3.951328,
4.015748 0.636857 3.951328,
4.133858 0.580871 3.986507,
4.015748 0.580871 3.986507,
4.133858 0.518461 4.008345,
4.015748 0.518461 4.008345,
4.133858 0.452756 4.015748,
4.015748 0.452756 4.015748,
4.133858 0.387051 4.008345,
4.015748 0.387051 4.008345,
4.015748 0.324641 3.986507,
4.133858 0.324641 3.986507,
4.133858 0.268655 3.951328,
4.015748 0.268655 3.951328,
4.133858 0.221900 3.904574,
4.015748 0.221900 3.904574,
4.133858 0.186722 3.848588,
4.015748 0.186722 3.848588,
4.015748 0.164883 3.786178,
4.133858 0.164883 3.786178,
4.133858 0.157480 3.720472,
4.015748 0.157480 3.720472,
4.015748 0.748031 3.720472,
4.133858 0.748031 3.720472,
4.133858 0.748031 2.598425,
4.015748 0.748031 2.598425,
2.677165 -0.629921 3.720472,
2.559055 -0.629921 3.720472,
2.559055 -0.629921 2.598425,
2.677165 -0.629921 2.598425,
2.677165 -0.046773 3.786178,
2.677165 -0.039370 3.720472,
2.559055 -0.039370 3.720472,
2.559055 -0.046773 3.786178,
2.677165 -0.068611 3.848588,
2.559055 -0.068611 3.848588,
2.677165 -0.103790 3.904574,
2.559055 -0.103790 3.904574,
2.677165 -0.150544 3.951328,
2.559055 -0.150544 3.951328,
2.677165 -0.206530 3.986507,
2.559055 -0.206530 3.986507,
2.677165 -0.268941 4.008345,
2.559055 -0.268941 4.008345,
2.677165 -0.334646 4.015748,
2.559055 -0.334646 4.015748,
2.677165 -0.400351 4.008345,
2.559055 -0.400351 4.008345,
2.677165 -0.462761 3.986507,
2.559055 -0.462761 3.986507,
2.677165 -0.518747 3.951328,
2.559055 -0.518747 3.951328,
2.677165 -0.565502 3.904574,
2.559055 -0.565502 3.904574,
2.677165 -0.600680 3.848588,
2.559055 -0.600680 3.848588,
2.677165 -0.622518 3.786178,
2.559055 -0.622518 3.786178,
2.677165 -0.629921 3.720472,
2.559055 -0.629921 3.720472,
2.559055 -0.039370 3.720472,
2.677165 -0.039370 3.720472,
2.677165 -0.039370 2.598425,
2.559055 -0.039370 2.598425,
5.098425 -0.629921 3.720472,
4.980315 -0.629921 3.720472,
4.980315 -0.629921 2.598425,
5.098425 -0.629921 2.598425,
4.980315 -0.622518 3.786178,
4.980315 -0.629921 3.720472,
5.098425 -0.629921 3.720472,
5.098425 -0.622518 3.786178,
4.980315 -0.600680 3.848588,
5.098425 -0.600680 3.848588,
4.980315 -0.565502 3.904574,
5.098425 -0.565502 3.904574,
4.980315 -0.518747 3.951328,
5.098425 -0.518747 3.951328,
4.980315 -0.462761 3.986507,
5.098425 -0.462761 3.986507,
4.980315 -0.400351 4.008345,
5.098425 -0.400351 4.008345,
4.980315 -0.334646 4.015748,
5.098425 -0.334646 4.015748,
4.980315 -0.268941 4.008345,
5.098425 -0.268941 4.008345,
4.980315 -0.206530 3.986507,
5.098425 -0.206530 3.986507,
4.980315 -0.150544 3.951328,
5.098425 -0.150544 3.951328,
4.980315 -0.103790 3.904574,
5.098425 -0.103790 3.904574,
4.980315 -0.068611 3.848588,
5.098425 -0.068611 3.848588,
4.980315 -0.046773 3.786178,
5.098425 -0.046773 3.786178,
4.980315 -0.039370 3.720472,
5.098425 -0.039370 3.720472,
4.980315 -0.039370 3.720472,
5.098425 -0.039370 3.720472,
5.098425 -0.039370 2.598425,
4.980315 -0.039370 2.598425,
4.724409 0.000000 0.708661,
7.086614 0.100853 0.701448,
7.086614 0.000000 0.708661,
4.724409 0.100853 0.701448,
7.086614 0.199653 0.679956,
4.724409 0.199653 0.679956,
7.086614 0.294389 0.644621,
4.724409 0.294389 0.644621,
7.086614 0.383131 0.596164,
4.724409 0.383131 0.596164,
7.086614 0.464074 0.535570,
4.724409 0.464074 0.535570,
7.086614 0.535570 0.464074,
4.724409 0.535570 0.464074,
7.086614 0.596164 0.383131,
4.724409 0.596164 0.383131,
7.086614 0.644621 0.294389,
4.724409 0.644621 0.294389,
7.086614 0.679956 0.199653,
4.724409 0.679956 0.199653,
7.086614 0.701448 0.100853,
4.724409 0.701448 0.100853,
7.086614 0.708661 -0.000000,
4.724409 0.708661 -0.000000,
4.724409 0.701448 -0.100853,
7.086614 0.701448 -0.100853,
7.086614 0.679956 -0.199653,
4.724409 0.679956 -0.199653,
7.086614 0.644621 -0.294389,
4.724409 0.644621 -0.294389,
7.086614 0.596164 -0.383131,
4.724409 0.596164 -0.383131,
4.724409 0.535570 -0.464074,
7.086614 0.535570 -0.464074,
7.086614 0.464074 -0.535570,
4.724409 0.464074 -0.535570,
7.086614 0.383131 -0.596164,
4.724409 0.383131 -0.596164,
4.724409 0.294389 -0.644621,
7.086614 0.294389 -0.644621,
7.086614 0.199653 -0.679956,
4.724409 0.199653 -0.679956,
4.724409 0.100853 -0.701448,
7.086614 0.100853 -0.701448,
7.086614 0.000000 -0.708661,
4.724409 0.000000 -0.708661,
1.811024 0.718790 3.848588,
1.811024 0.740628 3.786178,
1.811024 0.748031 3.720472,
1.811024 0.636857 3.951328,
1.811024 0.683612 3.904574,
1.811024 0.157480 3.720472,
1.811024 0.748031 2.598425,
1.811024 0.157480 2.598425,
1.811024 0.164883 3.786178,
1.811024 0.387051 4.008345,
1.811024 0.452756 4.015748,
1.811024 0.518461 4.008345,
1.811024 0.268655 3.951328,
1.811024 0.580871 3.986507,
1.811024 0.324641 3.986507,
1.811024 0.221900 3.904574,
1.811024 0.186722 3.848588,
4.015748 0.636857 3.951328,
4.015748 0.718790 3.848588,
4.015748 0.740628 3.786178,
4.015748 0.683612 3.904574,
4.015748 0.157480 3.720472,
4.015748 0.748031 3.720472,
4.015748 0.748031 2.598425,
4.015748 0.157480 2.598425,
4.015748 0.452756 4.015748,
4.015748 0.518461 4.008345,
4.015748 0.580871 3.986507,
4.015748 0.186722 3.848588,
4.015748 0.164883 3.786178,
4.015748 0.268655 3.951328,
4.015748 0.387051 4.008345,
4.015748 0.324641 3.986507,
4.015748 0.221900 3.904574,
2.559055 -0.103790 3.904574,
2.559055 -0.046773 3.786178,
2.559055 -0.039370 3.720472,
2.559055 -0.068611 3.848588,
2.559055 -0.206530 3.986507,
2.559055 -0.150544 3.951328,
2.559055 -0.629921 3.720472,
2.559055 -0.039370 2.598425,
2.559055 -0.629921 2.598425,
2.559055 -0.334646 4.015748,
2.559055 -0.268941 4.008345,
2.559055 -0.600680 3.848588,
2.559055 -0.622518 3.786178,
2.559055 -0.462761 3.986507,
2.559055 -0.400351 4.008345,
2.559055 -0.565502 3.904574,
2.559055 -0.518747 3.951328,
4.980315 -0.039370 3.720472,
4.980315 -0.039370 2.598425,
4.980315 -0.629921 2.598425,
4.980315 -0.103790 3.904574,
4.980315 -0.046773 3.786178,
4.980315 -0.068611 3.848588,
4.980315 -0.206530 3.986507,
4.980315 -0.150544 3.951328,
4.980315 -0.629921 3.720472,
4.980315 -0.334646 4.015748,
4.980315 -0.268941 4.008345,
4.980315 -0.600680 3.848588,
4.980315 -0.622518 3.786178,
4.980315 -0.518747 3.951328,
4.980315 -0.400351 4.008345,
4.980315 -0.462761 3.986507,
4.980315 -0.565502 3.904574,
4.724409 0.596164 -0.383131,
4.724409 0.464074 -0.535570,
4.724409 0.535570 -0.464074,
4.724409 0.000000 -0.708661,
4.724409 0.100853 -0.701448,
4.724409 0.199653 -0.679956,
4.724409 0.294389 -0.644621,
4.724409 0.383131 -0.596164,
4.724409 0.679956 0.199653,
4.724409 0.679956 -0.199653,
4.724409 0.701448 -0.100853,
4.724409 0.708661 -0.000000,
4.724409 0.701448 0.100853,
4.724409 0.596164 0.383131,
4.724409 0.644621 0.294389,
4.724409 -0.383131 -0.596164,
4.724409 -0.294389 -0.644621,
4.724409 -0.199653 -0.679956,
4.724409 -0.464074 -0.535570,
4.724409 -0.535570 -0.464074,
4.724409 -0.100853 -0.701448,
4.724409 0.383131 0.596164,
4.724409 0.535570 0.464074,
4.724409 0.464074 0.535570,
4.724409 0.294389 0.644621,
4.724409 -0.701448 -0.100853,
4.724409 -0.679956 -0.199653,
4.724409 -0.644621 -0.294389,
4.724409 -0.596164 -0.383131,
4.724409 0.000000 0.708661,
4.724409 0.199653 0.679956,
4.724409 0.100853 0.701448,
4.724409 -0.708661 -0.000000,
4.724409 -0.294389 0.644621,
4.724409 -0.100853 0.701448,
4.724409 -0.199653 0.679956,
4.724409 -0.644621 0.294389,
4.724409 -0.679956 0.199653,
4.724409 -0.701448 0.100853,
4.724409 -0.383131 0.596164,
4.724409 -0.464074 0.535570,
4.724409 -0.535570 0.464074,
4.724409 0.644621 -0.294389,
4.724409 -0.596164 0.383131,
0.452756 -0.629921 3.720472,
0.452756 -0.629921 2.598425,
0.452756 -0.039370 2.598425,
0.452756 -0.565502 3.904574,
0.452756 -0.600680 3.848588,
0.452756 -0.622518 3.786178,
0.452756 -0.462761 3.986507,
0.452756 -0.518747 3.951328,
0.452756 -0.039370 3.720472,
0.452756 -0.206530 3.986507,
0.452756 -0.268941 4.008345,
0.452756 -0.334646 4.015748,
0.452756 -0.400351 4.008345,
0.452756 -0.103790 3.904574,
0.452756 -0.046773 3.786178,
0.452756 -0.068611 3.848588,
0.452756 -0.150544 3.951328,
0.393701 -0.629921 2.755906,
0.393701 -0.629921 2.598425,
0.452756 -0.629921 2.598425,
0.334646 -0.629921 3.720472,
0.334646 -0.629921 2.755906,
0.452756 -0.629921 3.720472,
0.452756 -0.046773 3.786178,
0.452756 -0.039370 3.720472,
0.334646 -0.039370 3.720472,
0.334646 -0.046773 3.786178,
0.452756 -0.068611 3.848588,
0.334646 -0.068611 3.848588,
0.452756 -0.103790 3.904574,
0.334646 -0.103790 3.904574,
0.452756 -0.150544 3.951328,
0.334646 -0.150544 3.951328,
0.452756 -0.206530 3.986507,
0.334646 -0.206530 3.986507,
0.452756 -0.268941 4.008345,
0.334646 -0.268941 4.008345,
0.452756 -0.334646 4.015748,
0.334646 -0.334646 4.015748,
0.452756 -0.400351 4.008345,
0.334646 -0.400351 4.008345,
0.452756 -0.462761 3.986507,
0.334646 -0.462761 3.986507,
0.334646 -0.518747 3.951328,
0.452756 -0.518747 3.951328,
0.452756 -0.565502 3.904574,
0.334646 -0.565502 3.904574,
0.452756 -0.600680 3.848588,
0.334646 -0.600680 3.848588,
0.452756 -0.622518 3.786178,
0.334646 -0.622518 3.786178,
0.452756 -0.629921 3.720472,
0.334646 -0.629921 3.720472,
0.393701 -0.039370 2.755906,
0.452756 -0.039370 2.598425,
0.393701 -0.039370 2.598425,
0.334646 -0.039370 3.720472,
0.334646 -0.039370 2.755906,
0.452756 -0.039370 3.720472,
0.334646 -0.103790 3.904574,
0.334646 -0.068611 3.848588,
0.334646 -0.046773 3.786178,
0.334646 -0.206530 3.986507,
0.334646 -0.150544 3.951328,
0.334646 -0.629921 3.720472,
0.334646 -0.039370 3.720472,
0.334646 -0.039370 2.755906,
0.334646 -0.629921 2.755906,
0.334646 -0.334646 4.015748,
0.334646 -0.268941 4.008345,
0.334646 -0.600680 3.848588,
0.334646 -0.622518 3.786178,
0.334646 -0.462761 3.986507,
0.334646 -0.400351 4.008345,
0.334646 -0.518747 3.951328,
0.334646 -0.565502 3.904574,
]
}
coordIndex [
0 1 2 -1,
3 2 4 -1,
3 0 2 -1,
5 4 6 -1,
5 3 4 -1,
7 6 8 -1,
7 5 6 -1,
9 8 10 -1,
9 7 8 -1,
11 10 12 -1,
11 9 10 -1,
13 12 14 -1,
13 11 12 -1,
15 14 16 -1,
15 13 14 -1,
17 16 18 -1,
17 15 16 -1,
19 17 18 -1,
20 19 18 -1,
20 21 22 -1,
20 18 21 -1,
23 20 22 -1,
24 23 22 -1,
24 25 26 -1,
24 22 25 -1,
27 26 28 -1,
27 24 26 -1,
29 27 28 -1,
30 31 32 -1,
30 28 31 -1,
30 29 28 -1,
33 32 34 -1,
33 30 32 -1,
35 33 34 -1,
36 37 38 -1,
36 34 37 -1,
36 35 34 -1,
39 36 38 -1,
40 41 42 -1,
40 38 41 -1,
40 39 38 -1,
43 40 42 -1,
44 42 45 -1,
44 43 42 -1,
46 45 47 -1,
46 44 45 -1,
48 49 50 -1,
48 47 49 -1,
48 46 47 -1,
51 48 50 -1,
52 53 54 -1,
52 50 53 -1,
52 51 50 -1,
55 52 54 -1,
56 54 57 -1,
56 55 54 -1,
58 59 60 -1,
61 62 59 -1,
61 59 58 -1,
63 64 62 -1,
63 62 61 -1,
65 66 64 -1,
65 64 63 -1,
67 68 66 -1,
67 66 65 -1,
69 70 68 -1,
69 68 67 -1,
71 72 70 -1,
71 70 69 -1,
73 72 71 -1,
74 75 72 -1,
74 76 75 -1,
74 72 73 -1,
77 78 76 -1,
77 76 74 -1,
79 80 78 -1,
79 78 77 -1,
81 80 79 -1,
82 83 80 -1,
82 84 83 -1,
82 80 81 -1,
85 84 82 -1,
86 84 85 -1,
86 87 84 -1,
86 88 87 -1,
89 88 86 -1,
90 88 89 -1,
90 91 88 -1,
92 91 90 -1,
92 93 91 -1,
94 93 92 -1,
94 95 93 -1,
94 96 95 -1,
97 96 94 -1,
97 98 96 -1,
99 98 97 -1,
100 98 99 -1,
100 101 98 -1,
100 102 101 -1,
103 102 100 -1,
104 105 106 -1,
107 104 106 -1,
108 109 110 -1,
111 110 104 -1,
111 104 107 -1,
111 108 110 -1,
112 113 114 -1,
115 114 113 -1,
116 113 112 -1,
117 115 113 -1,
118 113 116 -1,
119 117 113 -1,
120 113 118 -1,
121 119 113 -1,
122 113 120 -1,
123 121 113 -1,
124 123 113 -1,
125 124 113 -1,
126 125 113 -1,
127 128 126 -1,
127 126 113 -1,
129 128 127 -1,
130 129 127 -1,
131 130 127 -1,
132 131 127 -1,
133 132 127 -1,
134 133 127 -1,
135 134 127 -1,
136 135 127 -1,
137 136 127 -1,
138 139 140 -1,
138 140 141 -1,
138 141 142 -1,
138 142 143 -1,
138 143 144 -1,
138 144 145 -1,
138 145 146 -1,
138 146 147 -1,
138 147 148 -1,
138 148 149 -1,
150 137 127 -1,
151 138 149 -1,
152 150 127 -1,
153 138 151 -1,
154 138 153 -1,
155 138 154 -1,
156 155 157 -1,
156 157 158 -1,
156 158 159 -1,
156 159 160 -1,
156 160 161 -1,
156 161 162 -1,
156 162 163 -1,
156 163 164 -1,
156 164 165 -1,
156 165 166 -1,
156 166 167 -1,
156 167 168 -1,
156 168 169 -1,
156 169 152 -1,
156 152 127 -1,
156 138 155 -1,
138 113 170 -1,
170 113 171 -1,
171 113 122 -1,
138 170 139 -1,
172 173 174 -1,
175 172 174 -1,
176 173 172 -1,
177 176 172 -1,
178 177 179 -1,
178 176 177 -1,
180 181 182 -1,
180 183 181 -1,
184 185 186 -1,
187 184 188 -1,
189 188 190 -1,
191 184 187 -1,
192 187 188 -1,
192 188 189 -1,
193 185 184 -1,
193 184 191 -1,
194 192 189 -1,
195 191 194 -1,
195 193 191 -1,
196 193 197 -1,
196 185 193 -1,
198 197 199 -1,
200 197 198 -1,
201 199 195 -1,
201 198 199 -1,
201 195 194 -1,
202 196 197 -1,
202 197 200 -1,
203 196 202 -1,
204 200 205 -1,
204 202 200 -1,
206 207 204 -1,
206 204 205 -1,
206 194 189 -1,
206 201 194 -1,
206 205 201 -1,
189 186 185 -1,
189 190 186 -1,
208 209 210 -1,
208 210 211 -1,
212 211 213 -1,
212 208 211 -1,
214 213 215 -1,
214 212 213 -1,
216 217 218 -1,
216 215 217 -1,
216 214 215 -1,
219 216 218 -1,
220 221 222 -1,
220 218 221 -1,
220 219 218 -1,
223 220 222 -1,
224 222 225 -1,
224 223 222 -1,
226 225 227 -1,
226 224 225 -1,
228 226 227 -1,
228 227 229 -1,
230 228 229 -1,
230 229 231 -1,
232 230 231 -1,
232 233 234 -1,
232 231 233 -1,
235 232 234 -1,
236 235 234 -1,
236 234 237 -1,
238 237 239 -1,
238 236 237 -1,
240 241 242 -1,
240 239 241 -1,
240 238 239 -1,
243 240 242 -1,
244 242 245 -1,
244 243 242 -1,
246 245 247 -1,
246 244 245 -1,
248 247 249 -1,
248 246 247 -1,
250 249 251 -1,
250 248 249 -1,
252 251 253 -1,
252 250 251 -1,
254 253 255 -1,
254 252 253 -1,
256 255 257 -1,
256 254 255 -1,
258 257 259 -1,
258 256 257 -1,
260 259 261 -1,
260 258 259 -1,
262 261 263 -1,
262 260 261 -1,
264 263 265 -1,
264 262 263 -1,
266 267 268 -1,
266 268 269 -1,
270 271 272 -1,
270 272 273 -1,
274 275 276 -1,
277 278 274 -1,
279 274 276 -1,
280 281 277 -1,
280 277 274 -1,
280 274 279 -1,
282 283 284 -1,
285 283 282 -1,
286 282 284 -1,
287 282 286 -1,
288 286 284 -1,
289 286 288 -1,
290 291 292 -1,
293 291 290 -1,
294 290 292 -1,
295 294 292 -1,
296 297 294 -1,
296 294 295 -1,
298 299 300 -1,
301 302 298 -1,
303 301 298 -1,
304 300 305 -1,
304 305 306 -1,
307 304 308 -1,
307 298 300 -1,
307 300 304 -1,
309 310 311 -1,
312 313 309 -1,
312 311 314 -1,
312 314 303 -1,
312 303 298 -1,
312 298 307 -1,
312 309 311 -1,
315 316 317 -1,
318 319 315 -1,
320 321 322 -1,
323 322 318 -1,
323 318 315 -1,
323 320 322 -1,
324 315 317 -1,
325 324 326 -1,
327 328 329 -1,
327 329 323 -1,
330 325 331 -1,
330 323 315 -1,
330 315 324 -1,
330 324 325 -1,
330 327 323 -1,
332 333 334 -1,
335 336 337 -1,
335 337 338 -1,
335 338 339 -1,
340 332 334 -1,
341 342 335 -1,
341 339 332 -1,
341 335 339 -1,
343 340 344 -1,
345 346 347 -1,
345 347 341 -1,
348 341 332 -1,
348 332 340 -1,
348 340 343 -1,
348 345 341 -1,
349 350 351 -1,
349 351 352 -1,
353 354 349 -1,
353 349 352 -1,
355 352 356 -1,
355 356 357 -1,
358 352 355 -1,
359 360 361 -1,
359 361 353 -1,
362 359 353 -1,
363 358 364 -1,
363 365 362 -1,
363 353 352 -1,
363 352 358 -1,
363 362 353 -1,
366 367 368 -1,
366 369 367 -1,
370 371 372 -1,
370 373 371 -1,
374 375 370 -1,
374 370 372 -1,
376 377 378 -1,
376 379 380 -1,
381 377 376 -1,
381 376 380 -1,
382 383 384 -1,
385 383 382 -1,
385 386 383 -1,
387 382 384 -1,
387 388 389 -1,
387 384 388 -1,
390 386 385 -1,
390 391 386 -1,
390 392 391 -1,
393 392 390 -1,
393 394 392 -1,
395 387 389 -1,
395 389 396 -1,
397 394 393 -1,
397 398 394 -1,
399 395 396 -1,
399 396 400 -1,
401 399 400 -1,
401 400 402 -1,
403 398 397 -1,
403 404 398 -1,
405 406 407 -1,
405 404 403 -1,
405 407 404 -1,
408 409 410 -1,
408 402 409 -1,
408 401 402 -1,
411 412 406 -1,
411 406 405 -1,
413 408 410 -1,
413 410 414 -1,
415 416 412 -1,
415 412 411 -1,
417 414 418 -1,
417 413 414 -1,
419 420 416 -1,
419 416 415 -1,
421 418 422 -1,
421 417 418 -1,
423 424 420 -1,
423 420 419 -1,
425 422 426 -1,
425 421 422 -1,
427 424 423 -1,
428 425 426 -1,
429 427 423 -1,
430 425 428 -1,
431 427 429 -1,
432 430 428 -1,
433 431 429 -1,
434 430 432 -1,
435 431 433 -1,
436 434 432 -1,
437 435 433 -1,
438 434 436 -1,
439 435 437 -1,
440 438 436 -1,
441 439 437 -1,
441 437 442 -1,
443 438 440 -1,
443 444 438 -1,
445 441 442 -1,
445 442 446 -1,
447 444 443 -1,
447 448 444 -1,
449 445 446 -1,
449 446 450 -1,
451 448 447 -1,
451 452 448 -1,
453 449 450 -1,
453 450 454 -1,
455 452 451 -1,
455 456 452 -1,
457 456 455 -1,
458 453 454 -1,
459 458 454 -1,
459 454 460 -1,
461 456 457 -1,
461 462 456 -1,
463 459 460 -1,
463 460 464 -1,
465 462 461 -1,
465 466 462 -1,
467 463 464 -1,
467 464 468 -1,
469 466 465 -1,
469 470 466 -1,
471 467 468 -1,
471 468 472 -1,
473 474 470 -1,
473 470 469 -1,
475 471 472 -1,
476 474 473 -1,
477 472 478 -1,
477 475 472 -1,
479 480 474 -1,
479 474 476 -1,
481 478 480 -1,
481 477 478 -1,
481 480 479 -1,
482 483 484 -1,
482 485 483 -1,
486 487 488 -1,
486 489 487 -1,
490 491 492 -1,
493 490 492 -1,
494 495 496 -1,
494 497 495 -1,
498 499 500 -1,
498 500 501 -1,
502 503 504 -1,
502 504 505 -1,
506 505 507 -1,
506 502 505 -1,
508 507 509 -1,
508 506 507 -1,
510 509 511 -1,
510 508 509 -1,
512 511 513 -1,
512 510 511 -1,
514 513 515 -1,
514 512 513 -1,
516 515 517 -1,
516 514 515 -1,
518 517 519 -1,
518 516 517 -1,
520 519 521 -1,
520 518 519 -1,
522 521 523 -1,
522 520 521 -1,
524 523 525 -1,
524 522 523 -1,
526 525 527 -1,
526 524 525 -1,
528 527 529 -1,
528 526 527 -1,
530 529 531 -1,
530 528 529 -1,
532 533 534 -1,
532 534 535 -1,
536 537 538 -1,
536 538 539 -1,
540 541 542 -1,
540 542 543 -1,
544 543 545 -1,
544 540 543 -1,
546 545 547 -1,
546 544 545 -1,
548 547 549 -1,
548 546 547 -1,
550 549 551 -1,
550 548 549 -1,
552 551 553 -1,
552 550 551 -1,
554 553 555 -1,
554 552 553 -1,
556 555 557 -1,
556 557 558 -1,
556 554 555 -1,
559 556 558 -1,
560 558 561 -1,
560 559 558 -1,
562 561 563 -1,
562 560 561 -1,
564 563 565 -1,
564 565 566 -1,
564 562 563 -1,
567 564 566 -1,
568 566 569 -1,
568 567 566 -1,
570 571 572 -1,
570 572 573 -1,
574 575 576 -1,
574 576 577 -1,
578 579 580 -1,
578 580 581 -1,
582 581 583 -1,
582 578 581 -1,
584 583 585 -1,
584 582 583 -1,
586 585 587 -1,
586 584 585 -1,
588 587 589 -1,
588 586 587 -1,
590 589 591 -1,
590 588 589 -1,
592 591 593 -1,
592 590 591 -1,
594 593 595 -1,
594 592 593 -1,
596 595 597 -1,
596 594 595 -1,
598 597 599 -1,
598 596 597 -1,
600 599 601 -1,
600 598 599 -1,
602 601 603 -1,
602 600 601 -1,
604 603 605 -1,
604 602 603 -1,
606 605 607 -1,
606 604 605 -1,
608 609 610 -1,
608 610 611 -1,
612 613 614 -1,
612 614 615 -1,
616 617 618 -1,
616 618 619 -1,
620 619 621 -1,
620 616 619 -1,
622 621 623 -1,
622 620 621 -1,
624 623 625 -1,
624 622 623 -1,
626 625 627 -1,
626 624 625 -1,
628 627 629 -1,
628 626 627 -1,
630 629 631 -1,
630 628 629 -1,
632 631 633 -1,
632 630 631 -1,
634 633 635 -1,
634 632 633 -1,
636 635 637 -1,
636 634 635 -1,
638 637 639 -1,
638 636 637 -1,
640 639 641 -1,
640 638 639 -1,
642 641 643 -1,
642 640 641 -1,
644 643 645 -1,
644 642 643 -1,
646 647 648 -1,
646 648 649 -1,
650 651 652 -1,
653 654 651 -1,
653 651 650 -1,
655 656 654 -1,
655 654 653 -1,
657 658 656 -1,
657 656 655 -1,
659 660 658 -1,
659 658 657 -1,
661 662 660 -1,
661 660 659 -1,
663 664 662 -1,
663 662 661 -1,
665 666 664 -1,
665 664 663 -1,
667 668 666 -1,
667 666 665 -1,
669 670 668 -1,
669 668 667 -1,
671 672 670 -1,
671 670 669 -1,
673 672 671 -1,
674 675 672 -1,
674 676 675 -1,
674 672 673 -1,
677 678 676 -1,
677 676 674 -1,
679 678 677 -1,
679 680 678 -1,
681 680 679 -1,
682 680 681 -1,
682 683 680 -1,
682 684 683 -1,
685 684 682 -1,
685 686 684 -1,
687 686 685 -1,
688 686 687 -1,
688 689 686 -1,
688 690 689 -1,
691 690 688 -1,
692 690 691 -1,
692 693 690 -1,
692 694 693 -1,
695 694 692 -1,
696 697 698 -1,
699 700 696 -1,
701 698 702 -1,
701 702 703 -1,
704 698 701 -1,
705 706 707 -1,
708 707 709 -1,
708 710 705 -1,
708 705 707 -1,
711 709 699 -1,
711 704 712 -1,
711 696 698 -1,
711 699 696 -1,
711 698 704 -1,
711 708 709 -1,
713 714 715 -1,
713 716 714 -1,
717 718 719 -1,
717 719 720 -1,
721 722 723 -1,
724 715 718 -1,
724 717 725 -1,
724 718 717 -1,
726 723 713 -1,
726 727 721 -1,
726 728 727 -1,
726 724 729 -1,
726 721 723 -1,
726 713 715 -1,
726 715 724 -1,
730 731 732 -1,
730 733 731 -1,
734 735 730 -1,
736 732 737 -1,
736 737 738 -1,
739 740 734 -1,
741 736 742 -1,
743 744 739 -1,
743 739 734 -1,
745 736 741 -1,
746 734 730 -1,
746 730 732 -1,
746 732 736 -1,
746 743 734 -1,
746 736 745 -1,
747 748 749 -1,
750 751 747 -1,
750 752 751 -1,
753 754 750 -1,
753 750 747 -1,
755 747 749 -1,
756 757 753 -1,
758 755 759 -1,
760 761 756 -1,
760 762 761 -1,
760 758 763 -1,
760 756 753 -1,
760 753 747 -1,
760 747 755 -1,
760 755 758 -1,
764 765 766 -1,
767 768 769 -1,
767 769 770 -1,
767 770 771 -1,
767 771 765 -1,
772 773 774 -1,
772 774 775 -1,
772 775 776 -1,
777 772 778 -1,
779 780 781 -1,
782 779 781 -1,
783 781 784 -1,
783 784 767 -1,
783 767 765 -1,
783 782 781 -1,
785 777 786 -1,
785 786 787 -1,
788 773 772 -1,
788 772 777 -1,
788 777 785 -1,
789 790 791 -1,
789 791 792 -1,
793 794 795 -1,
796 789 792 -1,
797 798 799 -1,
800 801 802 -1,
803 798 797 -1,
804 793 798 -1,
804 798 803 -1,
805 796 792 -1,
805 794 793 -1,
805 764 806 -1,
805 806 773 -1,
805 793 804 -1,
805 800 802 -1,
805 788 794 -1,
805 807 800 -1,
805 802 796 -1,
805 792 783 -1,
805 765 764 -1,
805 783 765 -1,
805 773 788 -1,
808 809 810 -1,
811 812 813 -1,
814 815 811 -1,
816 808 810 -1,
817 818 819 -1,
817 819 820 -1,
817 820 814 -1,
821 816 822 -1,
821 822 823 -1,
824 813 808 -1,
824 811 813 -1,
824 814 811 -1,
824 808 816 -1,
824 816 821 -1,
824 817 814 -1,
825 826 827 -1,
828 829 825 -1,
830 828 825 -1,
827 830 825 -1,
831 832 833 -1,
831 833 834 -1,
835 834 836 -1,
835 831 834 -1,
837 836 838 -1,
837 835 836 -1,
839 838 840 -1,
839 837 838 -1,
841 840 842 -1,
841 839 840 -1,
843 842 844 -1,
843 841 842 -1,
845 844 846 -1,
845 843 844 -1,
847 846 848 -1,
847 845 846 -1,
849 848 850 -1,
849 850 851 -1,
849 847 848 -1,
852 849 851 -1,
853 851 854 -1,
853 852 851 -1,
855 854 856 -1,
855 853 854 -1,
857 856 858 -1,
857 855 856 -1,
859 858 860 -1,
859 857 858 -1,
861 862 863 -1,
864 861 865 -1,
864 866 861 -1,
866 862 861 -1,
867 868 869 -1,
870 871 867 -1,
870 867 869 -1,
872 873 874 -1,
872 874 875 -1,
876 877 870 -1,
878 872 879 -1,
880 881 876 -1,
880 876 870 -1,
882 869 873 -1,
882 878 883 -1,
882 872 878 -1,
882 870 869 -1,
882 873 872 -1,
882 880 870 -1,
]
creaseAngle 0.5
}
}
]
}